<svg xmlns="http://www.w3.org/2000/svg" xmlns:xlink="http://www.w3.org/1999/xlink" width="1080" zoomAndPan="magnify" viewBox="0 0 810 809.999993" height="1080" preserveAspectRatio="xMidYMid meet" version="1.0"><path fill="#723582" d="M 405 0 C 398.371094 0 391.746094 0.164062 385.128906 0.488281 C 378.507812 0.8125 371.898438 1.300781 365.304688 1.949219 C 358.707031 2.601562 352.128906 3.410156 345.574219 4.382812 C 339.019531 5.355469 332.488281 6.488281 325.988281 7.78125 C 319.488281 9.074219 313.023438 10.527344 306.59375 12.136719 C 300.164062 13.746094 293.777344 15.515625 287.433594 17.4375 C 281.09375 19.363281 274.800781 21.441406 268.558594 23.675781 C 262.320312 25.90625 256.136719 28.292969 250.011719 30.828125 C 243.890625 33.367188 237.832031 36.050781 231.839844 38.882812 C 225.847656 41.71875 219.929688 44.699219 214.085938 47.820312 C 208.238281 50.945312 202.472656 54.210938 196.789062 57.621094 C 191.101562 61.027344 185.503906 64.574219 179.992188 68.253906 C 174.484375 71.9375 169.066406 75.753906 163.742188 79.699219 C 158.417969 83.648438 153.195312 87.726562 148.070312 91.929688 C 142.945312 96.136719 137.929688 100.464844 133.019531 104.914062 C 128.109375 109.367188 123.308594 113.933594 118.621094 118.621094 C 113.933594 123.308594 109.367188 128.109375 104.914062 133.019531 C 100.464844 137.929688 96.136719 142.945312 91.929688 148.070312 C 87.726562 153.195312 83.648438 158.417969 79.699219 163.742188 C 75.753906 169.066406 71.9375 174.484375 68.253906 179.992188 C 64.574219 185.503906 61.027344 191.101562 57.621094 196.789062 C 54.210938 202.472656 50.945312 208.238281 47.820312 214.085938 C 44.699219 219.929688 41.71875 225.847656 38.882812 231.839844 C 36.050781 237.832031 33.367188 243.890625 30.828125 250.011719 C 28.292969 256.136719 25.90625 262.320312 23.675781 268.558594 C 21.441406 274.800781 19.363281 281.09375 17.4375 287.433594 C 15.515625 293.777344 13.746094 300.164062 12.136719 306.59375 C 10.527344 313.023438 9.074219 319.488281 7.78125 325.988281 C 6.488281 332.488281 5.355469 339.019531 4.382812 345.574219 C 3.410156 352.128906 2.601562 358.707031 1.949219 365.304688 C 1.300781 371.898438 0.8125 378.507812 0.488281 385.128906 C 0.164062 391.746094 0 398.371094 0 405 C 0 411.628906 0.164062 418.253906 0.488281 424.871094 C 0.8125 431.492188 1.300781 438.101562 1.949219 444.695312 C 2.601562 451.292969 3.410156 457.871094 4.382812 464.425781 C 5.355469 470.980469 6.488281 477.511719 7.78125 484.011719 C 9.074219 490.511719 10.527344 496.976562 12.136719 503.40625 C 13.746094 509.835938 15.515625 516.222656 17.4375 522.566406 C 19.363281 528.90625 21.441406 535.199219 23.675781 541.441406 C 25.90625 547.679688 28.292969 553.863281 30.828125 559.988281 C 33.367188 566.109375 36.050781 572.167969 38.882812 578.160156 C 41.71875 584.152344 44.699219 590.070312 47.820312 595.914062 C 50.945312 601.761719 54.210938 607.527344 57.621094 613.210938 C 61.027344 618.898438 64.574219 624.496094 68.253906 630.003906 C 71.9375 635.515625 75.753906 640.933594 79.699219 646.257812 C 83.648438 651.582031 87.726562 656.804688 91.929688 661.929688 C 96.136719 667.054688 100.464844 672.070312 104.914062 676.980469 C 109.367188 681.890625 113.933594 686.691406 118.621094 691.378906 C 123.308594 696.066406 128.109375 700.632812 133.019531 705.085938 C 137.929688 709.535156 142.945312 713.863281 148.070312 718.070312 C 153.195312 722.273438 158.417969 726.351562 163.742188 730.300781 C 169.066406 734.246094 174.484375 738.0625 179.992188 741.746094 C 185.503906 745.425781 191.101562 748.972656 196.789062 752.378906 C 202.472656 755.789062 208.238281 759.054688 214.085938 762.179688 C 219.929688 765.300781 225.847656 768.28125 231.839844 771.117188 C 237.832031 773.949219 243.890625 776.632812 250.011719 779.171875 C 256.136719 781.707031 262.320312 784.09375 268.558594 786.324219 C 274.800781 788.558594 281.09375 790.636719 287.433594 792.5625 C 293.777344 794.484375 300.164062 796.253906 306.59375 797.863281 C 313.023438 799.472656 319.488281 800.925781 325.988281 802.21875 C 332.488281 803.511719 339.019531 804.644531 345.574219 805.617188 C 352.128906 806.589844 358.707031 807.398438 365.304688 808.050781 C 371.898438 808.699219 378.507812 809.1875 385.128906 809.511719 C 391.746094 809.835938 398.371094 810 405 810 C 411.628906 810 418.253906 809.835938 424.871094 809.511719 C 431.492188 809.1875 438.101562 808.699219 444.695312 808.050781 C 451.292969 807.398438 457.871094 806.589844 464.425781 805.617188 C 470.980469 804.644531 477.511719 803.511719 484.011719 802.21875 C 490.511719 800.925781 496.976562 799.472656 503.40625 797.863281 C 509.835938 796.253906 516.222656 794.484375 522.566406 792.5625 C 528.90625 790.636719 535.199219 788.558594 541.441406 786.324219 C 547.679688 784.09375 553.863281 781.707031 559.988281 779.171875 C 566.109375 776.632812 572.167969 773.949219 578.160156 771.117188 C 584.152344 768.28125 590.070312 765.300781 595.914062 762.179688 C 601.761719 759.054688 607.527344 755.789062 613.210938 752.378906 C 618.898438 748.972656 624.496094 745.425781 630.003906 741.746094 C 635.515625 738.0625 640.933594 734.246094 646.257812 730.300781 C 651.582031 726.351562 656.804688 722.273438 661.929688 718.070312 C 667.050781 713.863281 672.070312 709.535156 676.980469 705.085938 C 681.890625 700.632812 686.691406 696.066406 691.378906 691.378906 C 696.066406 686.691406 700.632812 681.890625 705.085938 676.980469 C 709.535156 672.070312 713.863281 667.054688 718.070312 661.929688 C 722.273438 656.804688 726.351562 651.582031 730.300781 646.257812 C 734.246094 640.933594 738.0625 635.515625 741.746094 630.003906 C 745.425781 624.496094 748.972656 618.898438 752.378906 613.210938 C 755.789062 607.527344 759.054688 601.761719 762.179688 595.914062 C 765.300781 590.070312 768.28125 584.152344 771.117188 578.160156 C 773.949219 572.167969 776.632812 566.109375 779.171875 559.988281 C 781.707031 553.863281 784.09375 547.679688 786.324219 541.441406 C 788.558594 535.199219 790.636719 528.90625 792.5625 522.566406 C 794.484375 516.222656 796.253906 509.835938 797.863281 503.40625 C 799.472656 496.976562 800.925781 490.511719 802.21875 484.011719 C 803.511719 477.511719 804.644531 470.980469 805.617188 464.425781 C 806.589844 457.871094 807.398438 451.292969 808.050781 444.695312 C 808.699219 438.101562 809.1875 431.492188 809.511719 424.871094 C 809.835938 418.253906 810 411.628906 810 405 C 810 398.371094 809.835938 391.746094 809.511719 385.128906 C 809.1875 378.507812 808.699219 371.898438 808.050781 365.304688 C 807.398438 358.707031 806.589844 352.128906 805.617188 345.574219 C 804.644531 339.019531 803.511719 332.488281 802.21875 325.988281 C 800.925781 319.488281 799.472656 313.023438 797.863281 306.59375 C 796.253906 300.164062 794.484375 293.777344 792.5625 287.433594 C 790.636719 281.09375 788.558594 274.800781 786.324219 268.558594 C 784.09375 262.320312 781.707031 256.136719 779.171875 250.011719 C 776.632812 243.890625 773.949219 237.832031 771.117188 231.839844 C 768.28125 225.847656 765.300781 219.929688 762.179688 214.085938 C 759.054688 208.238281 755.789062 202.472656 752.378906 196.789062 C 748.972656 191.101562 745.425781 185.503906 741.746094 179.992188 C 738.0625 174.484375 734.246094 169.066406 730.300781 163.742188 C 726.351562 158.417969 722.273438 153.195312 718.070312 148.070312 C 713.863281 142.945312 709.535156 137.929688 705.085938 133.019531 C 700.632812 128.109375 696.066406 123.308594 691.378906 118.621094 C 686.691406 113.933594 681.890625 109.367188 676.980469 104.914062 C 672.070312 100.464844 667.054688 96.136719 661.929688 91.929688 C 656.804688 87.726562 651.582031 83.648438 646.257812 79.699219 C 640.933594 75.753906 635.515625 71.9375 630.003906 68.253906 C 624.496094 64.574219 618.898438 61.027344 613.210938 57.621094 C 607.527344 54.210938 601.761719 50.945312 595.914062 47.820312 C 590.070312 44.699219 584.152344 41.71875 578.160156 38.882812 C 572.167969 36.050781 566.109375 33.367188 559.988281 30.828125 C 553.863281 28.292969 547.679688 25.90625 541.441406 23.675781 C 535.199219 21.441406 528.90625 19.363281 522.566406 17.4375 C 516.222656 15.515625 509.835938 13.746094 503.40625 12.136719 C 496.976562 10.527344 490.511719 9.074219 484.011719 7.78125 C 477.511719 6.488281 470.980469 5.355469 464.425781 4.382812 C 457.871094 3.410156 451.292969 2.601562 444.695312 1.949219 C 438.101562 1.300781 431.492188 0.8125 424.871094 0.488281 C 418.253906 0.164062 411.628906 0 405 0 Z M 607.5 455.625 L 455.289062 455.625 L 455.289062 607.5 C 455.289062 609.15625 455.207031 610.8125 455.042969 612.460938 C 454.882812 614.113281 454.636719 615.75 454.316406 617.375 C 453.992188 619.003906 453.589844 620.609375 453.109375 622.195312 C 452.625 623.78125 452.066406 625.339844 451.433594 626.875 C 450.800781 628.40625 450.089844 629.902344 449.308594 631.363281 C 448.527344 632.828125 447.675781 634.246094 446.753906 635.625 C 445.835938 637.003906 444.847656 638.335938 443.796875 639.617188 C 442.746094 640.898438 441.632812 642.125 440.460938 643.296875 C 439.289062 644.46875 438.058594 645.582031 436.777344 646.632812 C 435.496094 647.683594 434.167969 648.671875 432.789062 649.59375 C 431.410156 650.515625 429.988281 651.367188 428.527344 652.148438 C 427.066406 652.929688 425.566406 653.636719 424.035156 654.269531 C 422.503906 654.90625 420.945312 655.464844 419.359375 655.945312 C 417.769531 656.425781 416.164062 656.828125 414.539062 657.152344 C 412.914062 657.476562 411.273438 657.71875 409.625 657.882812 C 407.972656 658.042969 406.320312 658.125 404.664062 658.125 C 403.003906 658.125 401.351562 658.042969 399.699219 657.882812 C 398.050781 657.71875 396.414062 657.476562 394.785156 657.152344 C 393.160156 656.828125 391.554688 656.425781 389.96875 655.945312 C 388.378906 655.464844 386.820312 654.90625 385.289062 654.269531 C 383.757812 653.636719 382.261719 652.929688 380.796875 652.148438 C 379.335938 651.367188 377.914062 650.515625 376.535156 649.59375 C 375.15625 648.671875 373.828125 647.683594 372.546875 646.632812 C 371.265625 645.582031 370.039062 644.46875 368.863281 643.296875 C 367.691406 642.125 366.582031 640.898438 365.527344 639.617188 C 364.476562 638.335938 363.492188 637.003906 362.570312 635.625 C 361.648438 634.246094 360.796875 632.828125 360.015625 631.363281 C 359.234375 629.902344 358.527344 628.40625 357.890625 626.875 C 357.257812 625.339844 356.699219 623.78125 356.21875 622.195312 C 355.734375 620.609375 355.332031 619.003906 355.011719 617.375 C 354.6875 615.75 354.445312 614.113281 354.28125 612.460938 C 354.117188 610.8125 354.039062 609.15625 354.039062 607.5 L 354.039062 455.625 L 202.5 455.625 C 200.84375 455.625 199.1875 455.542969 197.539062 455.382812 C 195.886719 455.21875 194.25 454.976562 192.625 454.652344 C 190.996094 454.328125 189.390625 453.925781 187.804688 453.445312 C 186.21875 452.964844 184.660156 452.40625 183.125 451.769531 C 181.59375 451.136719 180.097656 450.429688 178.636719 449.648438 C 177.171875 448.867188 175.753906 448.015625 174.375 447.09375 C 172.996094 446.171875 171.664062 445.183594 170.382812 444.132812 C 169.101562 443.082031 167.875 441.96875 166.703125 440.796875 C 165.53125 439.625 164.417969 438.398438 163.367188 437.117188 C 162.316406 435.835938 161.328125 434.503906 160.40625 433.125 C 159.484375 431.746094 158.632812 430.328125 157.851562 428.863281 C 157.070312 427.402344 156.363281 425.90625 155.730469 424.375 C 155.09375 422.839844 154.535156 421.28125 154.054688 419.695312 C 153.574219 418.109375 153.171875 416.503906 152.847656 414.875 C 152.523438 413.25 152.28125 411.613281 152.117188 409.960938 C 151.957031 408.3125 151.875 406.65625 151.875 405 C 151.875 403.34375 151.957031 401.6875 152.117188 400.039062 C 152.28125 398.386719 152.523438 396.75 152.847656 395.125 C 153.171875 393.496094 153.574219 391.890625 154.054688 390.304688 C 154.535156 388.71875 155.09375 387.160156 155.730469 385.625 C 156.363281 384.09375 157.070312 382.597656 157.851562 381.136719 C 158.632812 379.671875 159.484375 378.253906 160.40625 376.875 C 161.328125 375.496094 162.316406 374.164062 163.367188 372.882812 C 164.417969 371.601562 165.53125 370.375 166.703125 369.203125 C 167.875 368.03125 169.101562 366.917969 170.382812 365.867188 C 171.664062 364.816406 172.996094 363.828125 174.375 362.90625 C 175.753906 361.984375 177.171875 361.132812 178.636719 360.351562 C 180.097656 359.570312 181.59375 358.863281 183.125 358.230469 C 184.660156 357.59375 186.21875 357.035156 187.804688 356.554688 C 189.390625 356.074219 190.996094 355.671875 192.625 355.347656 C 194.25 355.023438 195.886719 354.78125 197.539062 354.617188 C 199.1875 354.457031 200.84375 354.375 202.5 354.375 L 354.039062 354.375 L 354.039062 202.5 C 354.039062 200.84375 354.117188 199.1875 354.28125 197.539062 C 354.445312 195.886719 354.6875 194.25 355.011719 192.625 C 355.332031 190.996094 355.734375 189.390625 356.21875 187.804688 C 356.699219 186.21875 357.257812 184.660156 357.890625 183.125 C 358.527344 181.59375 359.234375 180.097656 360.015625 178.636719 C 360.796875 177.171875 361.648438 175.753906 362.570312 174.375 C 363.492188 172.996094 364.476562 171.664062 365.527344 170.382812 C 366.582031 169.101562 367.691406 167.875 368.863281 166.703125 C 370.039062 165.53125 371.265625 164.417969 372.546875 163.367188 C 373.828125 162.316406 375.15625 161.328125 376.535156 160.40625 C 377.914062 159.484375 379.335938 158.632812 380.796875 157.851562 C 382.261719 157.070312 383.757812 156.363281 385.289062 155.730469 C 386.820312 155.09375 388.378906 154.535156 389.96875 154.054688 C 391.554688 153.574219 393.160156 153.171875 394.785156 152.847656 C 396.414062 152.523438 398.050781 152.28125 399.699219 152.117188 C 401.351562 151.957031 403.003906 151.875 404.664062 151.875 C 406.320312 151.875 407.972656 151.957031 409.625 152.117188 C 411.273438 152.28125 412.914062 152.523438 414.539062 152.847656 C 416.164062 153.171875 417.773438 153.574219 419.359375 154.054688 C 420.945312 154.535156 422.503906 155.09375 424.035156 155.730469 C 425.566406 156.363281 427.066406 157.070312 428.527344 157.851562 C 429.988281 158.632812 431.410156 159.484375 432.789062 160.40625 C 434.167969 161.328125 435.496094 162.316406 436.777344 163.367188 C 438.058594 164.417969 439.289062 165.53125 440.460938 166.703125 C 441.632812 167.875 442.746094 169.101562 443.796875 170.382812 C 444.847656 171.664062 445.835938 172.996094 446.753906 174.375 C 447.675781 175.753906 448.527344 177.171875 449.308594 178.636719 C 450.089844 180.097656 450.800781 181.59375 451.433594 183.125 C 452.066406 184.660156 452.625 186.21875 453.109375 187.804688 C 453.589844 189.390625 453.992188 190.996094 454.316406 192.625 C 454.636719 194.25 454.882812 195.886719 455.042969 197.539062 C 455.207031 199.1875 455.289062 200.84375 455.289062 202.5 L 455.289062 354.375 L 607.5 354.375 C 609.15625 354.375 610.8125 354.457031 612.460938 354.617188 C 614.113281 354.78125 615.75 355.023438 617.375 355.347656 C 619.003906 355.671875 620.609375 356.074219 622.195312 356.554688 C 623.78125 357.035156 625.339844 357.59375 626.875 358.230469 C 628.40625 358.863281 629.902344 359.570312 631.363281 360.351562 C 632.828125 361.132812 634.246094 361.984375 635.625 362.90625 C 637.003906 363.828125 638.335938 364.816406 639.617188 365.867188 C 640.898438 366.917969 642.125 368.03125 643.296875 369.203125 C 644.46875 370.375 645.582031 371.601562 646.632812 372.882812 C 647.683594 374.164062 648.671875 375.496094 649.59375 376.875 C 650.515625 378.253906 651.367188 379.671875 652.148438 381.136719 C 652.929688 382.597656 653.636719 384.09375 654.269531 385.625 C 654.90625 387.160156 655.464844 388.71875 655.945312 390.304688 C 656.425781 391.890625 656.828125 393.496094 657.152344 395.125 C 657.476562 396.75 657.71875 398.386719 657.882812 400.039062 C 658.042969 401.6875 658.125 403.34375 658.125 405 C 658.125 406.65625 658.042969 408.3125 657.882812 409.960938 C 657.71875 411.613281 657.476562 413.25 657.152344 414.875 C 656.828125 416.503906 656.425781 418.109375 655.945312 419.695312 C 655.464844 421.28125 654.90625 422.839844 654.269531 424.375 C 653.636719 425.90625 652.929688 427.402344 652.148438 428.863281 C 651.367188 430.328125 650.515625 431.746094 649.59375 433.125 C 648.671875 434.503906 647.683594 435.835938 646.632812 437.117188 C 645.582031 438.398438 644.46875 439.625 643.296875 440.796875 C 642.125 441.96875 640.898438 443.082031 639.617188 444.132812 C 638.335938 445.183594 637.003906 446.171875 635.625 447.09375 C 634.246094 448.015625 632.828125 448.867188 631.363281 449.648438 C 629.902344 450.429688 628.40625 451.136719 626.875 451.769531 C 625.339844 452.40625 623.78125 452.964844 622.195312 453.445312 C 620.609375 453.925781 619.003906 454.328125 617.375 454.652344 C 615.75 454.976562 614.113281 455.21875 612.460938 455.382812 C 610.8125 455.542969 609.15625 455.625 607.5 455.625 Z M 607.5 455.625 " fill-opacity="1" fill-rule="nonzero"/></svg>