<svg xmlns="http://www.w3.org/2000/svg" xmlns:xlink="http://www.w3.org/1999/xlink" width="1080" zoomAndPan="magnify" viewBox="0 0 810 809.999993" height="1080" preserveAspectRatio="xMidYMid meet" version="1.0"><path fill="#e5e900" d="M 405 251.414062 C 324.164062 251.414062 258.394531 317.1875 258.394531 398.019531 C 258.394531 478.855469 324.164062 544.628906 405 544.628906 C 485.835938 544.628906 551.605469 478.855469 551.605469 398.019531 C 551.605469 317.1875 485.835938 251.414062 405 251.414062 Z M 405 507.976562 C 344.359375 507.976562 295.046875 458.660156 295.046875 398.019531 C 295.046875 337.378906 344.359375 288.066406 405 288.066406 C 465.640625 288.066406 514.953125 337.378906 514.953125 398.019531 C 514.953125 458.660156 465.640625 507.976562 405 507.976562 Z M 405 507.976562 " fill-opacity="1" fill-rule="nonzero"/><path fill="#e5e900" d="M 691.449219 284.859375 C 692.148438 284.347656 711.167969 264.371094 711.167969 264.371094 C 718.335938 257.207031 718.335938 245.625 711.167969 238.457031 C 704.003906 231.292969 692.421875 231.292969 685.257812 238.457031 C 685.257812 238.457031 662.570312 260.90625 661.726562 263.746094 C 634.457031 245.789062 604.878906 229.40625 571.929688 215.109375 L 586.332031 186.320312 C 590.859375 177.269531 587.195312 166.253906 578.140625 161.726562 C 569.050781 157.183594 558.074219 160.886719 553.550781 169.917969 L 537.660156 201.695312 C 501.742188 189.179688 463.386719 180.660156 423.324219 178.640625 L 423.324219 141.460938 C 423.324219 131.34375 415.117188 123.132812 405 123.132812 C 394.882812 123.132812 386.675781 131.34375 386.675781 141.460938 L 386.675781 178.625 C 346.613281 180.660156 308.257812 189.160156 272.339844 201.679688 L 256.449219 169.902344 C 251.925781 160.847656 240.929688 157.164062 231.859375 161.710938 C 222.804688 166.234375 219.140625 177.25 223.667969 186.304688 L 238.070312 215.09375 C 205.121094 229.386719 175.707031 245.933594 148.4375 263.914062 C 147.597656 261.070312 124.742188 238.457031 124.742188 238.457031 C 117.578125 231.292969 105.996094 231.292969 98.832031 238.457031 C 91.664062 245.625 91.664062 257.207031 98.832031 264.371094 C 98.832031 264.371094 118.273438 283.832031 118.972656 284.363281 C 51.679688 333.585938 9.75 382.023438 6.230469 386.109375 C 0.367188 392.980469 0.367188 403.058594 6.230469 409.933594 C 13.488281 418.417969 186.519531 617.929688 405 617.929688 C 623.480469 617.929688 796.511719 418.417969 803.769531 409.933594 C 809.632812 403.058594 809.632812 392.980469 803.769531 386.109375 C 800.269531 382.003906 758.742188 334.082031 691.449219 284.859375 Z M 405 581.277344 C 233.03125 581.277344 85.542969 440.40625 45.042969 398.019531 C 85.542969 355.632812 233.03125 214.761719 405 214.761719 C 576.96875 214.761719 724.457031 355.632812 764.957031 398.019531 C 724.457031 440.40625 576.96875 581.277344 405 581.277344 Z M 405 581.277344 " fill-opacity="1" fill-rule="nonzero"/><path stroke-linecap="round" transform="matrix(0.591208, -0.46149, 0.46149, 0.591208, 69.461573, 631.925268)" fill="none" stroke-linejoin="miter" d="M 24.998421 24.99838 L 1071.060797 25.001272 " stroke="#e5e900" stroke-width="50" stroke-opacity="1" stroke-miterlimit="4"/></svg>