<svg xmlns="http://www.w3.org/2000/svg" xmlns:xlink="http://www.w3.org/1999/xlink" width="1080" zoomAndPan="magnify" viewBox="0 0 810 809.999993" height="1080" preserveAspectRatio="xMidYMid meet" version="1.0"><path fill="#e5e900" d="M 753.261719 538.066406 C 753.261719 579.636719 719.585938 613.3125 678.011719 613.3125 L 673.097656 613.3125 L 673.097656 272.085938 C 673.097656 197.582031 612.597656 137.085938 538.246094 137.085938 L 199.554688 137.085938 L 199.554688 135 C 199.554688 93.425781 233.378906 59.605469 274.953125 59.605469 L 678.011719 59.605469 C 719.585938 59.605469 753.261719 93.425781 753.261719 135 Z M 613.492188 675.148438 C 613.492188 716.574219 579.667969 750.398438 538.246094 750.398438 L 135.183594 750.398438 C 93.609375 750.398438 59.789062 716.574219 59.789062 675.148438 L 59.789062 272.085938 C 59.789062 230.511719 93.609375 196.691406 135.183594 196.691406 L 538.246094 196.691406 C 579.667969 196.691406 613.492188 230.511719 613.492188 272.085938 Z M 678.011719 0.00390625 L 274.953125 0.00390625 C 200.597656 0.00390625 139.949219 60.648438 139.949219 135 L 139.949219 137.085938 L 135.183594 137.085938 C 60.679688 137.085938 0.183594 197.582031 0.183594 272.085938 L 0.183594 675.148438 C 0.183594 749.507812 60.679688 810 135.183594 810 L 538.246094 810 C 612.597656 810 673.097656 749.507812 673.097656 675.148438 L 673.097656 672.914062 L 678.011719 672.914062 C 752.371094 672.914062 812.863281 612.417969 812.863281 538.066406 L 812.863281 135 C 812.863281 60.648438 752.371094 0.00390625 678.011719 0.00390625 " fill-opacity="1" fill-rule="nonzero"/></svg>