<svg xmlns="http://www.w3.org/2000/svg" xmlns:xlink="http://www.w3.org/1999/xlink" width="1080" zoomAndPan="magnify" viewBox="0 0 810 809.999993" height="1080" preserveAspectRatio="xMidYMid meet" version="1.0"><defs><clipPath id="d99eb7b56c"><path d="M 3.878906 3.878906 L 806.378906 3.878906 L 806.378906 806.378906 L 3.878906 806.378906 Z M 3.878906 3.878906 " clip-rule="nonzero"/></clipPath></defs><g clip-path="url(#d99eb7b56c)"><path fill="#ffffff" d="M 405 3.878906 C 398.433594 3.878906 391.875 4.039062 385.316406 4.359375 C 378.761719 4.683594 372.214844 5.164062 365.683594 5.808594 C 359.148438 6.453125 352.636719 7.257812 346.140625 8.21875 C 339.648438 9.183594 333.183594 10.304688 326.742188 11.585938 C 320.304688 12.867188 313.902344 14.304688 307.535156 15.898438 C 301.167969 17.492188 294.839844 19.246094 288.558594 21.148438 C 282.277344 23.054688 276.046875 25.113281 269.863281 27.324219 C 263.683594 29.539062 257.5625 31.898438 251.496094 34.410156 C 245.429688 36.921875 239.433594 39.582031 233.496094 42.390625 C 227.5625 45.195312 221.699219 48.148438 215.910156 51.242188 C 210.121094 54.335938 204.410156 57.570312 198.78125 60.945312 C 193.152344 64.320312 187.605469 67.832031 182.148438 71.480469 C 176.691406 75.125 171.324219 78.90625 166.050781 82.816406 C 160.777344 86.726562 155.605469 90.761719 150.53125 94.929688 C 145.457031 99.09375 140.488281 103.378906 135.621094 107.789062 C 130.757812 112.195312 126.003906 116.722656 121.363281 121.363281 C 116.722656 126.003906 112.195312 130.757812 107.789062 135.621094 C 103.378906 140.488281 99.09375 145.457031 94.929688 150.53125 C 90.761719 155.605469 86.726562 160.777344 82.816406 166.050781 C 78.90625 171.324219 75.125 176.691406 71.480469 182.148438 C 67.832031 187.605469 64.320312 193.152344 60.945312 198.78125 C 57.570312 204.410156 54.335938 210.121094 51.242188 215.910156 C 48.148438 221.699219 45.195312 227.5625 42.390625 233.496094 C 39.582031 239.433594 36.921875 245.429688 34.410156 251.496094 C 31.898438 257.5625 29.539062 263.683594 27.324219 269.863281 C 25.113281 276.046875 23.054688 282.277344 21.148438 288.558594 C 19.246094 294.839844 17.492188 301.167969 15.898438 307.535156 C 14.304688 313.902344 12.867188 320.304688 11.585938 326.742188 C 10.304688 333.183594 9.183594 339.648438 8.21875 346.140625 C 7.257812 352.636719 6.453125 359.148438 5.808594 365.683594 C 5.164062 372.214844 4.683594 378.761719 4.359375 385.316406 C 4.039062 391.875 3.878906 398.433594 3.878906 405 C 3.878906 411.5625 4.039062 418.125 4.359375 424.679688 C 4.683594 431.238281 5.164062 437.78125 5.808594 444.316406 C 6.453125 450.847656 7.257812 457.363281 8.21875 463.855469 C 9.183594 470.347656 10.304688 476.816406 11.585938 483.253906 C 12.867188 489.691406 14.304688 496.09375 15.898438 502.464844 C 17.492188 508.832031 19.246094 515.15625 21.148438 521.4375 C 23.054688 527.71875 25.113281 533.953125 27.324219 540.132812 C 29.539062 546.3125 31.898438 552.4375 34.410156 558.5 C 36.921875 564.566406 39.582031 570.566406 42.390625 576.5 C 45.195312 582.433594 48.148438 588.296875 51.242188 594.085938 C 54.335938 599.875 57.570312 605.585938 60.945312 611.214844 C 64.320312 616.847656 67.832031 622.390625 71.480469 627.851562 C 75.125 633.308594 78.90625 638.671875 82.816406 643.945312 C 86.726562 649.21875 90.761719 654.394531 94.929688 659.46875 C 99.09375 664.542969 103.378906 669.511719 107.789062 674.375 C 112.195312 679.238281 116.722656 683.992188 121.363281 688.632812 C 126.003906 693.277344 130.757812 697.800781 135.621094 702.210938 C 140.488281 706.617188 145.457031 710.90625 150.53125 715.070312 C 155.605469 719.234375 160.777344 723.273438 166.050781 727.183594 C 171.324219 731.09375 176.691406 734.871094 182.148438 738.519531 C 187.605469 742.164062 193.152344 745.675781 198.78125 749.050781 C 204.410156 752.425781 210.121094 755.660156 215.910156 758.757812 C 221.699219 761.851562 227.5625 764.800781 233.496094 767.609375 C 239.433594 770.414062 245.429688 773.074219 251.496094 775.585938 C 257.5625 778.097656 263.683594 780.460938 269.863281 782.671875 C 276.046875 784.882812 282.277344 786.941406 288.558594 788.847656 C 294.839844 790.753906 301.167969 792.503906 307.535156 794.097656 C 313.902344 795.695312 320.304688 797.132812 326.742188 798.414062 C 333.183594 799.691406 339.648438 800.816406 346.140625 801.777344 C 352.636719 802.742188 359.148438 803.542969 365.683594 804.1875 C 372.214844 804.832031 378.761719 805.316406 385.316406 805.636719 C 391.875 805.957031 398.433594 806.121094 405 806.121094 C 411.5625 806.121094 418.125 805.957031 424.679688 805.636719 C 431.238281 805.316406 437.78125 804.832031 444.316406 804.1875 C 450.847656 803.542969 457.363281 802.742188 463.855469 801.777344 C 470.347656 800.816406 476.816406 799.691406 483.253906 798.414062 C 489.691406 797.132812 496.09375 795.695312 502.464844 794.097656 C 508.832031 792.503906 515.15625 790.753906 521.4375 788.847656 C 527.71875 786.941406 533.953125 784.882812 540.132812 782.671875 C 546.3125 780.460938 552.4375 778.097656 558.5 775.585938 C 564.566406 773.074219 570.566406 770.414062 576.5 767.609375 C 582.433594 764.800781 588.296875 761.851562 594.085938 758.757812 C 599.875 755.660156 605.585938 752.425781 611.214844 749.050781 C 616.847656 745.675781 622.390625 742.164062 627.851562 738.519531 C 633.308594 734.871094 638.671875 731.09375 643.945312 727.183594 C 649.21875 723.273438 654.394531 719.234375 659.46875 715.070312 C 664.542969 710.90625 669.511719 706.617188 674.375 702.210938 C 679.238281 697.800781 683.992188 693.277344 688.632812 688.632812 C 693.277344 683.992188 697.800781 679.238281 702.210938 674.375 C 706.617188 669.511719 710.90625 664.542969 715.070312 659.46875 C 719.234375 654.394531 723.273438 649.21875 727.183594 643.945312 C 731.09375 638.671875 734.871094 633.308594 738.519531 627.851562 C 742.164062 622.390625 745.675781 616.847656 749.050781 611.214844 C 752.425781 605.585938 755.660156 599.875 758.757812 594.085938 C 761.851562 588.296875 764.800781 582.433594 767.609375 576.5 C 770.414062 570.566406 773.074219 564.566406 775.585938 558.5 C 778.097656 552.4375 780.460938 546.3125 782.671875 540.132812 C 784.882812 533.953125 786.941406 527.71875 788.847656 521.4375 C 790.753906 515.15625 792.503906 508.832031 794.097656 502.464844 C 795.695312 496.09375 797.132812 489.691406 798.414062 483.253906 C 799.691406 476.816406 800.816406 470.347656 801.777344 463.855469 C 802.742188 457.363281 803.542969 450.847656 804.1875 444.316406 C 804.832031 437.78125 805.316406 431.238281 805.636719 424.679688 C 805.957031 418.125 806.121094 411.5625 806.121094 405 C 806.121094 398.433594 805.957031 391.875 805.636719 385.316406 C 805.316406 378.761719 804.832031 372.214844 804.1875 365.683594 C 803.542969 359.148438 802.742188 352.636719 801.777344 346.140625 C 800.816406 339.648438 799.691406 333.183594 798.414062 326.742188 C 797.132812 320.304688 795.695312 313.902344 794.097656 307.535156 C 792.503906 301.167969 790.753906 294.839844 788.847656 288.558594 C 786.941406 282.277344 784.882812 276.046875 782.671875 269.863281 C 780.460938 263.683594 778.097656 257.5625 775.585938 251.496094 C 773.074219 245.429688 770.414062 239.433594 767.609375 233.496094 C 764.800781 227.5625 761.851562 221.699219 758.757812 215.910156 C 755.660156 210.121094 752.425781 204.410156 749.050781 198.78125 C 745.675781 193.152344 742.164062 187.605469 738.519531 182.148438 C 734.871094 176.691406 731.09375 171.324219 727.183594 166.050781 C 723.273438 160.777344 719.234375 155.605469 715.070312 150.53125 C 710.90625 145.457031 706.617188 140.488281 702.210938 135.621094 C 697.800781 130.757812 693.277344 126.003906 688.632812 121.363281 C 683.992188 116.722656 679.238281 112.195312 674.375 107.789062 C 669.511719 103.378906 664.542969 99.09375 659.46875 94.929688 C 654.394531 90.761719 649.21875 86.726562 643.945312 82.816406 C 638.671875 78.90625 633.308594 75.125 627.851562 71.480469 C 622.390625 67.832031 616.847656 64.320312 611.214844 60.945312 C 605.585938 57.570312 599.875 54.335938 594.085938 51.242188 C 588.296875 48.148438 582.433594 45.195312 576.5 42.390625 C 570.566406 39.582031 564.566406 36.921875 558.5 34.410156 C 552.4375 31.898438 546.3125 29.539062 540.132812 27.324219 C 533.953125 25.113281 527.71875 23.054688 521.4375 21.148438 C 515.15625 19.246094 508.832031 17.492188 502.464844 15.898438 C 496.09375 14.304688 489.691406 12.867188 483.253906 11.585938 C 476.816406 10.304688 470.347656 9.183594 463.855469 8.21875 C 457.363281 7.257812 450.847656 6.453125 444.316406 5.808594 C 437.78125 5.164062 431.238281 4.683594 424.679688 4.359375 C 418.125 4.039062 411.5625 3.878906 405 3.878906 Z M 602.851562 336.058594 L 561.667969 377.242188 C 561.335938 377.636719 561.207031 378.132812 560.832031 378.503906 C 560.453125 378.875 559.960938 379.007812 559.570312 379.339844 L 353.34375 585.578125 C 349.390625 589.558594 344.976562 592.9375 340.105469 595.71875 C 335.234375 598.5 330.078125 600.582031 324.644531 601.964844 L 255.824219 619.199219 C 251.171875 620.359375 246.445312 620.941406 241.652344 620.945312 C 238.1875 620.972656 234.757812 620.660156 231.355469 620.007812 C 227.957031 619.355469 224.652344 618.378906 221.445312 617.074219 C 218.238281 615.769531 215.191406 614.164062 212.300781 612.253906 C 209.410156 610.347656 206.738281 608.175781 204.277344 605.738281 C 202.648438 604.078125 201.132812 602.320312 199.730469 600.464844 C 198.328125 598.609375 197.050781 596.667969 195.902344 594.644531 C 194.753906 592.621094 193.742188 590.535156 192.867188 588.378906 C 191.988281 586.222656 191.257812 584.019531 190.667969 581.769531 C 190.078125 579.519531 189.636719 577.242188 189.347656 574.933594 C 189.054688 572.625 188.914062 570.308594 188.921875 567.980469 C 188.933594 565.65625 189.09375 563.339844 189.40625 561.035156 C 189.71875 558.730469 190.175781 556.453125 190.785156 554.207031 L 208.039062 485.371094 C 209.410156 479.933594 211.488281 474.78125 214.265625 469.90625 C 217.042969 465.035156 220.421875 460.621094 224.402344 456.671875 L 473.917969 207.144531 C 475.1875 205.789062 476.519531 204.496094 477.917969 203.269531 C 479.3125 202.042969 480.765625 200.890625 482.273438 199.804688 C 483.785156 198.722656 485.34375 197.714844 486.949219 196.785156 C 488.558594 195.851562 490.207031 195 491.898438 194.230469 C 493.589844 193.460938 495.3125 192.777344 497.070312 192.175781 C 498.828125 191.574219 500.613281 191.058594 502.421875 190.632812 C 504.230469 190.207031 506.054688 189.867188 507.894531 189.617188 C 509.738281 189.371094 511.585938 189.210938 513.441406 189.144531 C 515.300781 189.078125 517.15625 189.101562 519.007812 189.214844 C 520.863281 189.328125 522.707031 189.535156 524.542969 189.828125 C 526.375 190.121094 528.191406 190.503906 529.988281 190.976562 C 531.785156 191.449219 533.554688 192.007812 535.296875 192.652344 C 537.039062 193.296875 538.746094 194.027344 540.417969 194.839844 C 542.089844 195.652344 543.71875 196.542969 545.300781 197.515625 C 546.882812 198.484375 548.417969 199.53125 549.898438 200.652344 C 551.378906 201.773438 552.804688 202.964844 554.167969 204.226562 L 605.753906 255.828125 C 608.195312 258.285156 610.371094 260.960938 612.285156 263.851562 C 614.195312 266.738281 615.804688 269.789062 617.113281 273 C 618.417969 276.207031 619.398438 279.515625 620.046875 282.917969 C 620.699219 286.320312 621.007812 289.757812 620.976562 293.222656 C 620.9375 297.210938 620.511719 301.15625 619.699219 305.0625 C 618.886719 308.96875 617.703125 312.757812 616.148438 316.429688 C 614.59375 320.105469 612.699219 323.59375 610.460938 326.894531 C 608.226562 330.195312 605.6875 333.25 602.851562 336.058594 Z M 602.851562 336.058594 " fill-opacity="1" fill-rule="nonzero"/></g><path fill="#ffffff" d="M 528.410156 230.007812 C 526.84375 228.5 525.050781 227.351562 523.03125 226.5625 C 521.007812 225.773438 518.910156 225.402344 516.738281 225.449219 C 515.144531 225.488281 513.570312 225.679688 512.015625 226.027344 C 510.457031 226.371094 508.949219 226.867188 507.492188 227.507812 C 506.03125 228.148438 504.648438 228.925781 503.339844 229.839844 C 502.03125 230.75 500.824219 231.78125 499.71875 232.929688 L 470.382812 262.261719 L 547.738281 339.617188 L 577.082031 310.273438 C 578.230469 309.164062 579.253906 307.957031 580.164062 306.648438 C 581.074219 305.339844 581.847656 303.957031 582.484375 302.496094 C 583.125 301.035156 583.613281 299.527344 583.957031 297.972656 C 584.300781 296.417969 584.492188 294.84375 584.527344 293.25 C 584.582031 291.085938 584.214844 288.992188 583.433594 286.972656 C 582.648438 284.957031 581.503906 283.167969 580 281.605469 Z M 528.410156 230.007812 " fill-opacity="1" fill-rule="nonzero"/><path fill="#ffffff" d="M 250.199219 482.453125 C 248.554688 484.066406 247.160156 485.871094 246.007812 487.867188 C 244.855469 489.863281 243.992188 491.972656 243.414062 494.203125 L 226.160156 563.039062 C 225.660156 564.488281 225.371094 565.976562 225.292969 567.507812 C 225.210938 569.035156 225.34375 570.546875 225.691406 572.039062 C 226.035156 573.53125 226.578125 574.949219 227.320312 576.289062 C 228.066406 577.625 228.976562 578.835938 230.0625 579.917969 C 231.144531 581.003906 232.359375 581.914062 233.699219 582.65625 C 235.039062 583.398438 236.453125 583.9375 237.949219 584.28125 C 239.441406 584.625 240.949219 584.757812 242.480469 584.675781 C 244.011719 584.59375 245.5 584.300781 246.945312 583.800781 L 315.765625 566.566406 C 318 566 320.121094 565.140625 322.121094 563.992188 C 324.125 562.839844 325.933594 561.445312 327.554688 559.796875 L 521.9375 365.402344 L 444.59375 288.046875 Z M 250.199219 482.453125 " fill-opacity="1" fill-rule="nonzero"/></svg>