<svg xmlns="http://www.w3.org/2000/svg" xmlns:xlink="http://www.w3.org/1999/xlink" width="1080" zoomAndPan="magnify" viewBox="0 0 810 809.999993" height="1080" preserveAspectRatio="xMidYMid meet" version="1.0"><path fill="#e5e900" d="M 404.996094 194.144531 C 240.980469 194.144531 96.574219 271.640625 14.410156 389.902344 C 7.875 400.484375 8.5 412 14.410156 419.78125 C 96.574219 538.042969 240.980469 615.851562 404.996094 615.851562 C 569.007812 615.851562 713.414062 538.042969 795.578125 419.78125 C 801.800781 411.066406 801.800781 399.238281 795.578125 389.902344 C 713.414062 271.640625 569.007812 194.144531 404.996094 194.144531 Z M 404.996094 247.054688 C 544.734375 247.054688 667.042969 310.230469 740.492188 405.152344 C 667.042969 499.765625 544.734375 563.253906 404.996094 563.253906 C 265.257812 563.253906 142.945312 499.765625 69.496094 405.152344 C 142.945312 310.230469 264.945312 247.054688 404.996094 247.054688 Z M 404.996094 264.480469 C 327.8125 264.480469 264.324219 327.660156 264.324219 405.152344 C 264.324219 482.335938 327.8125 545.515625 404.996094 545.515625 C 482.175781 545.515625 545.355469 482.335938 545.355469 405.152344 C 545.355469 327.660156 482.175781 264.480469 404.996094 264.480469 Z M 404.996094 317.078125 C 453.855469 317.078125 492.757812 356.292969 492.757812 405.152344 C 492.757812 454.015625 453.855469 492.917969 404.996094 492.917969 C 356.132812 492.917969 317.230469 454.015625 317.230469 405.152344 C 317.230469 356.292969 356.132812 317.078125 404.996094 317.078125 Z M 404.996094 317.078125 " fill-opacity="1" fill-rule="nonzero"/></svg>