<svg xmlns="http://www.w3.org/2000/svg" xmlns:xlink="http://www.w3.org/1999/xlink" width="1080" zoomAndPan="magnify" viewBox="0 0 810 809.999993" height="1080" preserveAspectRatio="xMidYMid meet" version="1.0"><path fill="#e5e900" d="M 449.679688 403.367188 L 467.777344 541.738281 C 470.378906 561.964844 500.417969 557.46875 497.816406 537.71875 L 479.722656 400.292969 C 512.71875 395.5625 545.242188 387.402344 576.820312 376.046875 L 643.875 500.347656 C 647.898438 507.679688 657.121094 510.398438 664.457031 506.378906 C 671.789062 502.476562 674.507812 493.25 670.488281 485.917969 L 605.085938 364.8125 C 631.105469 353.578125 656.769531 339.738281 681.605469 323.417969 L 773.496094 429.742188 C 779.054688 436.128906 788.519531 436.71875 794.902344 431.277344 C 801.171875 425.835938 801.882812 416.257812 796.441406 409.988281 L 706.320312 305.796875 C 715.785156 298.820312 725.246094 291.957031 734.234375 284.152344 C 740.621094 278.714844 741.328125 269.132812 735.890625 262.863281 C 730.449219 256.480469 720.867188 255.769531 714.601562 261.210938 C 535.78125 414.957031 277.601562 413.066406 100.4375 255.886719 C 94.289062 250.328125 84.589844 250.921875 79.148438 257.1875 C 73.589844 263.457031 74.0625 273.035156 80.332031 278.59375 C 89.792969 286.992188 99.609375 294.796875 109.542969 302.367188 L 16.585938 409.988281 C 11.144531 416.257812 11.855469 425.835938 18.125 431.277344 C 24.511719 436.71875 33.972656 436.128906 39.53125 429.742188 L 134.5 319.871094 C 158.390625 336.074219 183.578125 350.027344 209.953125 361.738281 L 142.539062 485.917969 C 138.519531 493.25 141.238281 502.476562 148.574219 506.378906 C 155.90625 510.398438 165.128906 507.679688 169.152344 500.347656 L 237.746094 373.207031 C 268.730469 385.035156 300.78125 393.550781 333.425781 398.753906 L 315.210938 537.71875 C 314.148438 545.996094 319.941406 553.683594 328.222656 554.75 C 328.929688 554.867188 329.640625 554.867188 330.230469 554.867188 C 337.683594 554.867188 344.1875 549.308594 345.25 541.738281 L 363.464844 403.128906 C 404.148438 407.152344 426.027344 405.257812 449.679688 403.367188 " fill-opacity="1" fill-rule="nonzero"/></svg>