<svg xmlns="http://www.w3.org/2000/svg" xmlns:xlink="http://www.w3.org/1999/xlink" width="1080" zoomAndPan="magnify" viewBox="0 0 810 809.999993" height="1080" preserveAspectRatio="xMidYMid meet" version="1.0"><defs><clipPath id="74bb409581"><path d="M 10.308594 167 L 205 167 L 205 372 L 10.308594 372 Z M 10.308594 167 " clip-rule="nonzero"/></clipPath></defs><g clip-path="url(#74bb409581)"><path fill="#e5e900" d="M 45.046875 371.246094 L 10.222656 167.488281 L 204.121094 239.179688 L 45.046875 371.246094 L 10.222656 167.488281 L 204.121094 239.179688 L 45.046875 371.246094 " fill-opacity="1" fill-rule="nonzero"/></g><path fill="#e5e900" d="M 408.664062 809.089844 L 373.820312 605.300781 L 567.722656 677.050781 L 408.664062 809.089844 L 373.820312 605.300781 L 567.722656 677.050781 L 408.664062 809.089844 " fill-opacity="1" fill-rule="nonzero"/><path fill="#e5e900" d="M 622.976562 273.386719 L 564.175781 75.210938 L 765.203125 123.398438 L 622.976562 273.386719 L 564.175781 75.210938 L 765.203125 123.398438 L 622.976562 273.386719 " fill-opacity="1" fill-rule="nonzero"/><path fill="#e5e900" d="M 105.105469 245.730469 C 96.496094 245.730469 87.761719 243.363281 79.996094 238.359375 C 58.375 224.472656 52.128906 195.691406 66.015625 174.070312 C 135.675781 65.671875 254.125 0.960938 382.828125 0.960938 C 408.515625 0.960938 429.347656 21.785156 429.347656 47.46875 C 429.347656 73.148438 408.515625 93.980469 382.828125 93.980469 C 285.9375 93.980469 196.75 142.746094 144.257812 224.378906 C 135.371094 238.210938 120.390625 245.730469 105.105469 245.730469 " fill-opacity="1" fill-rule="nonzero"/><path fill="#e5e900" d="M 382.828125 753.714844 C 253.15625 753.714844 134.25 688.269531 64.742188 578.613281 C 50.976562 556.902344 57.433594 528.183594 79.117188 514.414062 C 100.832031 500.675781 129.550781 507.105469 143.316406 528.789062 C 195.660156 611.394531 285.210938 660.675781 382.828125 660.675781 C 408.515625 660.675781 429.347656 681.507812 429.347656 707.195312 C 429.347656 732.878906 408.515625 753.714844 382.828125 753.714844 " fill-opacity="1" fill-rule="nonzero"/><path fill="#e5e900" d="M 679.535156 595.292969 C 671.042969 595.292969 662.460938 592.957031 654.757812 588.105469 C 633.015625 574.398438 626.523438 545.648438 640.230469 523.9375 C 715.5 404.695312 684.78125 296.34375 645.78125 226.441406 C 633.257812 204.003906 641.292969 175.679688 663.734375 163.152344 C 686.144531 150.660156 714.5 158.664062 726.992188 181.105469 C 799.503906 311.050781 796.652344 450.429688 718.898438 573.578125 C 710.042969 587.589844 694.941406 595.292969 679.535156 595.292969 " fill-opacity="1" fill-rule="nonzero"/></svg>