<svg xmlns="http://www.w3.org/2000/svg" xmlns:xlink="http://www.w3.org/1999/xlink" width="1080" zoomAndPan="magnify" viewBox="0 0 810 809.999993" height="1080" preserveAspectRatio="xMidYMid meet" version="1.0"><defs><clipPath id="097a82d69e"><path d="M 9.574219 0 L 800.074219 0 L 800.074219 810 L 9.574219 810 Z M 9.574219 0 " clip-rule="nonzero"/></clipPath><clipPath id="633d504e64"><path d="M 414.640625 680.871094 C 415.394531 680.871094 416.140625 680.734375 416.859375 680.472656 C 504.113281 648.429688 563.378906 607.648438 603.359375 552.136719 C 623.011719 524.847656 633.394531 492.550781 633.394531 458.730469 L 633.394531 216.449219 C 633.394531 199.84375 624.636719 184.332031 610.539062 175.96875 C 556.679688 144.007812 497.691406 120.980469 435.21875 107.53125 C 421.566406 104.585938 407.730469 104.59375 394.078125 107.53125 C 331.589844 120.984375 272.609375 144.011719 218.761719 175.96875 C 204.660156 184.332031 195.894531 199.84375 195.894531 216.449219 L 195.894531 458.730469 C 195.894531 492.558594 206.285156 524.855469 225.9375 552.136719 C 265.917969 607.648438 325.175781 648.429688 412.429688 680.46875 C 413.144531 680.734375 413.890625 680.871094 414.640625 680.871094 Z M 236.371094 544.621094 C 218.300781 519.542969 208.753906 489.84375 208.753906 458.730469 L 208.753906 216.449219 C 208.753906 204.359375 215.097656 193.082031 225.320312 187.019531 C 277.964844 155.769531 335.652344 133.25 396.777344 120.09375 C 402.710938 118.820312 408.683594 118.183594 414.648438 118.183594 C 420.613281 118.183594 426.578125 118.820312 432.507812 120.09375 C 493.621094 133.25 551.304688 155.769531 603.96875 187.019531 C 614.183594 193.082031 620.527344 204.359375 620.527344 216.449219 L 620.527344 458.730469 C 620.527344 489.835938 610.984375 519.539062 592.917969 544.621094 C 554.847656 597.484375 498.160156 636.59375 414.640625 667.585938 C 331.121094 636.59375 274.433594 597.484375 236.371094 544.621094 Z M 462.238281 516.542969 C 463.460938 515.109375 463.992188 513.210938 463.699219 511.355469 L 441.300781 371.757812 C 458.238281 362.199219 468.9375 344.152344 468.9375 324.5 C 468.9375 294.570312 444.585938 270.21875 414.648438 270.21875 C 384.714844 270.21875 360.363281 294.570312 360.363281 324.5 C 360.363281 344.152344 371.0625 362.199219 387.996094 371.757812 L 365.589844 511.347656 C 365.289062 513.207031 365.824219 515.101562 367.050781 516.535156 C 368.265625 517.96875 370.058594 518.792969 371.941406 518.792969 L 457.351562 518.792969 C 459.234375 518.796875 461.023438 517.96875 462.238281 516.542969 Z M 379.476562 505.941406 L 401.417969 369.160156 C 401.875 366.292969 400.355469 363.472656 397.707031 362.28125 C 382.828125 355.597656 373.210938 340.765625 373.210938 324.5 C 373.210938 301.660156 391.792969 283.074219 414.636719 283.074219 C 437.476562 283.074219 456.066406 301.660156 456.066406 324.5 C 456.066406 340.773438 446.449219 355.597656 431.566406 362.28125 C 428.914062 363.472656 427.394531 366.292969 427.851562 369.160156 L 449.800781 505.941406 Z M 231.839844 684.585938 C 276.144531 711.914062 324.851562 728.621094 376.601562 734.238281 C 380.140625 734.625 382.683594 737.792969 382.304688 741.324219 C 381.945312 744.613281 379.160156 747.058594 375.921875 747.058594 C 375.691406 747.058594 375.460938 747.042969 375.226562 747.019531 C 321.550781 741.195312 271.046875 723.871094 225.09375 695.527344 C 222.074219 693.660156 221.140625 689.703125 223 686.679688 C 224.863281 683.660156 228.804688 682.714844 231.839844 684.585938 Z M 184.441406 81.230469 C 182.351562 78.359375 182.988281 74.339844 185.863281 72.25 C 225.089844 43.746094 268.648438 23.070312 315.351562 10.792969 C 318.777344 9.894531 322.300781 11.945312 323.203125 15.378906 C 324.109375 18.808594 322.050781 22.328125 318.617188 23.234375 C 273.476562 35.101562 231.351562 55.09375 193.421875 82.652344 C 192.277344 83.480469 190.960938 83.878906 189.648438 83.878906 C 187.65625 83.878906 185.699219 82.960938 184.441406 81.230469 Z M 40.171875 312.671875 C 39.71875 312.671875 39.265625 312.628906 38.808594 312.53125 C 35.335938 311.777344 33.132812 308.359375 33.878906 304.886719 C 41.386719 270.140625 53.664062 236.566406 70.386719 205.097656 C 72.050781 201.964844 75.9375 200.777344 79.078125 202.4375 C 82.214844 204.101562 83.410156 207.996094 81.738281 211.132812 C 65.578125 241.554688 53.710938 274.019531 46.453125 307.605469 C 45.796875 310.617188 43.132812 312.671875 40.171875 312.671875 Z M 40.882812 340.226562 C 38.921875 355.847656 37.933594 371.785156 37.933594 387.589844 C 37.933594 391.140625 35.058594 394.019531 31.503906 394.019531 C 27.949219 394.019531 25.078125 391.140625 25.078125 387.589844 C 25.078125 371.25 26.105469 354.78125 28.128906 338.625 C 28.566406 335.109375 31.769531 332.601562 35.304688 333.046875 C 38.832031 333.488281 41.328125 336.695312 40.882812 340.226562 Z M 283.582031 698.078125 C 280.308594 696.695312 278.785156 692.929688 280.167969 689.65625 C 281.550781 686.386719 285.304688 684.855469 288.597656 686.238281 C 313.132812 696.605469 338.953125 703.910156 365.320312 707.933594 C 368.835938 708.46875 371.25 711.753906 370.707031 715.261719 C 370.226562 718.445312 367.488281 720.71875 364.363281 720.71875 C 364.042969 720.71875 363.714844 720.699219 363.394531 720.648438 C 335.957031 716.457031 309.109375 708.871094 283.582031 698.078125 Z M 27.851562 608.019531 C 37.902344 608.019531 46.066406 599.851562 46.066406 589.808594 C 46.066406 579.765625 37.894531 571.597656 27.851562 571.597656 C 17.8125 571.597656 9.640625 579.765625 9.640625 589.808594 C 9.640625 599.851562 17.8125 608.019531 27.851562 608.019531 Z M 27.851562 584.453125 C 30.804688 584.453125 33.207031 586.859375 33.207031 589.808594 C 33.207031 592.757812 30.804688 595.164062 27.851562 595.164062 C 24.902344 595.164062 22.5 592.757812 22.5 589.808594 C 22.5 586.859375 24.902344 584.453125 27.851562 584.453125 Z M 723.03125 50.675781 C 733.082031 50.675781 741.246094 42.503906 741.246094 32.464844 C 741.246094 22.421875 733.074219 14.253906 723.03125 14.253906 C 712.992188 14.253906 704.820312 22.421875 704.820312 32.464844 C 704.820312 42.503906 712.984375 50.675781 723.03125 50.675781 Z M 723.03125 27.109375 C 725.984375 27.109375 728.386719 29.511719 728.386719 32.464844 C 728.386719 35.414062 725.984375 37.820312 723.03125 37.820312 C 720.082031 37.820312 717.675781 35.414062 717.675781 32.464844 C 717.675781 29.511719 720.082031 27.109375 723.03125 27.109375 Z M 68.257812 770.722656 C 68.257812 780.761719 76.429688 788.933594 86.460938 788.933594 C 96.511719 788.933594 104.675781 780.761719 104.675781 770.722656 C 104.675781 760.679688 96.503906 752.507812 86.460938 752.507812 C 76.429688 752.507812 68.257812 760.679688 68.257812 770.722656 Z M 91.816406 770.722656 C 91.816406 773.671875 89.414062 776.078125 86.460938 776.078125 C 83.511719 776.078125 81.113281 773.671875 81.113281 770.722656 C 81.113281 767.769531 83.511719 765.367188 86.460938 765.367188 C 89.414062 765.367188 91.816406 767.769531 91.816406 770.722656 Z M 16.070312 121.023438 L 25.710938 121.023438 L 25.710938 200.777344 C 25.710938 204.324219 28.585938 207.207031 32.140625 207.207031 C 35.695312 207.207031 38.570312 204.324219 38.570312 200.777344 L 38.570312 121.023438 L 90.449219 121.023438 L 90.449219 150.957031 C 90.449219 154.503906 93.320312 157.382812 96.878906 157.382812 C 100.433594 157.382812 103.304688 154.503906 103.304688 150.957031 L 103.304688 121.023438 L 139.121094 121.023438 L 190.734375 169.289062 C 173.703125 186.75 158.679688 206.171875 146.070312 227.203125 L 111.875 202.871094 C 111.792969 202.808594 111.683594 202.808594 111.597656 202.75 C 111.519531 202.699219 111.476562 202.617188 111.394531 202.5625 C 111.101562 202.398438 110.789062 202.371094 110.492188 202.253906 C 110.074219 202.089844 109.675781 201.902344 109.238281 201.824219 C 108.835938 201.753906 108.441406 201.785156 108.03125 201.792969 C 107.613281 201.800781 107.207031 201.78125 106.804688 201.871094 C 106.390625 201.960938 106.03125 202.140625 105.644531 202.308594 C 105.273438 202.46875 104.90625 202.597656 104.566406 202.820312 C 104.191406 203.070312 103.898438 203.417969 103.582031 203.746094 C 103.363281 203.972656 103.09375 204.121094 102.90625 204.382812 C 102.855469 204.460938 102.847656 204.542969 102.796875 204.621094 C 102.738281 204.710938 102.644531 204.761719 102.59375 204.851562 C 70.203125 260.046875 53.085938 323.242188 53.085938 387.578125 C 53.085938 475.4375 84.976562 560.128906 142.894531 626.066406 C 144.160156 627.511719 145.941406 628.25 147.71875 628.25 C 149.226562 628.25 150.742188 627.722656 151.964844 626.652344 C 154.632812 624.304688 154.894531 620.242188 152.546875 617.578125 C 143.453125 607.222656 135.09375 596.347656 127.355469 585.097656 L 152.972656 559.730469 C 178.339844 598.269531 212.367188 631.195312 253.34375 655.773438 L 34.28125 655.773438 L 34.28125 621.816406 C 34.28125 618.269531 31.410156 615.386719 27.851562 615.386719 C 24.296875 615.386719 21.425781 618.269531 21.425781 621.816406 L 21.425781 662.199219 C 21.425781 665.75 24.296875 668.628906 27.851562 668.628906 L 80.035156 668.628906 L 80.035156 737.492188 C 80.035156 741.039062 82.90625 743.921875 86.460938 743.921875 C 90.019531 743.921875 92.890625 741.039062 92.890625 737.492188 L 92.890625 668.628906 L 126.460938 668.628906 L 126.460938 699.847656 C 126.460938 703.394531 129.335938 706.273438 132.890625 706.273438 C 136.445312 706.273438 139.320312 703.394531 139.320312 699.847656 L 139.320312 668.628906 L 278.402344 668.628906 C 278.695312 668.628906 278.945312 668.5 279.230469 668.460938 C 279.726562 668.398438 280.21875 668.347656 280.683594 668.167969 C 281.050781 668.023438 281.351562 667.800781 281.679688 667.601562 C 282.050781 667.375 282.425781 667.183594 282.746094 666.878906 C 283.082031 666.570312 283.3125 666.1875 283.574219 665.808594 C 283.753906 665.542969 284.007812 665.355469 284.152344 665.0625 C 284.1875 665.003906 284.171875 664.933594 284.207031 664.875 C 284.386719 664.488281 284.4375 664.066406 284.535156 663.648438 C 284.628906 663.222656 284.777344 662.8125 284.789062 662.386719 C 284.789062 662.324219 284.828125 662.265625 284.828125 662.199219 C 284.828125 661.878906 284.695312 661.601562 284.648438 661.292969 C 284.578125 660.832031 284.539062 660.375 284.371094 659.9375 C 284.226562 659.546875 283.988281 659.222656 283.769531 658.871094 C 283.550781 658.515625 283.371094 658.164062 283.085938 657.855469 C 282.773438 657.515625 282.386719 657.277344 282 657.011719 C 281.742188 656.832031 281.558594 656.582031 281.261719 656.441406 C 230.417969 631.171875 189.113281 593.183594 160.332031 547.378906 C 160.03125 546.46875 159.582031 545.59375 158.863281 544.859375 C 158.808594 544.808594 158.746094 544.796875 158.695312 544.75 C 130.304688 498.511719 114.574219 444.492188 114.574219 387.578125 C 114.574219 222.121094 249.183594 87.511719 414.640625 87.511719 C 580.101562 87.511719 714.714844 222.121094 714.714844 387.578125 C 714.714844 553.039062 580.101562 687.65625 414.640625 687.65625 C 411.085938 687.65625 408.210938 690.539062 408.210938 694.085938 L 408.210938 803.570312 C 408.210938 807.121094 411.085938 810 414.640625 810 C 418.195312 810 421.070312 807.121094 421.070312 803.570312 L 421.070312 781.996094 L 478.945312 781.996094 C 482.5 781.996094 485.375 779.117188 485.375 775.570312 C 485.375 772.019531 482.5 769.140625 478.945312 769.140625 L 421.070312 769.140625 L 421.070312 748.988281 C 513.472656 747.386719 600.0625 711.371094 666.34375 646.996094 L 676.1875 658.570312 C 642.683594 690.9375 604.085938 716.578125 561.277344 734.695312 C 558.003906 736.078125 556.480469 739.851562 557.863281 743.125 C 558.898438 745.574219 561.277344 747.050781 563.785156 747.050781 C 564.621094 747.050781 565.476562 746.882812 566.292969 746.535156 C 610.320312 727.914062 650.015625 701.582031 684.539062 668.378906 L 708.421875 696.453125 L 708.421875 733.042969 C 708.421875 736.59375 711.292969 739.472656 714.847656 739.472656 C 718.402344 739.472656 721.277344 736.59375 721.277344 733.042969 L 721.277344 700.515625 L 738.726562 700.515625 L 738.726562 758.121094 C 738.726562 761.671875 741.597656 764.550781 745.152344 764.550781 C 748.707031 764.550781 751.582031 761.671875 751.582031 758.121094 L 751.582031 700.515625 L 790.777344 700.515625 C 794.332031 700.515625 797.207031 697.636719 797.207031 694.085938 C 797.207031 690.539062 794.332031 687.65625 790.777344 687.65625 L 717.8125 687.65625 L 643.671875 600.503906 C 649.542969 594.199219 655.128906 587.636719 660.46875 580.859375 L 716.425781 641.148438 C 717.640625 642.457031 719.347656 643.203125 721.136719 643.203125 L 780.304688 643.203125 C 783.859375 643.203125 786.734375 640.324219 786.734375 636.777344 C 786.734375 633.226562 783.859375 630.347656 780.304688 630.347656 L 756.441406 630.347656 L 756.441406 588.964844 C 756.441406 585.417969 753.570312 582.539062 750.011719 582.539062 C 746.457031 582.539062 743.585938 585.417969 743.585938 588.964844 L 743.585938 630.347656 L 723.9375 630.347656 L 685.054688 588.445312 C 698.46875 570.402344 710.167969 551.078125 719.703125 530.800781 C 721.207031 527.585938 719.832031 523.761719 716.625 522.25 C 713.410156 520.734375 709.585938 522.121094 708.066406 525.328125 C 699.242188 544.109375 688.453125 562.03125 676.144531 578.839844 L 668.34375 570.4375 C 692.296875 537.300781 709.90625 499.3125 719.425781 458.242188 L 758.648438 472.855469 C 758.796875 472.910156 758.941406 472.890625 759.097656 472.9375 C 759.230469 472.976562 759.328125 473.070312 759.464844 473.105469 C 759.933594 473.214844 760.410156 473.257812 760.871094 473.257812 C 760.878906 473.257812 760.882812 473.265625 760.890625 473.265625 C 760.890625 473.265625 760.890625 473.265625 760.898438 473.265625 C 760.898438 473.265625 760.902344 473.265625 760.902344 473.265625 C 760.941406 473.265625 760.972656 473.246094 761.007812 473.246094 C 761.65625 473.234375 762.292969 473.125 762.894531 472.925781 C 763.148438 472.839844 763.367188 472.699219 763.597656 472.582031 C 763.96875 472.410156 764.335938 472.238281 764.671875 471.992188 C 764.910156 471.820312 765.101562 471.601562 765.320312 471.386719 C 765.597656 471.125 765.859375 470.859375 766.085938 470.546875 C 766.269531 470.289062 766.398438 470.011719 766.546875 469.722656 C 766.664062 469.496094 766.824219 469.3125 766.914062 469.074219 C 766.960938 468.953125 766.933594 468.828125 766.972656 468.707031 C 767.023438 468.546875 767.121094 468.425781 767.160156 468.257812 C 773.164062 441.945312 776.195312 414.796875 776.195312 387.578125 C 776.195312 270.046875 718.984375 163.683594 629.734375 97.21875 L 647.125 77.238281 L 700.695312 77.238281 L 700.695312 132.621094 C 700.695312 136.171875 703.566406 139.050781 707.121094 139.050781 C 710.675781 139.050781 713.550781 136.171875 713.550781 132.621094 L 713.550781 77.238281 L 742.394531 77.238281 L 742.394531 107.472656 C 742.394531 111.019531 745.269531 113.902344 748.824219 113.902344 C 752.378906 113.902344 755.253906 111.019531 755.253906 107.472656 L 755.253906 77.238281 L 793.824219 77.238281 C 797.378906 77.238281 800.253906 74.359375 800.253906 70.8125 C 800.253906 67.261719 797.378906 64.382812 793.824219 64.382812 L 650.628906 64.382812 L 650.628906 38.894531 L 691.109375 38.894531 C 694.664062 38.894531 697.535156 36.011719 697.535156 32.464844 C 697.535156 28.914062 694.664062 26.035156 691.109375 26.035156 L 644.199219 26.035156 C 640.644531 26.035156 637.769531 28.914062 637.769531 32.464844 L 637.769531 68.414062 L 619.21875 89.730469 C 575.324219 59.414062 524.320312 38.519531 468.929688 30.167969 L 468.929688 6.429688 C 468.929688 2.878906 466.058594 0 462.503906 0 C 458.945312 0 456.074219 2.878906 456.074219 6.429688 L 456.074219 77.488281 C 442.503906 75.683594 428.695312 74.660156 414.640625 74.660156 C 400.589844 74.660156 386.78125 75.683594 373.214844 77.488281 L 373.214844 35.664062 C 373.214844 35.519531 373.136719 35.390625 373.132812 35.242188 C 373.125 35.09375 373.183594 34.957031 373.164062 34.804688 C 373.125 34.503906 372.957031 34.257812 372.882812 33.96875 C 372.773438 33.570312 372.667969 33.183594 372.488281 32.816406 C 372.285156 32.398438 372.019531 32.054688 371.730469 31.699219 C 371.511719 31.421875 371.304688 31.152344 371.042969 30.921875 C 370.6875 30.605469 370.296875 30.367188 369.878906 30.136719 C 369.570312 29.964844 369.273438 29.789062 368.941406 29.667969 C 368.511719 29.511719 368.066406 29.457031 367.597656 29.398438 C 367.320312 29.359375 367.078125 29.238281 366.792969 29.238281 C 366.644531 29.238281 366.523438 29.308594 366.382812 29.320312 C 366.226562 29.328125 366.085938 29.269531 365.933594 29.289062 C 289.496094 39.585938 219.917969 73.335938 164.222656 126.898438 L 146.042969 109.902344 C 144.851562 108.789062 143.285156 108.167969 141.652344 108.167969 L 58.261719 108.167969 L 58.261719 56.390625 C 58.261719 52.84375 55.386719 49.960938 51.832031 49.960938 C 48.277344 49.960938 45.402344 52.84375 45.402344 56.390625 L 45.402344 108.167969 L 16.070312 108.167969 C 12.515625 108.167969 9.640625 111.046875 9.640625 114.597656 C 9.640625 118.144531 12.515625 121.023438 16.070312 121.023438 Z M 421.070312 736.128906 L 421.070312 700.355469 C 504.242188 698.664062 579.554688 664.4375 634.703125 609.8125 L 657.996094 637.195312 C 594.042969 699.589844 510.382812 734.523438 421.070312 736.128906 Z M 468.929688 43.1875 C 637.277344 69.523438 763.339844 216.230469 763.339844 387.585938 C 763.339844 411.363281 760.808594 435.058594 756.054688 458.175781 L 722.101562 445.527344 C 725.636719 426.734375 727.566406 407.386719 727.566406 387.585938 C 727.566406 233.5625 615.675781 105.261719 468.929688 79.46875 Z M 145.984375 548.574219 L 120.136719 574.167969 C 84.972656 518.6875 65.941406 454.101562 65.941406 387.585938 C 65.941406 327.890625 81.253906 269.246094 110.222656 217.484375 L 139.621094 238.402344 C 115.457031 282.773438 101.710938 333.605469 101.710938 387.585938 C 101.71875 445.75 117.492188 501.003906 145.984375 548.574219 Z M 360.359375 43.167969 L 360.359375 79.476562 C 298.851562 90.28125 243.5 119.089844 199.921875 160.285156 L 173.632812 135.699219 C 225.472656 86.019531 289.753906 54.171875 360.359375 43.167969 Z M 360.359375 43.167969 " clip-rule="nonzero"/></clipPath><linearGradient x1="61.492001" gradientTransform="matrix(6.428571, 0, 0, 6.428571, 9.641369, 0.00002)" y1="0.000000000000053054" x2="61.492001" gradientUnits="userSpaceOnUse" y2="125.999993" id="c4d121e0ec"><stop stop-opacity="1" stop-color="rgb(0%, 54.499817%, 53.69873%)" offset="0"/><stop stop-opacity="1" stop-color="rgb(0.17395%, 54.367065%, 53.688049%)" offset="0.0078125"/><stop stop-opacity="1" stop-color="rgb(0.521851%, 54.104614%, 53.668213%)" offset="0.015625"/><stop stop-opacity="1" stop-color="rgb(0.871277%, 53.840637%, 53.646851%)" offset="0.0234375"/><stop stop-opacity="1" stop-color="rgb(1.220703%, 53.57666%, 53.625488%)" offset="0.03125"/><stop stop-opacity="1" stop-color="rgb(1.570129%, 53.314209%, 53.604126%)" offset="0.0390625"/><stop stop-opacity="1" stop-color="rgb(1.919556%, 53.050232%, 53.582764%)" offset="0.046875"/><stop stop-opacity="1" stop-color="rgb(2.268982%, 52.787781%, 53.561401%)" offset="0.0546875"/><stop stop-opacity="1" stop-color="rgb(2.618408%, 52.523804%, 53.541565%)" offset="0.0625"/><stop stop-opacity="1" stop-color="rgb(2.966309%, 52.261353%, 53.520203%)" offset="0.0703125"/><stop stop-opacity="1" stop-color="rgb(3.315735%, 51.997375%, 53.49884%)" offset="0.078125"/><stop stop-opacity="1" stop-color="rgb(3.665161%, 51.734924%, 53.477478%)" offset="0.0859375"/><stop stop-opacity="1" stop-color="rgb(4.014587%, 51.470947%, 53.456116%)" offset="0.09375"/><stop stop-opacity="1" stop-color="rgb(4.364014%, 51.208496%, 53.434753%)" offset="0.101563"/><stop stop-opacity="1" stop-color="rgb(4.71344%, 50.944519%, 53.414917%)" offset="0.109375"/><stop stop-opacity="1" stop-color="rgb(5.062866%, 50.680542%, 53.393555%)" offset="0.117188"/><stop stop-opacity="1" stop-color="rgb(5.410767%, 50.418091%, 53.372192%)" offset="0.125"/><stop stop-opacity="1" stop-color="rgb(5.760193%, 50.154114%, 53.35083%)" offset="0.132813"/><stop stop-opacity="1" stop-color="rgb(6.109619%, 49.891663%, 53.329468%)" offset="0.140625"/><stop stop-opacity="1" stop-color="rgb(6.459045%, 49.627686%, 53.309631%)" offset="0.148438"/><stop stop-opacity="1" stop-color="rgb(6.808472%, 49.365234%, 53.288269%)" offset="0.15625"/><stop stop-opacity="1" stop-color="rgb(7.157898%, 49.101257%, 53.266907%)" offset="0.164063"/><stop stop-opacity="1" stop-color="rgb(7.507324%, 48.838806%, 53.245544%)" offset="0.171875"/><stop stop-opacity="1" stop-color="rgb(7.85675%, 48.574829%, 53.224182%)" offset="0.179688"/><stop stop-opacity="1" stop-color="rgb(8.204651%, 48.312378%, 53.20282%)" offset="0.1875"/><stop stop-opacity="1" stop-color="rgb(8.554077%, 48.048401%, 53.182983%)" offset="0.195313"/><stop stop-opacity="1" stop-color="rgb(8.903503%, 47.784424%, 53.161621%)" offset="0.203125"/><stop stop-opacity="1" stop-color="rgb(9.25293%, 47.521973%, 53.140259%)" offset="0.210938"/><stop stop-opacity="1" stop-color="rgb(9.602356%, 47.257996%, 53.118896%)" offset="0.21875"/><stop stop-opacity="1" stop-color="rgb(9.951782%, 46.995544%, 53.097534%)" offset="0.226562"/><stop stop-opacity="1" stop-color="rgb(10.301208%, 46.731567%, 53.076172%)" offset="0.234375"/><stop stop-opacity="1" stop-color="rgb(10.649109%, 46.469116%, 53.056335%)" offset="0.242188"/><stop stop-opacity="1" stop-color="rgb(10.998535%, 46.205139%, 53.034973%)" offset="0.25"/><stop stop-opacity="1" stop-color="rgb(11.347961%, 45.942688%, 53.013611%)" offset="0.257812"/><stop stop-opacity="1" stop-color="rgb(11.697388%, 45.678711%, 52.992249%)" offset="0.265625"/><stop stop-opacity="1" stop-color="rgb(12.046814%, 45.41626%, 52.970886%)" offset="0.273437"/><stop stop-opacity="1" stop-color="rgb(12.39624%, 45.152283%, 52.949524%)" offset="0.28125"/><stop stop-opacity="1" stop-color="rgb(12.745667%, 44.888306%, 52.929688%)" offset="0.289063"/><stop stop-opacity="1" stop-color="rgb(13.093567%, 44.625854%, 52.908325%)" offset="0.296875"/><stop stop-opacity="1" stop-color="rgb(13.442993%, 44.361877%, 52.886963%)" offset="0.304688"/><stop stop-opacity="1" stop-color="rgb(13.792419%, 44.099426%, 52.865601%)" offset="0.3125"/><stop stop-opacity="1" stop-color="rgb(14.141846%, 43.835449%, 52.844238%)" offset="0.320312"/><stop stop-opacity="1" stop-color="rgb(14.491272%, 43.572998%, 52.824402%)" offset="0.328125"/><stop stop-opacity="1" stop-color="rgb(14.840698%, 43.309021%, 52.80304%)" offset="0.335938"/><stop stop-opacity="1" stop-color="rgb(15.190125%, 43.04657%, 52.781677%)" offset="0.34375"/><stop stop-opacity="1" stop-color="rgb(15.539551%, 42.782593%, 52.760315%)" offset="0.351562"/><stop stop-opacity="1" stop-color="rgb(15.887451%, 42.520142%, 52.738953%)" offset="0.359375"/><stop stop-opacity="1" stop-color="rgb(16.236877%, 42.256165%, 52.71759%)" offset="0.367187"/><stop stop-opacity="1" stop-color="rgb(16.586304%, 41.993713%, 52.697754%)" offset="0.375"/><stop stop-opacity="1" stop-color="rgb(16.93573%, 41.729736%, 52.676392%)" offset="0.382813"/><stop stop-opacity="1" stop-color="rgb(17.285156%, 41.465759%, 52.655029%)" offset="0.390625"/><stop stop-opacity="1" stop-color="rgb(17.634583%, 41.203308%, 52.633667%)" offset="0.398438"/><stop stop-opacity="1" stop-color="rgb(17.984009%, 40.939331%, 52.612305%)" offset="0.40625"/><stop stop-opacity="1" stop-color="rgb(18.331909%, 40.67688%, 52.590942%)" offset="0.414062"/><stop stop-opacity="1" stop-color="rgb(18.681335%, 40.412903%, 52.571106%)" offset="0.421875"/><stop stop-opacity="1" stop-color="rgb(19.030762%, 40.150452%, 52.549744%)" offset="0.429688"/><stop stop-opacity="1" stop-color="rgb(19.380188%, 39.886475%, 52.528381%)" offset="0.4375"/><stop stop-opacity="1" stop-color="rgb(19.729614%, 39.624023%, 52.507019%)" offset="0.445312"/><stop stop-opacity="1" stop-color="rgb(20.079041%, 39.360046%, 52.485657%)" offset="0.453125"/><stop stop-opacity="1" stop-color="rgb(20.428467%, 39.097595%, 52.46582%)" offset="0.460937"/><stop stop-opacity="1" stop-color="rgb(20.776367%, 38.833618%, 52.444458%)" offset="0.46875"/><stop stop-opacity="1" stop-color="rgb(21.125793%, 38.569641%, 52.423096%)" offset="0.476563"/><stop stop-opacity="1" stop-color="rgb(21.47522%, 38.30719%, 52.401733%)" offset="0.484375"/><stop stop-opacity="1" stop-color="rgb(21.824646%, 38.043213%, 52.380371%)" offset="0.492188"/><stop stop-opacity="1" stop-color="rgb(22.174072%, 37.780762%, 52.359009%)" offset="0.5"/><stop stop-opacity="1" stop-color="rgb(22.523499%, 37.516785%, 52.339172%)" offset="0.507812"/><stop stop-opacity="1" stop-color="rgb(22.872925%, 37.254333%, 52.31781%)" offset="0.515625"/><stop stop-opacity="1" stop-color="rgb(23.222351%, 36.990356%, 52.296448%)" offset="0.523438"/><stop stop-opacity="1" stop-color="rgb(23.570251%, 36.727905%, 52.275085%)" offset="0.53125"/><stop stop-opacity="1" stop-color="rgb(23.919678%, 36.463928%, 52.253723%)" offset="0.539062"/><stop stop-opacity="1" stop-color="rgb(24.269104%, 36.201477%, 52.232361%)" offset="0.546875"/><stop stop-opacity="1" stop-color="rgb(24.61853%, 35.9375%, 52.212524%)" offset="0.554688"/><stop stop-opacity="1" stop-color="rgb(24.967957%, 35.673523%, 52.191162%)" offset="0.5625"/><stop stop-opacity="1" stop-color="rgb(25.317383%, 35.411072%, 52.1698%)" offset="0.570312"/><stop stop-opacity="1" stop-color="rgb(25.666809%, 35.147095%, 52.148438%)" offset="0.578125"/><stop stop-opacity="1" stop-color="rgb(26.014709%, 34.884644%, 52.127075%)" offset="0.585938"/><stop stop-opacity="1" stop-color="rgb(26.364136%, 34.620667%, 52.107239%)" offset="0.59375"/><stop stop-opacity="1" stop-color="rgb(26.713562%, 34.358215%, 52.085876%)" offset="0.601563"/><stop stop-opacity="1" stop-color="rgb(27.062988%, 34.094238%, 52.064514%)" offset="0.609375"/><stop stop-opacity="1" stop-color="rgb(27.412415%, 33.831787%, 52.043152%)" offset="0.617188"/><stop stop-opacity="1" stop-color="rgb(27.761841%, 33.56781%, 52.02179%)" offset="0.625"/><stop stop-opacity="1" stop-color="rgb(28.111267%, 33.305359%, 52.000427%)" offset="0.632812"/><stop stop-opacity="1" stop-color="rgb(28.459167%, 33.041382%, 51.980591%)" offset="0.640625"/><stop stop-opacity="1" stop-color="rgb(28.808594%, 32.777405%, 51.959229%)" offset="0.648438"/><stop stop-opacity="1" stop-color="rgb(29.15802%, 32.514954%, 51.937866%)" offset="0.65625"/><stop stop-opacity="1" stop-color="rgb(29.507446%, 32.250977%, 51.916504%)" offset="0.664062"/><stop stop-opacity="1" stop-color="rgb(29.856873%, 31.988525%, 51.895142%)" offset="0.671875"/><stop stop-opacity="1" stop-color="rgb(30.206299%, 31.724548%, 51.873779%)" offset="0.679688"/><stop stop-opacity="1" stop-color="rgb(30.555725%, 31.462097%, 51.853943%)" offset="0.6875"/><stop stop-opacity="1" stop-color="rgb(30.905151%, 31.19812%, 51.832581%)" offset="0.695312"/><stop stop-opacity="1" stop-color="rgb(31.253052%, 30.935669%, 51.811218%)" offset="0.703125"/><stop stop-opacity="1" stop-color="rgb(31.602478%, 30.671692%, 51.789856%)" offset="0.710937"/><stop stop-opacity="1" stop-color="rgb(31.951904%, 30.409241%, 51.768494%)" offset="0.71875"/><stop stop-opacity="1" stop-color="rgb(32.301331%, 30.145264%, 51.748657%)" offset="0.726562"/><stop stop-opacity="1" stop-color="rgb(32.650757%, 29.881287%, 51.727295%)" offset="0.734375"/><stop stop-opacity="1" stop-color="rgb(33.000183%, 29.618835%, 51.705933%)" offset="0.742188"/><stop stop-opacity="1" stop-color="rgb(33.349609%, 29.354858%, 51.68457%)" offset="0.75"/><stop stop-opacity="1" stop-color="rgb(33.69751%, 29.092407%, 51.663208%)" offset="0.757812"/><stop stop-opacity="1" stop-color="rgb(34.046936%, 28.82843%, 51.641846%)" offset="0.765625"/><stop stop-opacity="1" stop-color="rgb(34.396362%, 28.565979%, 51.622009%)" offset="0.773438"/><stop stop-opacity="1" stop-color="rgb(34.745789%, 28.302002%, 51.600647%)" offset="0.78125"/><stop stop-opacity="1" stop-color="rgb(35.095215%, 28.039551%, 51.579285%)" offset="0.789063"/><stop stop-opacity="1" stop-color="rgb(35.444641%, 27.775574%, 51.557922%)" offset="0.796875"/><stop stop-opacity="1" stop-color="rgb(35.794067%, 27.513123%, 51.53656%)" offset="0.804688"/><stop stop-opacity="1" stop-color="rgb(36.141968%, 27.249146%, 51.515198%)" offset="0.8125"/><stop stop-opacity="1" stop-color="rgb(36.491394%, 26.986694%, 51.495361%)" offset="0.820312"/><stop stop-opacity="1" stop-color="rgb(36.84082%, 26.722717%, 51.473999%)" offset="0.828125"/><stop stop-opacity="1" stop-color="rgb(37.190247%, 26.45874%, 51.452637%)" offset="0.835938"/><stop stop-opacity="1" stop-color="rgb(37.539673%, 26.196289%, 51.431274%)" offset="0.84375"/><stop stop-opacity="1" stop-color="rgb(37.889099%, 25.932312%, 51.409912%)" offset="0.851562"/><stop stop-opacity="1" stop-color="rgb(38.238525%, 25.669861%, 51.390076%)" offset="0.859375"/><stop stop-opacity="1" stop-color="rgb(38.587952%, 25.405884%, 51.368713%)" offset="0.867188"/><stop stop-opacity="1" stop-color="rgb(38.935852%, 25.143433%, 51.347351%)" offset="0.875"/><stop stop-opacity="1" stop-color="rgb(39.285278%, 24.879456%, 51.325989%)" offset="0.882812"/><stop stop-opacity="1" stop-color="rgb(39.634705%, 24.617004%, 51.304626%)" offset="0.890625"/><stop stop-opacity="1" stop-color="rgb(39.984131%, 24.353027%, 51.283264%)" offset="0.898437"/><stop stop-opacity="1" stop-color="rgb(40.333557%, 24.090576%, 51.263428%)" offset="0.90625"/><stop stop-opacity="1" stop-color="rgb(40.682983%, 23.826599%, 51.242065%)" offset="0.914062"/><stop stop-opacity="1" stop-color="rgb(41.03241%, 23.562622%, 51.220703%)" offset="0.921875"/><stop stop-opacity="1" stop-color="rgb(41.38031%, 23.300171%, 51.199341%)" offset="0.929688"/><stop stop-opacity="1" stop-color="rgb(41.729736%, 23.036194%, 51.177979%)" offset="0.9375"/><stop stop-opacity="1" stop-color="rgb(42.079163%, 22.773743%, 51.156616%)" offset="0.945312"/><stop stop-opacity="1" stop-color="rgb(42.428589%, 22.509766%, 51.13678%)" offset="0.953125"/><stop stop-opacity="1" stop-color="rgb(42.778015%, 22.247314%, 51.115417%)" offset="0.960938"/><stop stop-opacity="1" stop-color="rgb(43.127441%, 21.983337%, 51.094055%)" offset="0.96875"/><stop stop-opacity="1" stop-color="rgb(43.476868%, 21.720886%, 51.072693%)" offset="0.976562"/><stop stop-opacity="1" stop-color="rgb(43.824768%, 21.456909%, 51.051331%)" offset="0.984375"/><stop stop-opacity="1" stop-color="rgb(44.174194%, 21.194458%, 51.031494%)" offset="0.992188"/><stop stop-opacity="1" stop-color="rgb(44.523621%, 20.930481%, 51.010132%)" offset="1"/></linearGradient></defs><g clip-path="url(#097a82d69e)"><g clip-path="url(#633d504e64)"><path fill="url(#c4d121e0ec)" d="M 9.640625 0 L 9.640625 810 L 800.074219 810 L 800.074219 0 Z M 9.640625 0 " fill-rule="nonzero"/></g></g></svg>