<svg xmlns="http://www.w3.org/2000/svg" xmlns:xlink="http://www.w3.org/1999/xlink" width="378" zoomAndPan="magnify" viewBox="0 0 283.5 84.749999" height="113" preserveAspectRatio="xMidYMid meet" version="1.0"><defs><g/><clipPath id="0990ebb6f9"><path d="M 2 3 L 96.660156 3 L 96.660156 81.9375 L 2 81.9375 Z M 2 3 " clip-rule="nonzero"/></clipPath></defs><g clip-path="url(#0990ebb6f9)"><path fill="#e5e900" d="M 15.984375 74.660156 C 16.226562 74.542969 16.996094 74.203125 17.925781 74.4375 C 18.085938 74.480469 19.425781 74.839844 19.707031 75.972656 C 19.859375 76.585938 19.65625 77.269531 19.277344 77.707031 C 18.257812 78.890625 15.800781 78.480469 14.339844 77.890625 C 11.730469 76.835938 10.496094 74.464844 9.332031 72.226562 C 8.503906 70.640625 7.367188 67.980469 6.9375 64.351562 C 6.273438 63.308594 5.75 62.199219 5.359375 61.027344 C 4.644531 58.875 4.605469 57.121094 4.582031 55.34375 C 4.554688 53.316406 4.746094 51.304688 5.15625 49.320312 C 4.261719 46.976562 3.207031 43.21875 3.464844 38.589844 C 3.730469 33.890625 5.230469 30.4375 5.902344 28.9375 C 6.261719 28.128906 7.269531 26.429688 9.285156 23.027344 C 11.453125 19.367188 12.78125 17.289062 13.664062 14.050781 C 14.363281 11.476562 14.195312 10.324219 13.664062 9.445312 C 13.003906 8.363281 11.71875 7.59375 10.367188 7.597656 C 8.359375 7.601562 6.984375 9.308594 6.488281 10.667969 C 6.136719 11.625 6.195312 12.488281 6.261719 12.96875 C 6.316406 13.015625 7.179688 13.75 7.027344 14.773438 C 6.878906 15.796875 5.90625 16.34375 5.136719 16.398438 C 3.683594 16.492188 2.691406 14.691406 2.5625 14.457031 C 1.113281 11.746094 3.101562 8.296875 3.554688 7.507812 C 4.234375 6.324219 5.253906 4.558594 7.390625 3.71875 C 10.75 2.398438 13.964844 4.523438 14.519531 4.890625 C 15.078125 5.257812 17.464844 6.921875 18.21875 10.035156 C 18.917969 12.914062 17.808594 15.460938 17.359375 16.488281 C 16.304688 18.902344 14.984375 19.710938 14.699219 22.125 C 14.589844 23.054688 14.652344 23.96875 14.878906 24.875 C 16.75 25.941406 18.542969 27.128906 20.25 28.441406 C 21.738281 29.585938 24.691406 31.859375 27.015625 34.847656 C 28.511719 36.769531 31.367188 41.074219 32.207031 48.113281 C 33.09375 51.222656 34.496094 53.316406 35.453125 54.519531 C 36.117188 55.351562 37.820312 56.714844 41.226562 59.4375 C 41.226562 59.4375 43.550781 61.289062 46.6875 62.59375 C 47.039062 62.742188 47.679688 62.988281 48.503906 62.953125 C 49.484375 62.914062 50.214844 62.507812 50.6875 62.234375 C 51.730469 61.632812 51.941406 61.152344 52.695312 60.550781 C 53.335938 60.050781 54.347656 59.464844 55.964844 59.222656 C 56.773438 57.855469 57.394531 56.808594 58.078125 55.648438 C 58.761719 54.488281 59.367188 53.453125 60.507812 52.445312 C 60.746094 52.234375 60.953125 52.074219 61.097656 51.964844 C 61.335938 52.117188 61.445312 52.335938 61.421875 52.617188 C 61.414062 53.246094 61.457031 55.46875 61.648438 56.503906 C 61.730469 56.9375 61.914062 57.574219 62.386719 58.308594 C 63.554688 58.324219 64.679688 58.558594 65.753906 59.015625 C 66.382812 59.285156 68.21875 60.09375 69.5 62.070312 C 69.875 62.640625 70.164062 63.253906 70.371094 63.902344 C 70.632812 64.234375 70.945312 64.515625 71.304688 64.742188 C 71.640625 64.953125 71.820312 64.992188 72.132812 65.195312 C 72.5 65.441406 72.804688 65.746094 73.050781 66.113281 C 73.070312 66.203125 73.074219 66.292969 73.0625 66.382812 C 73.046875 66.515625 73 66.636719 72.925781 66.742188 C 72.941406 66.949219 72.945312 67.152344 72.929688 67.359375 C 72.90625 67.769531 72.84375 68.8125 72.199219 69.539062 C 71.847656 69.941406 71.582031 70.234375 71.394531 70.355469 C 71.3125 70.40625 71.246094 70.472656 71.195312 70.554688 C 71.152344 70.628906 71.128906 70.707031 71.128906 70.789062 C 71.128906 70.898438 71.164062 70.992188 71.230469 71.078125 C 72.773438 71.839844 74.746094 72.75 77.09375 73.644531 C 78.9375 74.351562 81.242188 75.234375 84.335938 75.949219 C 88.539062 76.921875 90.640625 77.40625 91.847656 77.300781 C 91.847656 77.300781 93.765625 77.140625 95.90625 78.148438 C 96.039062 78.210938 96.308594 78.347656 96.417969 78.621094 C 96.660156 79.261719 95.828125 80.113281 95.601562 80.347656 C 94.203125 81.789062 91.820312 81.855469 91 81.867188 C 87.0625 81.9375 84.316406 81.511719 81.324219 81.191406 C 77.667969 80.804688 77.816406 81.011719 73.269531 80.550781 C 70.25 80.246094 67.785156 79.910156 66.167969 79.671875 C 60.410156 79.796875 55.242188 79.855469 50.769531 79.875 C 44.664062 79.902344 42.328125 79.84375 39.128906 79.128906 C 36.671875 78.578125 33.113281 77.78125 29.316406 75.339844 C 25.957031 73.179688 25.238281 71.554688 18.757812 66.136719 C 17.351562 64.957031 16.179688 64.023438 15.433594 63.441406 C 15.082031 63.535156 14.765625 63.703125 14.484375 63.9375 C 13.449219 64.816406 13.492188 66.339844 13.515625 67.199219 C 13.550781 68.585938 14.011719 69.660156 14.269531 70.253906 C 14.640625 71.105469 14.863281 71.257812 15.25 72.148438 C 15.605469 72.953125 15.847656 73.792969 15.984375 74.660156 Z M 15.984375 74.660156 " fill-opacity="1" fill-rule="nonzero"/></g><g fill="#ffffff" fill-opacity="1"><g transform="translate(33.478092, 42.249756)"><g><path d="M 15.6875 -16.820312 L 27.875 -0.21875 L 27.875 0 L 22.414062 0 L 12.671875 -13.589844 L 7.339844 -7.953125 L 7.339844 0 L 2.839844 0 L 2.839844 -29.054688 L 7.339844 -29.054688 L 7.339844 -13.675781 L 21.324219 -29.054688 L 27.222656 -29.054688 Z M 15.6875 -16.820312 "/></g></g></g><g fill="#ffffff" fill-opacity="1"><g transform="translate(61.132712, 42.249756)"><g><path d="M 2.492188 -25.125 L 2.492188 -29.054688 L 7.996094 -29.054688 L 7.996094 -25.125 Z M 3.058594 0 L 3.058594 -21.847656 L 7.429688 -21.847656 L 7.429688 0 Z M 3.058594 0 "/></g></g></g><g fill="#ffffff" fill-opacity="1"><g transform="translate(69.433272, 42.249756)"><g><path d="M 11.492188 0 C 9.742188 0 8.390625 -0.234375 7.429688 -0.699219 C 6.464844 -1.164062 5.804688 -1.871094 5.441406 -2.816406 C 5.074219 -3.765625 4.894531 -4.964844 4.894531 -6.421875 L 4.894531 -18.484375 L 0.742188 -18.484375 L 0.742188 -20.753906 L 5.285156 -22.328125 L 7.078125 -26.785156 L 9.261719 -26.785156 L 9.261719 -21.847656 L 16.253906 -21.847656 L 16.253906 -18.484375 L 9.261719 -18.484375 L 9.261719 -3.496094 L 15.816406 -3.496094 L 15.816406 0 Z M 11.492188 0 "/></g></g></g><g fill="#ffffff" fill-opacity="1"><g transform="translate(84.724014, 42.249756)"><g><path d="M 11.492188 0 C 9.742188 0 8.390625 -0.234375 7.429688 -0.699219 C 6.464844 -1.164062 5.804688 -1.871094 5.441406 -2.816406 C 5.074219 -3.765625 4.894531 -4.964844 4.894531 -6.421875 L 4.894531 -18.484375 L 0.742188 -18.484375 L 0.742188 -20.753906 L 5.285156 -22.328125 L 7.078125 -26.785156 L 9.261719 -26.785156 L 9.261719 -21.847656 L 16.253906 -21.847656 L 16.253906 -18.484375 L 9.261719 -18.484375 L 9.261719 -3.496094 L 15.816406 -3.496094 L 15.816406 0 Z M 11.492188 0 "/></g></g></g><g fill="#ffffff" fill-opacity="1"><g transform="translate(100.014755, 42.249756)"><g><path d="M 19.269531 -21.847656 L 23.507812 -21.847656 L 14.375 1.921875 C 13.792969 3.464844 13.210938 4.742188 12.628906 5.746094 C 12.046875 6.75 11.273438 7.5 10.3125 7.996094 C 9.351562 8.492188 7.980469 8.738281 6.203125 8.738281 L 2.445312 8.738281 L 2.445312 5.242188 L 8.914062 5.242188 L 10.96875 0 L 9.394531 0 L 1.136719 -21.847656 L 5.636719 -21.847656 L 11.535156 -6.25 L 12.453125 -3.625 L 13.28125 -6.25 Z M 19.269531 -21.847656 "/></g></g></g><g fill="#ffffff" fill-opacity="1"><g transform="translate(122.339361, 42.249756)"><g><path d="M 2.097656 -9.742188 L 6.464844 -9.742188 C 6.523438 -7.53125 7.222656 -5.820312 8.5625 -4.609375 C 9.902344 -3.402344 12 -2.796875 14.855469 -2.796875 C 16.808594 -2.796875 18.308594 -3.007812 19.355469 -3.429688 C 20.40625 -3.851562 21.125 -4.433594 21.519531 -5.175781 C 21.914062 -5.921875 22.109375 -6.789062 22.109375 -7.777344 C 22.109375 -10.429688 20.476562 -11.988281 17.214844 -12.453125 L 10.488281 -13.414062 C 5.476562 -14.113281 2.972656 -16.71875 2.972656 -21.234375 C 2.972656 -22.867188 3.378906 -24.332031 4.195312 -25.625 C 5.011719 -26.921875 6.253906 -27.949219 7.929688 -28.707031 C 9.605469 -29.464844 11.738281 -29.84375 14.332031 -29.84375 C 17.070312 -29.84375 19.296875 -29.429688 21.015625 -28.597656 C 22.734375 -27.765625 24.023438 -26.652344 24.882812 -25.253906 C 25.742188 -23.855469 26.230469 -22.285156 26.347656 -20.535156 L 21.976562 -20.535156 C 21.773438 -22.285156 21.058594 -23.6875 19.835938 -24.753906 C 18.613281 -25.816406 16.765625 -26.347656 14.289062 -26.347656 C 11.929688 -26.347656 10.210938 -25.882812 9.132812 -24.949219 C 8.054688 -24.015625 7.515625 -22.824219 7.515625 -21.367188 C 7.515625 -20.289062 7.828125 -19.386719 8.453125 -18.65625 C 9.082031 -17.929688 10.0625 -17.464844 11.402344 -17.257812 L 18.527344 -16.210938 C 21.058594 -15.832031 23.046875 -15.03125 24.492188 -13.808594 C 25.933594 -12.582031 26.652344 -10.761719 26.652344 -8.34375 C 26.652344 -5.492188 25.726562 -3.269531 23.878906 -1.683594 C 22.027344 -0.09375 19.019531 0.699219 14.855469 0.699219 C 11.679688 0.699219 9.160156 0.210938 7.296875 -0.765625 C 5.433594 -1.742188 4.101562 -3.03125 3.300781 -4.632812 C 2.496094 -6.234375 2.097656 -7.9375 2.097656 -9.742188 Z M 2.097656 -9.742188 "/></g></g></g><g fill="#ffffff" fill-opacity="1"><g transform="translate(148.989141, 42.249756)"><g><path d="M 13.195312 -2.535156 C 15.175781 -2.535156 16.65625 -2.925781 17.628906 -3.714844 C 18.605469 -4.5 19.238281 -5.460938 19.53125 -6.597656 L 23.550781 -6.597656 C 23.464844 -5.839844 23.222656 -5.039062 22.828125 -4.195312 C 22.4375 -3.351562 21.839844 -2.554688 21.039062 -1.8125 C 20.238281 -1.070312 19.1875 -0.464844 17.894531 0 C 16.597656 0.464844 14.988281 0.699219 13.066406 0.699219 C 10.472656 0.699219 8.359375 0.175781 6.730469 -0.875 C 5.097656 -1.921875 3.902344 -3.328125 3.144531 -5.089844 C 2.386719 -6.851562 2.011719 -8.8125 2.011719 -10.96875 C 2.011719 -13.09375 2.410156 -15.03125 3.210938 -16.777344 C 4.011719 -18.527344 5.234375 -19.925781 6.882812 -20.972656 C 8.527344 -22.023438 10.589844 -22.546875 13.066406 -22.546875 C 15.394531 -22.546875 17.339844 -22.050781 18.898438 -21.058594 C 20.457031 -20.070312 21.628906 -18.730469 22.414062 -17.039062 C 23.203125 -15.351562 23.59375 -13.457031 23.59375 -11.359375 C 23.59375 -11.070312 23.59375 -10.792969 23.59375 -10.53125 C 23.59375 -10.269531 23.566406 -9.992188 23.507812 -9.699219 L 6.292969 -9.699219 C 6.410156 -7.863281 6.78125 -6.429688 7.40625 -5.394531 C 8.03125 -4.363281 8.839844 -3.625 9.832031 -3.191406 C 10.820312 -2.753906 11.941406 -2.535156 13.195312 -2.535156 Z M 13.109375 -19.3125 C 11.242188 -19.3125 9.714844 -18.847656 8.519531 -17.914062 C 7.324219 -16.980469 6.597656 -15.308594 6.335938 -12.890625 L 19.398438 -12.890625 C 19.285156 -15.105469 18.695312 -16.726562 17.628906 -17.761719 C 16.566406 -18.796875 15.058594 -19.3125 13.109375 -19.3125 Z M 13.109375 -19.3125 "/></g></g></g><g fill="#ffffff" fill-opacity="1"><g transform="translate(172.231218, 42.249756)"><g><path d="M 2.011719 -10.921875 C 2.011719 -13.109375 2.433594 -15.074219 3.277344 -16.820312 C 4.121094 -18.570312 5.375 -19.960938 7.035156 -20.996094 C 8.695312 -22.027344 10.75 -22.546875 13.195312 -22.546875 C 15.46875 -22.546875 17.367188 -22.160156 18.898438 -21.386719 C 20.425781 -20.617188 21.59375 -19.566406 22.394531 -18.242188 C 23.195312 -16.917969 23.625 -15.394531 23.683594 -13.675781 L 19.574219 -13.675781 C 19.398438 -15.132812 18.839844 -16.390625 17.894531 -17.457031 C 16.945312 -18.519531 15.4375 -19.050781 13.371094 -19.050781 C 11.242188 -19.050781 9.554688 -18.445312 8.300781 -17.238281 C 7.050781 -16.027344 6.421875 -13.921875 6.421875 -10.921875 C 6.421875 -7.863281 7.035156 -5.746094 8.257812 -4.566406 C 9.480469 -3.386719 11.15625 -2.796875 13.28125 -2.796875 C 15.410156 -2.796875 16.976562 -3.351562 17.980469 -4.457031 C 18.984375 -5.5625 19.589844 -6.890625 19.792969 -8.433594 L 23.902344 -8.433594 C 23.84375 -6.832031 23.414062 -5.332031 22.613281 -3.933594 C 21.808594 -2.535156 20.628906 -1.414062 19.074219 -0.566406 C 17.515625 0.277344 15.585938 0.699219 13.28125 0.699219 C 10.835938 0.699219 8.773438 0.183594 7.101562 -0.851562 C 5.425781 -1.886719 4.15625 -3.285156 3.300781 -5.046875 C 2.441406 -6.808594 2.011719 -8.769531 2.011719 -10.921875 Z M 2.011719 -10.921875 "/></g></g></g><g fill="#ffffff" fill-opacity="1"><g transform="translate(195.691722, 42.249756)"><g><path d="M 18.484375 -21.847656 L 22.851562 -21.847656 L 22.851562 0 L 18.484375 0 L 18.484375 -4.761719 C 17.839844 -3.160156 16.910156 -1.851562 15.6875 -0.832031 C 14.460938 0.1875 12.816406 0.699219 10.75 0.699219 C 7.835938 0.699219 5.753906 -0.0742188 4.5 -1.617188 C 3.246094 -3.160156 2.621094 -5.359375 2.621094 -8.214844 L 2.621094 -21.847656 L 6.992188 -21.847656 L 6.992188 -8.609375 C 6.992188 -7.09375 7.214844 -5.921875 7.667969 -5.089844 C 8.121094 -4.261719 8.730469 -3.691406 9.503906 -3.386719 C 10.273438 -3.082031 11.140625 -2.925781 12.101562 -2.925781 C 14.054688 -2.925781 15.605469 -3.730469 16.757812 -5.332031 C 17.90625 -6.933594 18.484375 -9.363281 18.484375 -12.628906 Z M 18.484375 -21.847656 "/></g></g></g><g fill="#ffffff" fill-opacity="1"><g transform="translate(219.414367, 42.249756)"><g><path d="M 15.117188 -22.195312 L 15.773438 -22.195312 L 15.773438 -17.957031 L 14.679688 -17.957031 C 12.730469 -17.957031 11.230469 -17.570312 10.179688 -16.800781 C 9.132812 -16.027344 8.410156 -14.921875 8.019531 -13.480469 C 7.625 -12.039062 7.429688 -10.328125 7.429688 -8.34375 L 7.429688 0 L 3.058594 0 L 3.058594 -21.847656 L 7.382812 -21.847656 L 7.382812 -16.558594 C 8.054688 -18.191406 9 -19.539062 10.222656 -20.601562 C 11.449219 -21.664062 13.078125 -22.195312 15.117188 -22.195312 Z M 15.117188 -22.195312 "/></g></g></g><g fill="#ffffff" fill-opacity="1"><g transform="translate(234.355598, 42.249756)"><g><path d="M 2.492188 -25.125 L 2.492188 -29.054688 L 7.996094 -29.054688 L 7.996094 -25.125 Z M 3.058594 0 L 3.058594 -21.847656 L 7.429688 -21.847656 L 7.429688 0 Z M 3.058594 0 "/></g></g></g><g fill="#ffffff" fill-opacity="1"><g transform="translate(242.656152, 42.249756)"><g><path d="M 11.492188 0 C 9.742188 0 8.390625 -0.234375 7.429688 -0.699219 C 6.464844 -1.164062 5.804688 -1.871094 5.441406 -2.816406 C 5.074219 -3.765625 4.894531 -4.964844 4.894531 -6.421875 L 4.894531 -18.484375 L 0.742188 -18.484375 L 0.742188 -20.753906 L 5.285156 -22.328125 L 7.078125 -26.785156 L 9.261719 -26.785156 L 9.261719 -21.847656 L 16.253906 -21.847656 L 16.253906 -18.484375 L 9.261719 -18.484375 L 9.261719 -3.496094 L 15.816406 -3.496094 L 15.816406 0 Z M 11.492188 0 "/></g></g></g><g fill="#ffffff" fill-opacity="1"><g transform="translate(257.9469, 42.249756)"><g><path d="M 19.269531 -21.847656 L 23.507812 -21.847656 L 14.375 1.921875 C 13.792969 3.464844 13.210938 4.742188 12.628906 5.746094 C 12.046875 6.75 11.273438 7.5 10.3125 7.996094 C 9.351562 8.492188 7.980469 8.738281 6.203125 8.738281 L 2.445312 8.738281 L 2.445312 5.242188 L 8.914062 5.242188 L 10.96875 0 L 9.394531 0 L 1.136719 -21.847656 L 5.636719 -21.847656 L 11.535156 -6.25 L 12.453125 -3.625 L 13.28125 -6.25 Z M 19.269531 -21.847656 "/></g></g></g><g fill="#ffffff" fill-opacity="1"><g transform="translate(101.948426, 74.86527)"><g><path d="M 8.128906 -14.265625 C 9.1875 -14.265625 10.042969 -14.066406 10.695312 -13.664062 C 11.34375 -13.265625 11.820312 -12.734375 12.121094 -12.078125 C 12.421875 -11.417969 12.570312 -10.710938 12.570312 -9.953125 C 12.570312 -9.179688 12.421875 -8.464844 12.121094 -7.808594 C 11.820312 -7.152344 11.34375 -6.621094 10.695312 -6.222656 C 10.042969 -5.820312 9.1875 -5.621094 8.128906 -5.621094 L 3.625 -5.621094 L 3.625 0 L 1.394531 0 L 1.394531 -14.265625 Z M 7.59375 -7.402344 C 8.609375 -7.402344 9.304688 -7.644531 9.683594 -8.128906 C 10.0625 -8.617188 10.253906 -9.222656 10.253906 -9.953125 C 10.253906 -10.683594 10.0625 -11.285156 9.683594 -11.765625 C 9.304688 -12.246094 8.609375 -12.484375 7.59375 -12.484375 L 3.625 -12.484375 L 3.625 -7.402344 Z M 7.59375 -7.402344 "/></g></g></g><g fill="#ffffff" fill-opacity="1"><g transform="translate(113.768095, 74.86527)"><g><path d="M 4.742188 0.277344 C 3.652344 0.277344 2.789062 0 2.144531 -0.558594 C 1.5 -1.117188 1.179688 -1.886719 1.179688 -2.875 C 1.179688 -3.734375 1.421875 -4.4375 1.910156 -4.988281 C 2.394531 -5.539062 3.238281 -5.914062 4.441406 -6.113281 L 7.121094 -6.5625 C 7.636719 -6.648438 8.015625 -6.785156 8.257812 -6.972656 C 8.5 -7.15625 8.625 -7.4375 8.625 -7.808594 C 8.625 -8.292969 8.460938 -8.6875 8.140625 -8.988281 C 7.820312 -9.289062 7.191406 -9.4375 6.265625 -9.4375 C 5.390625 -9.4375 4.738281 -9.261719 4.300781 -8.914062 C 3.863281 -8.5625 3.617188 -8.050781 3.5625 -7.378906 L 1.414062 -7.378906 C 1.429688 -8.523438 1.847656 -9.429688 2.671875 -10.09375 C 3.492188 -10.757812 4.660156 -11.089844 6.179688 -11.089844 C 7.664062 -11.089844 8.773438 -10.78125 9.503906 -10.167969 C 10.230469 -9.554688 10.597656 -8.753906 10.597656 -7.765625 L 10.597656 -2.445312 C 10.597656 -2.046875 10.605469 -1.664062 10.617188 -1.296875 C 10.632812 -0.933594 10.660156 -0.5 10.703125 0 L 8.753906 0 C 8.710938 -0.414062 8.675781 -0.816406 8.65625 -1.203125 C 8.632812 -1.585938 8.625 -1.996094 8.625 -2.425781 C 8.480469 -1.980469 8.246094 -1.550781 7.925781 -1.136719 C 7.605469 -0.722656 7.183594 -0.382812 6.660156 -0.117188 C 6.136719 0.148438 5.5 0.277344 4.742188 0.277344 Z M 5.191406 -1.371094 C 5.949219 -1.371094 6.582031 -1.542969 7.089844 -1.886719 C 7.597656 -2.230469 7.980469 -2.691406 8.238281 -3.269531 C 8.496094 -3.851562 8.625 -4.496094 8.625 -5.210938 L 8.625 -5.855469 C 8.335938 -5.640625 8.03125 -5.480469 7.699219 -5.375 C 7.371094 -5.265625 7.042969 -5.175781 6.714844 -5.105469 L 5.234375 -4.761719 C 4.578125 -4.621094 4.09375 -4.410156 3.785156 -4.128906 C 3.480469 -3.851562 3.324219 -3.460938 3.324219 -2.960938 C 3.324219 -2.445312 3.496094 -2.050781 3.839844 -1.78125 C 4.183594 -1.507812 4.632812 -1.371094 5.191406 -1.371094 Z M 5.191406 -1.371094 "/></g></g></g><g fill="#ffffff" fill-opacity="1"><g transform="translate(124.064723, 74.86527)"><g><path d="M 0.730469 -3.582031 L 2.722656 -3.582031 C 2.765625 -2.925781 3.023438 -2.371094 3.496094 -1.917969 C 3.96875 -1.46875 4.726562 -1.246094 5.769531 -1.246094 C 6.730469 -1.246094 7.363281 -1.398438 7.679688 -1.707031 C 7.996094 -2.011719 8.152344 -2.410156 8.152344 -2.894531 C 8.152344 -3.339844 8.023438 -3.6875 7.765625 -3.9375 C 7.507812 -4.1875 7.09375 -4.355469 6.519531 -4.441406 L 3.859375 -4.847656 C 2.933594 -4.992188 2.21875 -5.3125 1.726562 -5.8125 C 1.234375 -6.3125 0.988281 -6.972656 0.988281 -7.785156 C 0.988281 -8.816406 1.378906 -9.625 2.167969 -10.210938 C 2.953125 -10.796875 4.046875 -11.089844 5.449219 -11.089844 C 6.835938 -11.089844 7.9375 -10.777344 8.753906 -10.144531 C 9.566406 -9.515625 10.011719 -8.695312 10.082031 -7.679688 L 7.9375 -7.679688 C 7.878906 -8.179688 7.648438 -8.609375 7.238281 -8.964844 C 6.832031 -9.324219 6.214844 -9.503906 5.382812 -9.503906 C 4.554688 -9.503906 3.960938 -9.355469 3.605469 -9.0625 C 3.246094 -8.769531 3.066406 -8.410156 3.066406 -7.980469 C 3.066406 -7.664062 3.171875 -7.382812 3.378906 -7.132812 C 3.585938 -6.882812 3.976562 -6.714844 4.546875 -6.628906 L 6.863281 -6.285156 C 7.75 -6.15625 8.441406 -5.9375 8.933594 -5.632812 C 9.429688 -5.324219 9.769531 -4.949219 9.964844 -4.503906 C 10.15625 -4.0625 10.253906 -3.5625 10.253906 -3.003906 C 10.253906 -1.902344 9.886719 -1.070312 9.148438 -0.503906 C 8.414062 0.0625 7.265625 0.34375 5.707031 0.34375 C 4.535156 0.34375 3.578125 0.167969 2.84375 -0.183594 C 2.105469 -0.53125 1.570312 -1.003906 1.234375 -1.597656 C 0.898438 -2.191406 0.730469 -2.851562 0.730469 -3.582031 Z M 0.730469 -3.582031 "/></g></g></g><g fill="#ffffff" fill-opacity="1"><g transform="translate(133.524748, 74.86527)"><g><path d="M 0.730469 -3.582031 L 2.722656 -3.582031 C 2.765625 -2.925781 3.023438 -2.371094 3.496094 -1.917969 C 3.96875 -1.46875 4.726562 -1.246094 5.769531 -1.246094 C 6.730469 -1.246094 7.363281 -1.398438 7.679688 -1.707031 C 7.996094 -2.011719 8.152344 -2.410156 8.152344 -2.894531 C 8.152344 -3.339844 8.023438 -3.6875 7.765625 -3.9375 C 7.507812 -4.1875 7.09375 -4.355469 6.519531 -4.441406 L 3.859375 -4.847656 C 2.933594 -4.992188 2.21875 -5.3125 1.726562 -5.8125 C 1.234375 -6.3125 0.988281 -6.972656 0.988281 -7.785156 C 0.988281 -8.816406 1.378906 -9.625 2.167969 -10.210938 C 2.953125 -10.796875 4.046875 -11.089844 5.449219 -11.089844 C 6.835938 -11.089844 7.9375 -10.777344 8.753906 -10.144531 C 9.566406 -9.515625 10.011719 -8.695312 10.082031 -7.679688 L 7.9375 -7.679688 C 7.878906 -8.179688 7.648438 -8.609375 7.238281 -8.964844 C 6.832031 -9.324219 6.214844 -9.503906 5.382812 -9.503906 C 4.554688 -9.503906 3.960938 -9.355469 3.605469 -9.0625 C 3.246094 -8.769531 3.066406 -8.410156 3.066406 -7.980469 C 3.066406 -7.664062 3.171875 -7.382812 3.378906 -7.132812 C 3.585938 -6.882812 3.976562 -6.714844 4.546875 -6.628906 L 6.863281 -6.285156 C 7.75 -6.15625 8.441406 -5.9375 8.933594 -5.632812 C 9.429688 -5.324219 9.769531 -4.949219 9.964844 -4.503906 C 10.15625 -4.0625 10.253906 -3.5625 10.253906 -3.003906 C 10.253906 -1.902344 9.886719 -1.070312 9.148438 -0.503906 C 8.414062 0.0625 7.265625 0.34375 5.707031 0.34375 C 4.535156 0.34375 3.578125 0.167969 2.84375 -0.183594 C 2.105469 -0.53125 1.570312 -1.003906 1.234375 -1.597656 C 0.898438 -2.191406 0.730469 -2.851562 0.730469 -3.582031 Z M 0.730469 -3.582031 "/></g></g></g><g fill="#ffffff" fill-opacity="1"><g transform="translate(142.984774, 74.86527)"><g><path d="M 16.347656 -10.726562 L 18.425781 -10.726562 L 15.207031 0 L 12.164062 0 L 9.480469 -8.152344 L 6.800781 0 L 3.753906 0 L 0.535156 -10.726562 L 2.746094 -10.726562 L 5.382812 -1.609375 L 8.472656 -10.726562 L 10.617188 -10.726562 L 13.707031 -1.609375 Z M 16.347656 -10.726562 "/></g></g></g><g fill="#ffffff" fill-opacity="1"><g transform="translate(160.338871, 74.86527)"><g><path d="M 6.519531 0.34375 C 5.277344 0.34375 4.242188 0.0859375 3.421875 -0.429688 C 2.597656 -0.945312 1.988281 -1.632812 1.585938 -2.5 C 1.1875 -3.363281 0.988281 -4.324219 0.988281 -5.382812 C 0.988281 -6.429688 1.1875 -7.378906 1.585938 -8.238281 C 1.988281 -9.09375 2.597656 -9.78125 3.421875 -10.296875 C 4.242188 -10.8125 5.277344 -11.070312 6.519531 -11.070312 C 7.765625 -11.070312 8.796875 -10.8125 9.609375 -10.296875 C 10.425781 -9.78125 11.035156 -9.09375 11.445312 -8.238281 C 11.851562 -7.378906 12.054688 -6.429688 12.054688 -5.382812 C 12.054688 -4.339844 11.851562 -3.382812 11.445312 -2.511719 C 11.035156 -1.636719 10.425781 -0.945312 9.609375 -0.429688 C 8.796875 0.0859375 7.765625 0.34375 6.519531 0.34375 Z M 3.152344 -5.363281 C 3.152344 -3.933594 3.425781 -2.910156 3.96875 -2.296875 C 4.511719 -1.679688 5.363281 -1.371094 6.519531 -1.371094 C 7.679688 -1.371094 8.53125 -1.679688 9.074219 -2.296875 C 9.617188 -2.910156 9.890625 -3.933594 9.890625 -5.363281 C 9.890625 -6.792969 9.617188 -7.816406 9.074219 -8.429688 C 8.53125 -9.046875 7.679688 -9.351562 6.519531 -9.351562 C 5.363281 -9.351562 4.511719 -9.046875 3.96875 -8.429688 C 3.425781 -7.816406 3.152344 -6.792969 3.152344 -5.363281 Z M 3.152344 -5.363281 "/></g></g></g><g fill="#ffffff" fill-opacity="1"><g transform="translate(171.772418, 74.86527)"><g><path d="M 7.421875 -10.898438 L 7.742188 -10.898438 L 7.742188 -8.816406 L 7.207031 -8.816406 C 6.25 -8.816406 5.511719 -8.628906 5 -8.246094 C 4.484375 -7.867188 4.128906 -7.324219 3.9375 -6.617188 C 3.742188 -5.910156 3.648438 -5.070312 3.648438 -4.097656 L 3.648438 0 L 1.5 0 L 1.5 -10.726562 L 3.625 -10.726562 L 3.625 -8.128906 C 3.953125 -8.929688 4.417969 -9.59375 5.019531 -10.113281 C 5.621094 -10.636719 6.421875 -10.898438 7.421875 -10.898438 Z M 7.421875 -10.898438 "/></g></g></g><g fill="#ffffff" fill-opacity="1"><g transform="translate(178.572484, 74.86527)"><g><path d="M 9.953125 -15.015625 L 12.097656 -15.015625 L 12.097656 0 L 9.953125 0 L 9.953125 -1.84375 C 9.597656 -1.144531 9.089844 -0.605469 8.429688 -0.226562 C 7.773438 0.152344 6.957031 0.34375 5.984375 0.34375 C 4.839844 0.34375 3.898438 0.0859375 3.152344 -0.429688 C 2.410156 -0.945312 1.863281 -1.632812 1.511719 -2.5 C 1.160156 -3.363281 0.988281 -4.320312 0.988281 -5.363281 C 0.988281 -6.421875 1.160156 -7.378906 1.511719 -8.238281 C 1.863281 -9.09375 2.410156 -9.78125 3.152344 -10.296875 C 3.898438 -10.8125 4.839844 -11.070312 5.984375 -11.070312 C 6.957031 -11.070312 7.773438 -10.878906 8.429688 -10.5 C 9.089844 -10.121094 9.597656 -9.582031 9.953125 -8.878906 Z M 6.433594 -1.371094 C 7.566406 -1.371094 8.433594 -1.695312 9.042969 -2.339844 C 9.648438 -2.980469 9.953125 -3.988281 9.953125 -5.363281 C 9.953125 -6.734375 9.648438 -7.742188 9.042969 -8.386719 C 8.433594 -9.03125 7.566406 -9.351562 6.433594 -9.351562 C 5.25 -9.351562 4.40625 -9.019531 3.902344 -8.355469 C 3.402344 -7.691406 3.152344 -6.691406 3.152344 -5.363281 C 3.152344 -4.03125 3.402344 -3.035156 3.902344 -2.371094 C 4.40625 -1.707031 5.25 -1.371094 6.433594 -1.371094 Z M 6.433594 -1.371094 "/></g></g></g><g fill="#ffffff" fill-opacity="1"><g transform="translate(190.520858, 74.86527)"><g/></g></g><g fill="#ffffff" fill-opacity="1"><g transform="translate(194.189037, 74.86527)"><g><path d="M 17.484375 -14.265625 L 17.484375 0 L 15.273438 0 L 15.273438 -12.550781 L 10.898438 0 L 7.980469 0 L 3.605469 -12.550781 L 3.605469 0 L 1.394531 0 L 1.394531 -14.265625 L 5.234375 -14.265625 L 9.460938 -2.144531 L 13.6875 -14.265625 Z M 17.484375 -14.265625 "/></g></g></g><g fill="#ffffff" fill-opacity="1"><g transform="translate(211.457329, 74.86527)"><g><path d="M 4.742188 0.277344 C 3.652344 0.277344 2.789062 0 2.144531 -0.558594 C 1.5 -1.117188 1.179688 -1.886719 1.179688 -2.875 C 1.179688 -3.734375 1.421875 -4.4375 1.910156 -4.988281 C 2.394531 -5.539062 3.238281 -5.914062 4.441406 -6.113281 L 7.121094 -6.5625 C 7.636719 -6.648438 8.015625 -6.785156 8.257812 -6.972656 C 8.5 -7.15625 8.625 -7.4375 8.625 -7.808594 C 8.625 -8.292969 8.460938 -8.6875 8.140625 -8.988281 C 7.820312 -9.289062 7.191406 -9.4375 6.265625 -9.4375 C 5.390625 -9.4375 4.738281 -9.261719 4.300781 -8.914062 C 3.863281 -8.5625 3.617188 -8.050781 3.5625 -7.378906 L 1.414062 -7.378906 C 1.429688 -8.523438 1.847656 -9.429688 2.671875 -10.09375 C 3.492188 -10.757812 4.660156 -11.089844 6.179688 -11.089844 C 7.664062 -11.089844 8.773438 -10.78125 9.503906 -10.167969 C 10.230469 -9.554688 10.597656 -8.753906 10.597656 -7.765625 L 10.597656 -2.445312 C 10.597656 -2.046875 10.605469 -1.664062 10.617188 -1.296875 C 10.632812 -0.933594 10.660156 -0.5 10.703125 0 L 8.753906 0 C 8.710938 -0.414062 8.675781 -0.816406 8.65625 -1.203125 C 8.632812 -1.585938 8.625 -1.996094 8.625 -2.425781 C 8.480469 -1.980469 8.246094 -1.550781 7.925781 -1.136719 C 7.605469 -0.722656 7.183594 -0.382812 6.660156 -0.117188 C 6.136719 0.148438 5.5 0.277344 4.742188 0.277344 Z M 5.191406 -1.371094 C 5.949219 -1.371094 6.582031 -1.542969 7.089844 -1.886719 C 7.597656 -2.230469 7.980469 -2.691406 8.238281 -3.269531 C 8.496094 -3.851562 8.625 -4.496094 8.625 -5.210938 L 8.625 -5.855469 C 8.335938 -5.640625 8.03125 -5.480469 7.699219 -5.375 C 7.371094 -5.265625 7.042969 -5.175781 6.714844 -5.105469 L 5.234375 -4.761719 C 4.578125 -4.621094 4.09375 -4.410156 3.785156 -4.128906 C 3.480469 -3.851562 3.324219 -3.460938 3.324219 -2.960938 C 3.324219 -2.445312 3.496094 -2.050781 3.839844 -1.78125 C 4.183594 -1.507812 4.632812 -1.371094 5.191406 -1.371094 Z M 5.191406 -1.371094 "/></g></g></g><g fill="#ffffff" fill-opacity="1"><g transform="translate(221.753957, 74.86527)"><g><path d="M 7.53125 -11.070312 C 8.960938 -11.070312 9.96875 -10.691406 10.554688 -9.933594 C 11.140625 -9.175781 11.433594 -8.09375 11.433594 -6.691406 L 11.433594 0 L 9.289062 0 L 9.289062 -6.5 C 9.289062 -7.257812 9.183594 -7.835938 8.976562 -8.238281 C 8.769531 -8.636719 8.488281 -8.914062 8.128906 -9.0625 C 7.773438 -9.214844 7.363281 -9.289062 6.90625 -9.289062 C 5.863281 -9.289062 5.058594 -8.921875 4.492188 -8.183594 C 3.929688 -7.445312 3.648438 -6.226562 3.648438 -4.527344 L 3.648438 0 L 1.5 0 L 1.5 -10.726562 L 3.648438 -10.726562 L 3.648438 -8.324219 C 3.976562 -9.125 4.449219 -9.78125 5.0625 -10.296875 C 5.675781 -10.8125 6.5 -11.070312 7.53125 -11.070312 Z M 7.53125 -11.070312 "/></g></g></g><g fill="#ffffff" fill-opacity="1"><g transform="translate(232.865735, 74.86527)"><g><path d="M 4.742188 0.277344 C 3.652344 0.277344 2.789062 0 2.144531 -0.558594 C 1.5 -1.117188 1.179688 -1.886719 1.179688 -2.875 C 1.179688 -3.734375 1.421875 -4.4375 1.910156 -4.988281 C 2.394531 -5.539062 3.238281 -5.914062 4.441406 -6.113281 L 7.121094 -6.5625 C 7.636719 -6.648438 8.015625 -6.785156 8.257812 -6.972656 C 8.5 -7.15625 8.625 -7.4375 8.625 -7.808594 C 8.625 -8.292969 8.460938 -8.6875 8.140625 -8.988281 C 7.820312 -9.289062 7.191406 -9.4375 6.265625 -9.4375 C 5.390625 -9.4375 4.738281 -9.261719 4.300781 -8.914062 C 3.863281 -8.5625 3.617188 -8.050781 3.5625 -7.378906 L 1.414062 -7.378906 C 1.429688 -8.523438 1.847656 -9.429688 2.671875 -10.09375 C 3.492188 -10.757812 4.660156 -11.089844 6.179688 -11.089844 C 7.664062 -11.089844 8.773438 -10.78125 9.503906 -10.167969 C 10.230469 -9.554688 10.597656 -8.753906 10.597656 -7.765625 L 10.597656 -2.445312 C 10.597656 -2.046875 10.605469 -1.664062 10.617188 -1.296875 C 10.632812 -0.933594 10.660156 -0.5 10.703125 0 L 8.753906 0 C 8.710938 -0.414062 8.675781 -0.816406 8.65625 -1.203125 C 8.632812 -1.585938 8.625 -1.996094 8.625 -2.425781 C 8.480469 -1.980469 8.246094 -1.550781 7.925781 -1.136719 C 7.605469 -0.722656 7.183594 -0.382812 6.660156 -0.117188 C 6.136719 0.148438 5.5 0.277344 4.742188 0.277344 Z M 5.191406 -1.371094 C 5.949219 -1.371094 6.582031 -1.542969 7.089844 -1.886719 C 7.597656 -2.230469 7.980469 -2.691406 8.238281 -3.269531 C 8.496094 -3.851562 8.625 -4.496094 8.625 -5.210938 L 8.625 -5.855469 C 8.335938 -5.640625 8.03125 -5.480469 7.699219 -5.375 C 7.371094 -5.265625 7.042969 -5.175781 6.714844 -5.105469 L 5.234375 -4.761719 C 4.578125 -4.621094 4.09375 -4.410156 3.785156 -4.128906 C 3.480469 -3.851562 3.324219 -3.460938 3.324219 -2.960938 C 3.324219 -2.445312 3.496094 -2.050781 3.839844 -1.78125 C 4.183594 -1.507812 4.632812 -1.371094 5.191406 -1.371094 Z M 5.191406 -1.371094 "/></g></g></g><g fill="#ffffff" fill-opacity="1"><g transform="translate(243.16235, 74.86527)"><g><path d="M 9.890625 -10.726562 L 12.035156 -10.726562 L 12.035156 -0.0429688 C 12.035156 1.414062 11.617188 2.542969 10.777344 3.335938 C 9.941406 4.128906 8.523438 4.527344 6.519531 4.527344 C 4.890625 4.527344 3.617188 4.191406 2.703125 3.519531 C 1.789062 2.847656 1.28125 1.867188 1.179688 0.578125 L 3.324219 0.578125 C 3.394531 1.292969 3.683594 1.855469 4.183594 2.261719 C 4.683594 2.671875 5.46875 2.875 6.542969 2.875 C 7.714844 2.875 8.566406 2.652344 9.09375 2.210938 C 9.625 1.765625 9.890625 0.992188 9.890625 -0.105469 L 9.890625 -2.167969 C 9.1875 -0.90625 7.902344 -0.277344 6.027344 -0.277344 C 4.882812 -0.277344 3.9375 -0.507812 3.183594 -0.964844 C 2.433594 -1.421875 1.878906 -2.054688 1.511719 -2.863281 C 1.148438 -3.671875 0.964844 -4.597656 0.964844 -5.640625 C 0.964844 -6.699219 1.148438 -7.628906 1.511719 -8.429688 C 1.878906 -9.230469 2.433594 -9.859375 3.183594 -10.316406 C 3.9375 -10.777344 4.882812 -11.003906 6.027344 -11.003906 C 6.972656 -11.003906 7.761719 -10.828125 8.398438 -10.480469 C 9.035156 -10.128906 9.53125 -9.640625 9.890625 -9.007812 Z M 6.542969 -1.929688 C 7.671875 -1.929688 8.511719 -2.21875 9.0625 -2.800781 C 9.613281 -3.378906 9.890625 -4.324219 9.890625 -5.640625 C 9.890625 -6.957031 9.613281 -7.90625 9.0625 -8.484375 C 8.511719 -9.0625 7.671875 -9.351562 6.542969 -9.351562 C 5.355469 -9.351562 4.492188 -9.074219 3.945312 -8.515625 C 3.402344 -7.957031 3.132812 -7 3.132812 -5.640625 C 3.132812 -4.28125 3.402344 -3.324219 3.945312 -2.765625 C 4.492188 -2.210938 5.355469 -1.929688 6.542969 -1.929688 Z M 6.542969 -1.929688 "/></g></g></g><g fill="#ffffff" fill-opacity="1"><g transform="translate(255.046384, 74.86527)"><g><path d="M 6.476562 -1.246094 C 7.449219 -1.246094 8.175781 -1.4375 8.65625 -1.824219 C 9.132812 -2.210938 9.445312 -2.679688 9.589844 -3.238281 L 11.5625 -3.238281 C 11.519531 -2.867188 11.402344 -2.472656 11.207031 -2.058594 C 11.015625 -1.644531 10.722656 -1.253906 10.328125 -0.890625 C 9.933594 -0.527344 9.421875 -0.230469 8.785156 0 C 8.148438 0.230469 7.359375 0.34375 6.414062 0.34375 C 5.140625 0.34375 4.105469 0.0859375 3.304688 -0.429688 C 2.503906 -0.945312 1.917969 -1.632812 1.542969 -2.5 C 1.171875 -3.363281 0.988281 -4.324219 0.988281 -5.382812 C 0.988281 -6.429688 1.183594 -7.378906 1.578125 -8.238281 C 1.96875 -9.09375 2.570312 -9.78125 3.378906 -10.296875 C 4.1875 -10.8125 5.199219 -11.070312 6.414062 -11.070312 C 7.558594 -11.070312 8.511719 -10.824219 9.277344 -10.339844 C 10.042969 -9.851562 10.617188 -9.195312 11.003906 -8.367188 C 11.390625 -7.535156 11.582031 -6.605469 11.582031 -5.578125 C 11.582031 -5.433594 11.582031 -5.296875 11.582031 -5.167969 C 11.582031 -5.042969 11.570312 -4.90625 11.539062 -4.761719 L 3.089844 -4.761719 C 3.144531 -3.859375 3.328125 -3.15625 3.636719 -2.648438 C 3.945312 -2.140625 4.339844 -1.78125 4.828125 -1.566406 C 5.3125 -1.351562 5.863281 -1.246094 6.476562 -1.246094 Z M 6.433594 -9.480469 C 5.519531 -9.480469 4.769531 -9.253906 4.183594 -8.796875 C 3.597656 -8.335938 3.238281 -7.515625 3.109375 -6.328125 L 9.523438 -6.328125 C 9.46875 -7.414062 9.175781 -8.210938 8.65625 -8.71875 C 8.132812 -9.226562 7.394531 -9.480469 6.433594 -9.480469 Z M 6.433594 -9.480469 "/></g></g></g><g fill="#ffffff" fill-opacity="1"><g transform="translate(265.922192, 74.86527)"><g><path d="M 7.421875 -10.898438 L 7.742188 -10.898438 L 7.742188 -8.816406 L 7.207031 -8.816406 C 6.25 -8.816406 5.511719 -8.628906 5 -8.246094 C 4.484375 -7.867188 4.128906 -7.324219 3.9375 -6.617188 C 3.742188 -5.910156 3.648438 -5.070312 3.648438 -4.097656 L 3.648438 0 L 1.5 0 L 1.5 -10.726562 L 3.625 -10.726562 L 3.625 -8.128906 C 3.953125 -8.929688 4.417969 -9.59375 5.019531 -10.113281 C 5.621094 -10.636719 6.421875 -10.898438 7.421875 -10.898438 Z M 7.421875 -10.898438 "/></g></g></g></svg>