<svg xmlns="http://www.w3.org/2000/svg" xmlns:xlink="http://www.w3.org/1999/xlink" width="1080" zoomAndPan="magnify" viewBox="0 0 810 809.999993" height="1080" preserveAspectRatio="xMidYMid meet" version="1.0"><defs><g/><clipPath id="bf8cee6ea9"><path d="M 2 238 L 274.890625 238 L 274.890625 464.578125 L 2 464.578125 Z M 2 238 " clip-rule="nonzero"/></clipPath></defs><g clip-path="url(#bf8cee6ea9)"><path fill="#e5e900" d="M 42.789062 444.117188 C 43.480469 443.773438 45.699219 442.796875 48.367188 443.46875 C 48.824219 443.59375 52.6875 444.628906 53.496094 447.890625 C 53.929688 449.652344 53.347656 451.617188 52.257812 452.878906 C 49.324219 456.277344 42.253906 455.097656 38.046875 453.402344 C 30.542969 450.367188 26.996094 443.546875 23.644531 437.113281 C 21.257812 432.542969 17.996094 424.894531 16.753906 414.457031 C 14.847656 411.453125 13.335938 408.265625 12.21875 404.886719 C 10.164062 398.703125 10.050781 393.65625 9.980469 388.539062 C 9.898438 382.699219 10.449219 376.921875 11.628906 371.203125 C 9.058594 364.464844 6.023438 353.652344 6.765625 340.339844 C 7.523438 326.8125 11.84375 316.878906 13.777344 312.570312 C 14.8125 310.238281 17.710938 305.351562 23.507812 295.5625 C 29.75 285.039062 33.570312 279.058594 36.101562 269.738281 C 38.117188 262.335938 37.636719 259.015625 36.101562 256.492188 C 34.207031 253.378906 30.511719 251.164062 26.621094 251.171875 C 20.847656 251.183594 16.890625 256.097656 15.460938 260.007812 C 14.449219 262.757812 14.617188 265.246094 14.8125 266.621094 C 14.972656 266.757812 17.449219 268.875 17.015625 271.816406 C 16.585938 274.761719 13.789062 276.339844 11.570312 276.488281 C 7.390625 276.761719 4.535156 271.578125 4.171875 270.90625 C 0 263.109375 5.71875 253.1875 7.023438 250.914062 C 8.980469 247.511719 11.914062 242.433594 18.0625 240.011719 C 27.726562 236.214844 36.96875 242.328125 38.570312 243.386719 C 40.171875 244.445312 47.039062 249.230469 49.210938 258.1875 C 51.222656 266.472656 48.027344 273.796875 46.742188 276.75 C 43.707031 283.695312 39.910156 286.027344 39.082031 292.972656 C 38.777344 295.640625 38.949219 298.277344 39.605469 300.882812 C 44.992188 303.945312 50.140625 307.363281 55.054688 311.136719 C 59.339844 314.433594 67.832031 320.972656 74.515625 329.574219 C 78.824219 335.101562 87.042969 347.480469 89.453125 367.738281 C 92.007812 376.683594 96.042969 382.707031 98.796875 386.164062 C 100.707031 388.5625 105.605469 392.484375 115.402344 400.316406 C 115.402344 400.316406 122.089844 405.648438 131.113281 409.398438 C 132.125 409.820312 133.96875 410.535156 136.34375 410.433594 C 139.160156 410.320312 141.265625 409.148438 142.617188 408.363281 C 145.617188 406.636719 146.234375 405.25 148.402344 403.523438 C 150.246094 402.078125 153.15625 400.394531 157.804688 399.703125 C 160.136719 395.769531 161.921875 392.757812 163.886719 389.414062 C 165.851562 386.074219 167.59375 383.09375 170.878906 380.195312 C 171.558594 379.59375 172.164062 379.128906 172.570312 378.820312 C 172.890625 379.019531 173.132812 379.289062 173.300781 379.628906 C 173.46875 379.964844 173.535156 380.320312 173.503906 380.695312 C 173.480469 382.503906 173.605469 388.902344 174.164062 391.882812 C 174.390625 393.121094 174.925781 394.949219 176.277344 397.066406 C 179.640625 397.113281 182.875 397.789062 185.972656 399.101562 C 187.78125 399.875 193.054688 402.203125 196.75 407.886719 C 197.820312 409.53125 198.65625 411.289062 199.25 413.160156 C 200.007812 414.121094 200.902344 414.925781 201.933594 415.582031 C 202.898438 416.1875 203.421875 416.300781 204.320312 416.878906 C 205.375 417.585938 206.253906 418.46875 206.957031 419.527344 C 207.011719 419.785156 207.023438 420.042969 206.992188 420.300781 C 206.949219 420.679688 206.820312 421.023438 206.605469 421.335938 C 206.652344 421.925781 206.65625 422.515625 206.617188 423.109375 C 206.550781 424.289062 206.367188 427.292969 204.515625 429.382812 C 203.503906 430.53125 202.742188 431.382812 202.195312 431.726562 C 201.957031 431.871094 201.765625 432.0625 201.628906 432.304688 C 201.496094 432.507812 201.433594 432.734375 201.433594 432.976562 C 201.4375 433.285156 201.535156 433.5625 201.730469 433.804688 C 206.164062 436 211.835938 438.613281 218.597656 441.195312 C 223.894531 443.230469 230.523438 445.765625 239.425781 447.820312 C 251.519531 450.617188 257.566406 452.015625 261.046875 451.710938 C 261.046875 451.710938 266.558594 451.242188 272.71875 454.140625 C 273.09375 454.324219 273.878906 454.722656 274.1875 455.507812 C 274.890625 457.347656 272.492188 459.804688 271.84375 460.472656 C 267.820312 464.621094 260.964844 464.816406 258.601562 464.851562 C 247.277344 465.042969 239.378906 463.828125 230.761719 462.90625 C 220.246094 461.792969 220.667969 462.382812 207.59375 461.054688 C 198.898438 460.179688 191.816406 459.210938 187.15625 458.53125 C 170.59375 458.894531 155.726562 459.054688 142.855469 459.109375 C 125.292969 459.1875 118.574219 459.03125 109.367188 456.972656 C 102.296875 455.382812 92.066406 453.097656 81.140625 446.070312 C 71.480469 439.851562 69.410156 435.179688 50.769531 419.585938 C 46.722656 416.195312 43.34375 413.515625 41.195312 411.832031 C 40.183594 412.109375 39.273438 412.585938 38.46875 413.265625 C 35.488281 415.789062 35.613281 420.175781 35.683594 422.640625 C 35.785156 426.632812 37.105469 429.722656 37.855469 431.429688 C 38.921875 433.886719 39.558594 434.328125 40.671875 436.886719 C 41.6875 439.207031 42.394531 441.617188 42.789062 444.117188 Z M 42.789062 444.117188 " fill-opacity="1" fill-rule="nonzero"/></g><g fill="#ffffff" fill-opacity="1"><g transform="translate(93.488348, 350.630151)"><g><path d="M 45.03125 -48.296875 L 80.046875 -0.625 L 80.046875 0 L 64.359375 0 L 36.375 -39.015625 L 21.078125 -22.828125 L 21.078125 0 L 8.15625 0 L 8.15625 -83.421875 L 21.078125 -83.421875 L 21.078125 -39.265625 L 61.21875 -83.421875 L 78.15625 -83.421875 Z M 45.03125 -48.296875 "/></g></g></g><g fill="#ffffff" fill-opacity="1"><g transform="translate(172.885575, 350.630151)"><g><path d="M 7.15625 -72.140625 L 7.15625 -83.421875 L 22.953125 -83.421875 L 22.953125 -72.140625 Z M 8.78125 0 L 8.78125 -62.734375 L 21.328125 -62.734375 L 21.328125 0 Z M 8.78125 0 "/></g></g></g><g fill="#ffffff" fill-opacity="1"><g transform="translate(196.716714, 350.630151)"><g><path d="M 33 0 C 27.976562 0 24.085938 -0.664062 21.328125 -2 C 18.566406 -3.34375 16.660156 -5.375 15.609375 -8.09375 C 14.566406 -10.8125 14.046875 -14.257812 14.046875 -18.4375 L 14.046875 -53.0625 L 2.125 -53.0625 L 2.125 -59.59375 L 15.1875 -64.109375 L 20.328125 -76.90625 L 26.59375 -76.90625 L 26.59375 -62.734375 L 46.671875 -62.734375 L 46.671875 -53.0625 L 26.59375 -53.0625 L 26.59375 -10.03125 L 45.421875 -10.03125 L 45.421875 0 Z M 33 0 "/></g></g></g><g fill="#ffffff" fill-opacity="1"><g transform="translate(240.616874, 350.630151)"><g><path d="M 33 0 C 27.976562 0 24.085938 -0.664062 21.328125 -2 C 18.566406 -3.34375 16.660156 -5.375 15.609375 -8.09375 C 14.566406 -10.8125 14.046875 -14.257812 14.046875 -18.4375 L 14.046875 -53.0625 L 2.125 -53.0625 L 2.125 -59.59375 L 15.1875 -64.109375 L 20.328125 -76.90625 L 26.59375 -76.90625 L 26.59375 -62.734375 L 46.671875 -62.734375 L 46.671875 -53.0625 L 26.59375 -53.0625 L 26.59375 -10.03125 L 45.421875 -10.03125 L 45.421875 0 Z M 33 0 "/></g></g></g><g fill="#ffffff" fill-opacity="1"><g transform="translate(284.517034, 350.630151)"><g><path d="M 55.328125 -62.734375 L 67.5 -62.734375 L 41.28125 5.515625 C 39.601562 9.953125 37.925781 13.613281 36.25 16.5 C 34.582031 19.382812 32.367188 21.535156 29.609375 22.953125 C 26.847656 24.378906 22.914062 25.09375 17.8125 25.09375 L 7.03125 25.09375 L 7.03125 15.046875 L 25.59375 15.046875 L 31.484375 0 L 26.96875 0 L 3.265625 -62.734375 L 16.1875 -62.734375 L 33.125 -17.9375 L 35.75 -10.40625 L 38.140625 -17.9375 Z M 55.328125 -62.734375 "/></g></g></g><g fill="#ffffff" fill-opacity="1"><g transform="translate(348.611627, 350.630151)"><g><path d="M 6.015625 -27.96875 L 18.5625 -27.96875 C 18.726562 -21.613281 20.734375 -16.703125 24.578125 -13.234375 C 28.429688 -9.765625 34.457031 -8.03125 42.65625 -8.03125 C 48.257812 -8.03125 52.566406 -8.632812 55.578125 -9.84375 C 58.585938 -11.0625 60.65625 -12.734375 61.78125 -14.859375 C 62.914062 -16.992188 63.484375 -19.484375 63.484375 -22.328125 C 63.484375 -29.941406 58.796875 -34.414062 49.421875 -35.75 L 30.109375 -38.515625 C 15.722656 -40.523438 8.53125 -48.007812 8.53125 -60.96875 C 8.53125 -65.65625 9.703125 -69.859375 12.046875 -73.578125 C 14.390625 -77.296875 17.960938 -80.242188 22.765625 -82.421875 C 27.578125 -84.597656 33.707031 -85.6875 41.15625 -85.6875 C 49.007812 -85.6875 55.40625 -84.492188 60.34375 -82.109375 C 65.28125 -79.722656 68.976562 -76.519531 71.4375 -72.5 C 73.90625 -68.488281 75.304688 -63.976562 75.640625 -58.96875 L 63.109375 -58.96875 C 62.515625 -63.976562 60.460938 -68.007812 56.953125 -71.0625 C 53.441406 -74.113281 48.128906 -75.640625 41.015625 -75.640625 C 34.242188 -75.640625 29.3125 -74.300781 26.21875 -71.625 C 23.125 -68.957031 21.578125 -65.53125 21.578125 -61.34375 C 21.578125 -58.25 22.472656 -55.65625 24.265625 -53.5625 C 26.066406 -51.476562 28.894531 -50.140625 32.75 -49.546875 L 53.1875 -46.546875 C 60.46875 -45.453125 66.175781 -43.148438 70.3125 -39.640625 C 74.457031 -36.128906 76.53125 -30.90625 76.53125 -23.96875 C 76.53125 -15.769531 73.875 -9.390625 68.5625 -4.828125 C 63.25 -0.273438 54.613281 2 42.65625 2 C 33.539062 2 26.304688 0.601562 20.953125 -2.1875 C 15.597656 -4.988281 11.769531 -8.691406 9.46875 -13.296875 C 7.164062 -17.898438 6.015625 -22.789062 6.015625 -27.96875 Z M 6.015625 -27.96875 "/></g></g></g><g fill="#ffffff" fill-opacity="1"><g transform="translate(425.123926, 350.630151)"><g><path d="M 37.890625 -7.28125 C 43.578125 -7.28125 47.820312 -8.40625 50.625 -10.65625 C 53.425781 -12.914062 55.242188 -15.675781 56.078125 -18.9375 L 67.625 -18.9375 C 67.375 -16.769531 66.679688 -14.472656 65.546875 -12.046875 C 64.421875 -9.617188 62.707031 -7.335938 60.40625 -5.203125 C 58.101562 -3.066406 55.09375 -1.332031 51.375 0 C 47.65625 1.332031 43.035156 2 37.515625 2 C 30.066406 2 24 0.492188 19.3125 -2.515625 C 14.632812 -5.523438 11.207031 -9.554688 9.03125 -14.609375 C 6.851562 -19.671875 5.765625 -25.296875 5.765625 -31.484375 C 5.765625 -37.585938 6.914062 -43.148438 9.21875 -48.171875 C 11.519531 -53.191406 15.03125 -57.207031 19.75 -60.21875 C 24.476562 -63.226562 30.398438 -64.734375 37.515625 -64.734375 C 44.203125 -64.734375 49.78125 -63.3125 54.25 -60.46875 C 58.726562 -57.625 62.097656 -53.773438 64.359375 -48.921875 C 66.617188 -44.078125 67.75 -38.644531 67.75 -32.625 C 67.75 -31.78125 67.75 -30.984375 67.75 -30.234375 C 67.75 -29.484375 67.664062 -28.6875 67.5 -27.84375 L 18.0625 -27.84375 C 18.394531 -22.582031 19.460938 -18.46875 21.265625 -15.5 C 23.066406 -12.53125 25.390625 -10.414062 28.234375 -9.15625 C 31.078125 -7.90625 34.296875 -7.28125 37.890625 -7.28125 Z M 37.640625 -55.453125 C 32.285156 -55.453125 27.890625 -54.113281 24.453125 -51.4375 C 21.023438 -48.757812 18.9375 -43.953125 18.1875 -37.015625 L 55.703125 -37.015625 C 55.367188 -43.367188 53.675781 -48.03125 50.625 -51 C 47.570312 -53.96875 43.242188 -55.453125 37.640625 -55.453125 Z M 37.640625 -55.453125 "/></g></g></g><g fill="#ffffff" fill-opacity="1"><g transform="translate(491.852588, 350.630151)"><g><path d="M 5.765625 -31.359375 C 5.765625 -37.628906 6.976562 -43.273438 9.40625 -48.296875 C 11.832031 -53.316406 15.425781 -57.3125 20.1875 -60.28125 C 24.957031 -63.25 30.859375 -64.734375 37.890625 -64.734375 C 44.410156 -64.734375 49.863281 -63.625 54.25 -61.40625 C 58.644531 -59.1875 61.992188 -56.175781 64.296875 -52.375 C 66.597656 -48.570312 67.832031 -44.203125 68 -39.265625 L 56.203125 -39.265625 C 55.703125 -43.453125 54.09375 -47.070312 51.375 -50.125 C 48.65625 -53.175781 44.328125 -54.703125 38.390625 -54.703125 C 32.285156 -54.703125 27.429688 -52.960938 23.828125 -49.484375 C 20.234375 -46.015625 18.4375 -39.972656 18.4375 -31.359375 C 18.4375 -22.578125 20.191406 -16.492188 23.703125 -13.109375 C 27.222656 -9.722656 32.035156 -8.03125 38.140625 -8.03125 C 44.242188 -8.03125 48.738281 -9.617188 51.625 -12.796875 C 54.507812 -15.972656 56.242188 -19.78125 56.828125 -24.21875 L 68.625 -24.21875 C 68.457031 -19.613281 67.222656 -15.300781 64.921875 -11.28125 C 62.617188 -7.269531 59.226562 -4.050781 54.75 -1.625 C 50.28125 0.789062 44.742188 2 38.140625 2 C 31.109375 2 25.1875 0.515625 20.375 -2.453125 C 15.570312 -5.421875 11.9375 -9.429688 9.46875 -14.484375 C 7 -19.546875 5.765625 -25.171875 5.765625 -31.359375 Z M 5.765625 -31.359375 "/></g></g></g><g fill="#ffffff" fill-opacity="1"><g transform="translate(559.208399, 350.630151)"><g><path d="M 53.0625 -62.734375 L 65.609375 -62.734375 L 65.609375 0 L 53.0625 0 L 53.0625 -13.671875 C 51.226562 -9.078125 48.550781 -5.316406 45.03125 -2.390625 C 41.519531 0.535156 36.796875 2 30.859375 2 C 22.492188 2 16.515625 -0.210938 12.921875 -4.640625 C 9.328125 -9.078125 7.53125 -15.390625 7.53125 -23.578125 L 7.53125 -62.734375 L 20.078125 -62.734375 L 20.078125 -24.71875 C 20.078125 -20.363281 20.722656 -16.992188 22.015625 -14.609375 C 23.316406 -12.234375 25.070312 -10.601562 27.28125 -9.71875 C 29.5 -8.84375 31.988281 -8.40625 34.75 -8.40625 C 40.351562 -8.40625 44.804688 -10.703125 48.109375 -15.296875 C 51.410156 -19.898438 53.0625 -26.882812 53.0625 -36.25 Z M 53.0625 -62.734375 "/></g></g></g><g fill="#ffffff" fill-opacity="1"><g transform="translate(627.316786, 350.630151)"><g><path d="M 43.40625 -63.734375 L 45.28125 -63.734375 L 45.28125 -51.5625 L 42.15625 -51.5625 C 36.550781 -51.5625 32.242188 -50.453125 29.234375 -48.234375 C 26.222656 -46.015625 24.148438 -42.835938 23.015625 -38.703125 C 21.890625 -34.566406 21.328125 -29.65625 21.328125 -23.96875 L 21.328125 0 L 8.78125 0 L 8.78125 -62.734375 L 21.203125 -62.734375 L 21.203125 -47.546875 C 23.128906 -52.234375 25.847656 -56.101562 29.359375 -59.15625 C 32.867188 -62.207031 37.550781 -63.734375 43.40625 -63.734375 Z M 43.40625 -63.734375 "/></g></g></g><g fill="#ffffff" fill-opacity="1"><g transform="translate(670.213477, 350.630151)"><g><path d="M 7.15625 -72.140625 L 7.15625 -83.421875 L 22.953125 -83.421875 L 22.953125 -72.140625 Z M 8.78125 0 L 8.78125 -62.734375 L 21.328125 -62.734375 L 21.328125 0 Z M 8.78125 0 "/></g></g></g><g fill="#ffffff" fill-opacity="1"><g transform="translate(694.044615, 350.630151)"><g><path d="M 33 0 C 27.976562 0 24.085938 -0.664062 21.328125 -2 C 18.566406 -3.34375 16.660156 -5.375 15.609375 -8.09375 C 14.566406 -10.8125 14.046875 -14.257812 14.046875 -18.4375 L 14.046875 -53.0625 L 2.125 -53.0625 L 2.125 -59.59375 L 15.1875 -64.109375 L 20.328125 -76.90625 L 26.59375 -76.90625 L 26.59375 -62.734375 L 46.671875 -62.734375 L 46.671875 -53.0625 L 26.59375 -53.0625 L 26.59375 -10.03125 L 45.421875 -10.03125 L 45.421875 0 Z M 33 0 "/></g></g></g><g fill="#ffffff" fill-opacity="1"><g transform="translate(737.944808, 350.630151)"><g><path d="M 55.328125 -62.734375 L 67.5 -62.734375 L 41.28125 5.515625 C 39.601562 9.953125 37.925781 13.613281 36.25 16.5 C 34.582031 19.382812 32.367188 21.535156 29.609375 22.953125 C 26.847656 24.378906 22.914062 25.09375 17.8125 25.09375 L 7.03125 25.09375 L 7.03125 15.046875 L 25.59375 15.046875 L 31.484375 0 L 26.96875 0 L 3.265625 -62.734375 L 16.1875 -62.734375 L 33.125 -17.9375 L 35.75 -10.40625 L 38.140625 -17.9375 Z M 55.328125 -62.734375 "/></g></g></g><g fill="#ffffff" fill-opacity="1"><g transform="translate(290.068729, 444.270258)"><g><path d="M 23.34375 -40.953125 C 26.382812 -40.953125 28.835938 -40.378906 30.703125 -39.234375 C 32.566406 -38.085938 33.929688 -36.566406 34.796875 -34.671875 C 35.660156 -32.785156 36.09375 -30.753906 36.09375 -28.578125 C 36.09375 -26.359375 35.660156 -24.304688 34.796875 -22.421875 C 33.929688 -20.535156 32.566406 -19.015625 30.703125 -17.859375 C 28.835938 -16.710938 26.382812 -16.140625 23.34375 -16.140625 L 10.40625 -16.140625 L 10.40625 0 L 4 0 L 4 -40.953125 Z M 21.796875 -21.25 C 24.710938 -21.25 26.710938 -21.945312 27.796875 -23.34375 C 28.890625 -24.738281 29.4375 -26.484375 29.4375 -28.578125 C 29.4375 -30.671875 28.890625 -32.40625 27.796875 -33.78125 C 26.710938 -35.15625 24.710938 -35.84375 21.796875 -35.84375 L 10.40625 -35.84375 L 10.40625 -21.25 Z M 21.796875 -21.25 "/></g></g></g><g fill="#ffffff" fill-opacity="1"><g transform="translate(324.003341, 444.270258)"><g><path d="M 13.609375 0.796875 C 10.492188 0.796875 8.007812 0 6.15625 -1.59375 C 4.3125 -3.195312 3.390625 -5.414062 3.390625 -8.25 C 3.390625 -10.71875 4.085938 -12.738281 5.484375 -14.3125 C 6.878906 -15.894531 9.300781 -16.972656 12.75 -17.546875 L 20.453125 -18.84375 C 21.929688 -19.09375 23.019531 -19.484375 23.71875 -20.015625 C 24.414062 -20.546875 24.765625 -21.347656 24.765625 -22.421875 C 24.765625 -23.816406 24.300781 -24.941406 23.375 -25.796875 C 22.445312 -26.660156 20.648438 -27.09375 17.984375 -27.09375 C 15.484375 -27.09375 13.601562 -26.585938 12.34375 -25.578125 C 11.09375 -24.578125 10.382812 -23.113281 10.21875 -21.1875 L 4.0625 -21.1875 C 4.101562 -24.46875 5.300781 -27.0625 7.65625 -28.96875 C 10.019531 -30.882812 13.378906 -31.84375 17.734375 -31.84375 C 22.003906 -31.84375 25.1875 -30.957031 27.28125 -29.1875 C 29.375 -27.425781 30.421875 -25.128906 30.421875 -22.296875 L 30.421875 -7.015625 C 30.421875 -5.867188 30.441406 -4.769531 30.484375 -3.71875 C 30.523438 -2.675781 30.609375 -1.4375 30.734375 0 L 25.125 0 C 25.007812 -1.1875 24.921875 -2.332031 24.859375 -3.4375 C 24.796875 -4.550781 24.765625 -5.722656 24.765625 -6.953125 C 24.347656 -5.679688 23.675781 -4.453125 22.75 -3.265625 C 21.832031 -2.078125 20.625 -1.101562 19.125 -0.34375 C 17.625 0.414062 15.785156 0.796875 13.609375 0.796875 Z M 14.90625 -3.9375 C 17.082031 -3.9375 18.898438 -4.429688 20.359375 -5.421875 C 21.816406 -6.410156 22.914062 -7.734375 23.65625 -9.390625 C 24.394531 -11.054688 24.765625 -12.914062 24.765625 -14.96875 L 24.765625 -16.8125 C 23.941406 -16.195312 23.054688 -15.734375 22.109375 -15.421875 C 21.171875 -15.117188 20.226562 -14.863281 19.28125 -14.65625 L 15.03125 -13.671875 C 13.144531 -13.265625 11.757812 -12.660156 10.875 -11.859375 C 9.988281 -11.054688 9.546875 -9.9375 9.546875 -8.5 C 9.546875 -7.019531 10.035156 -5.890625 11.015625 -5.109375 C 12.003906 -4.328125 13.300781 -3.9375 14.90625 -3.9375 Z M 14.90625 -3.9375 "/></g></g></g><g fill="#ffffff" fill-opacity="1"><g transform="translate(353.565257, 444.270258)"><g><path d="M 2.09375 -10.28125 L 7.828125 -10.28125 C 7.941406 -8.394531 8.675781 -6.804688 10.03125 -5.515625 C 11.394531 -4.222656 13.570312 -3.578125 16.5625 -3.578125 C 19.320312 -3.578125 21.148438 -4.015625 22.046875 -4.890625 C 22.953125 -5.773438 23.40625 -6.914062 23.40625 -8.3125 C 23.40625 -9.582031 23.035156 -10.578125 22.296875 -11.296875 C 21.554688 -12.015625 20.363281 -12.5 18.71875 -12.75 L 11.09375 -13.921875 C 8.414062 -14.328125 6.367188 -15.25 4.953125 -16.6875 C 3.535156 -18.125 2.828125 -20.015625 2.828125 -22.359375 C 2.828125 -25.316406 3.957031 -27.632812 6.21875 -29.3125 C 8.476562 -31 11.617188 -31.84375 15.640625 -31.84375 C 19.628906 -31.84375 22.789062 -30.9375 25.125 -29.125 C 27.46875 -27.320312 28.742188 -24.960938 28.953125 -22.046875 L 22.796875 -22.046875 C 22.628906 -23.484375 21.957031 -24.710938 20.78125 -25.734375 C 19.613281 -26.765625 17.835938 -27.28125 15.453125 -27.28125 C 13.078125 -27.28125 11.375 -26.859375 10.34375 -26.015625 C 9.320312 -25.179688 8.8125 -24.144531 8.8125 -22.90625 C 8.8125 -22.007812 9.109375 -21.203125 9.703125 -20.484375 C 10.296875 -19.765625 11.414062 -19.28125 13.0625 -19.03125 L 19.703125 -18.046875 C 22.253906 -17.679688 24.238281 -17.054688 25.65625 -16.171875 C 27.070312 -15.285156 28.054688 -14.207031 28.609375 -12.9375 C 29.160156 -11.664062 29.4375 -10.226562 29.4375 -8.625 C 29.4375 -5.457031 28.378906 -3.0625 26.265625 -1.4375 C 24.148438 0.175781 20.859375 0.984375 16.390625 0.984375 C 13.015625 0.984375 10.269531 0.484375 8.15625 -0.515625 C 6.039062 -1.523438 4.5 -2.878906 3.53125 -4.578125 C 2.570312 -6.285156 2.09375 -8.1875 2.09375 -10.28125 Z M 2.09375 -10.28125 "/></g></g></g><g fill="#ffffff" fill-opacity="1"><g transform="translate(380.72526, 444.270258)"><g><path d="M 2.09375 -10.28125 L 7.828125 -10.28125 C 7.941406 -8.394531 8.675781 -6.804688 10.03125 -5.515625 C 11.394531 -4.222656 13.570312 -3.578125 16.5625 -3.578125 C 19.320312 -3.578125 21.148438 -4.015625 22.046875 -4.890625 C 22.953125 -5.773438 23.40625 -6.914062 23.40625 -8.3125 C 23.40625 -9.582031 23.035156 -10.578125 22.296875 -11.296875 C 21.554688 -12.015625 20.363281 -12.5 18.71875 -12.75 L 11.09375 -13.921875 C 8.414062 -14.328125 6.367188 -15.25 4.953125 -16.6875 C 3.535156 -18.125 2.828125 -20.015625 2.828125 -22.359375 C 2.828125 -25.316406 3.957031 -27.632812 6.21875 -29.3125 C 8.476562 -31 11.617188 -31.84375 15.640625 -31.84375 C 19.628906 -31.84375 22.789062 -30.9375 25.125 -29.125 C 27.46875 -27.320312 28.742188 -24.960938 28.953125 -22.046875 L 22.796875 -22.046875 C 22.628906 -23.484375 21.957031 -24.710938 20.78125 -25.734375 C 19.613281 -26.765625 17.835938 -27.28125 15.453125 -27.28125 C 13.078125 -27.28125 11.375 -26.859375 10.34375 -26.015625 C 9.320312 -25.179688 8.8125 -24.144531 8.8125 -22.90625 C 8.8125 -22.007812 9.109375 -21.203125 9.703125 -20.484375 C 10.296875 -19.765625 11.414062 -19.28125 13.0625 -19.03125 L 19.703125 -18.046875 C 22.253906 -17.679688 24.238281 -17.054688 25.65625 -16.171875 C 27.070312 -15.285156 28.054688 -14.207031 28.609375 -12.9375 C 29.160156 -11.664062 29.4375 -10.226562 29.4375 -8.625 C 29.4375 -5.457031 28.378906 -3.0625 26.265625 -1.4375 C 24.148438 0.175781 20.859375 0.984375 16.390625 0.984375 C 13.015625 0.984375 10.269531 0.484375 8.15625 -0.515625 C 6.039062 -1.523438 4.5 -2.878906 3.53125 -4.578125 C 2.570312 -6.285156 2.09375 -8.1875 2.09375 -10.28125 Z M 2.09375 -10.28125 "/></g></g></g><g fill="#ffffff" fill-opacity="1"><g transform="translate(407.885268, 444.270258)"><g><path d="M 46.9375 -30.796875 L 52.90625 -30.796875 L 43.671875 0 L 34.921875 0 L 27.21875 -23.40625 L 19.53125 0 L 10.78125 0 L 1.546875 -30.796875 L 7.890625 -30.796875 L 15.453125 -4.625 L 24.328125 -30.796875 L 30.484375 -30.796875 L 39.359375 -4.625 Z M 46.9375 -30.796875 "/></g></g></g><g fill="#ffffff" fill-opacity="1"><g transform="translate(457.709394, 444.270258)"><g><path d="M 18.71875 0.984375 C 15.144531 0.984375 12.175781 0.242188 9.8125 -1.234375 C 7.457031 -2.710938 5.703125 -4.691406 4.546875 -7.171875 C 3.398438 -9.660156 2.828125 -12.421875 2.828125 -15.453125 C 2.828125 -18.453125 3.398438 -21.179688 4.546875 -23.640625 C 5.703125 -26.109375 7.457031 -28.082031 9.8125 -29.5625 C 12.175781 -31.039062 15.144531 -31.78125 18.71875 -31.78125 C 22.289062 -31.78125 25.25 -31.039062 27.59375 -29.5625 C 29.9375 -28.082031 31.691406 -26.109375 32.859375 -23.640625 C 34.023438 -21.179688 34.609375 -18.453125 34.609375 -15.453125 C 34.609375 -12.460938 34.023438 -9.710938 32.859375 -7.203125 C 31.691406 -4.703125 29.9375 -2.710938 27.59375 -1.234375 C 25.25 0.242188 22.289062 0.984375 18.71875 0.984375 Z M 9.046875 -15.40625 C 9.046875 -11.289062 9.828125 -8.347656 11.390625 -6.578125 C 12.953125 -4.816406 15.394531 -3.9375 18.71875 -3.9375 C 22.050781 -3.9375 24.492188 -4.816406 26.046875 -6.578125 C 27.609375 -8.347656 28.390625 -11.289062 28.390625 -15.40625 C 28.390625 -19.507812 27.609375 -22.441406 26.046875 -24.203125 C 24.492188 -25.972656 22.050781 -26.859375 18.71875 -26.859375 C 15.394531 -26.859375 12.953125 -25.972656 11.390625 -24.203125 C 9.828125 -22.441406 9.046875 -19.507812 9.046875 -15.40625 Z M 9.046875 -15.40625 "/></g></g></g><g fill="#ffffff" fill-opacity="1"><g transform="translate(490.535432, 444.270258)"><g><path d="M 21.3125 -31.296875 L 22.234375 -31.296875 L 22.234375 -25.3125 L 20.703125 -25.3125 C 17.941406 -25.3125 15.820312 -24.765625 14.34375 -23.671875 C 12.875 -22.585938 11.859375 -21.03125 11.296875 -19 C 10.742188 -16.96875 10.46875 -14.554688 10.46875 -11.765625 L 10.46875 0 L 4.3125 0 L 4.3125 -30.796875 L 10.40625 -30.796875 L 10.40625 -23.34375 C 11.351562 -25.644531 12.6875 -27.546875 14.40625 -29.046875 C 16.132812 -30.546875 18.4375 -31.296875 21.3125 -31.296875 Z M 21.3125 -31.296875 "/></g></g></g><g fill="#ffffff" fill-opacity="1"><g transform="translate(510.058607, 444.270258)"><g><path d="M 28.578125 -43.109375 L 34.734375 -43.109375 L 34.734375 0 L 28.578125 0 L 28.578125 -5.296875 C 27.554688 -3.285156 26.097656 -1.734375 24.203125 -0.640625 C 22.316406 0.441406 19.976562 0.984375 17.1875 0.984375 C 13.894531 0.984375 11.179688 0.242188 9.046875 -1.234375 C 6.910156 -2.710938 5.335938 -4.691406 4.328125 -7.171875 C 3.328125 -9.660156 2.828125 -12.40625 2.828125 -15.40625 C 2.828125 -18.4375 3.328125 -21.179688 4.328125 -23.640625 C 5.335938 -26.109375 6.910156 -28.082031 9.046875 -29.5625 C 11.179688 -31.039062 13.894531 -31.78125 17.1875 -31.78125 C 19.976562 -31.78125 22.316406 -31.234375 24.203125 -30.140625 C 26.097656 -29.054688 27.554688 -27.507812 28.578125 -25.5 Z M 18.484375 -3.9375 C 21.722656 -3.9375 24.210938 -4.859375 25.953125 -6.703125 C 27.703125 -8.554688 28.578125 -11.457031 28.578125 -15.40625 C 28.578125 -19.34375 27.703125 -22.234375 25.953125 -24.078125 C 24.210938 -25.929688 21.722656 -26.859375 18.484375 -26.859375 C 15.066406 -26.859375 12.640625 -25.898438 11.203125 -23.984375 C 9.765625 -22.078125 9.046875 -19.21875 9.046875 -15.40625 C 9.046875 -11.582031 9.765625 -8.710938 11.203125 -6.796875 C 12.640625 -4.890625 15.066406 -3.9375 18.484375 -3.9375 Z M 18.484375 -3.9375 "/></g></g></g><g fill="#ffffff" fill-opacity="1"><g transform="translate(544.362726, 444.270258)"><g/></g></g><g fill="#ffffff" fill-opacity="1"><g transform="translate(554.894161, 444.270258)"><g><path d="M 50.203125 -40.953125 L 50.203125 0 L 43.859375 0 L 43.859375 -36.03125 L 31.296875 0 L 22.90625 0 L 10.34375 -36.03125 L 10.34375 0 L 4 0 L 4 -40.953125 L 15.03125 -40.953125 L 27.15625 -6.15625 L 39.296875 -40.953125 Z M 50.203125 -40.953125 "/></g></g></g><g fill="#ffffff" fill-opacity="1"><g transform="translate(604.471927, 444.270258)"><g><path d="M 13.609375 0.796875 C 10.492188 0.796875 8.007812 0 6.15625 -1.59375 C 4.3125 -3.195312 3.390625 -5.414062 3.390625 -8.25 C 3.390625 -10.71875 4.085938 -12.738281 5.484375 -14.3125 C 6.878906 -15.894531 9.300781 -16.972656 12.75 -17.546875 L 20.453125 -18.84375 C 21.929688 -19.09375 23.019531 -19.484375 23.71875 -20.015625 C 24.414062 -20.546875 24.765625 -21.347656 24.765625 -22.421875 C 24.765625 -23.816406 24.300781 -24.941406 23.375 -25.796875 C 22.445312 -26.660156 20.648438 -27.09375 17.984375 -27.09375 C 15.484375 -27.09375 13.601562 -26.585938 12.34375 -25.578125 C 11.09375 -24.578125 10.382812 -23.113281 10.21875 -21.1875 L 4.0625 -21.1875 C 4.101562 -24.46875 5.300781 -27.0625 7.65625 -28.96875 C 10.019531 -30.882812 13.378906 -31.84375 17.734375 -31.84375 C 22.003906 -31.84375 25.1875 -30.957031 27.28125 -29.1875 C 29.375 -27.425781 30.421875 -25.128906 30.421875 -22.296875 L 30.421875 -7.015625 C 30.421875 -5.867188 30.441406 -4.769531 30.484375 -3.71875 C 30.523438 -2.675781 30.609375 -1.4375 30.734375 0 L 25.125 0 C 25.007812 -1.1875 24.921875 -2.332031 24.859375 -3.4375 C 24.796875 -4.550781 24.765625 -5.722656 24.765625 -6.953125 C 24.347656 -5.679688 23.675781 -4.453125 22.75 -3.265625 C 21.832031 -2.078125 20.625 -1.101562 19.125 -0.34375 C 17.625 0.414062 15.785156 0.796875 13.609375 0.796875 Z M 14.90625 -3.9375 C 17.082031 -3.9375 18.898438 -4.429688 20.359375 -5.421875 C 21.816406 -6.410156 22.914062 -7.734375 23.65625 -9.390625 C 24.394531 -11.054688 24.765625 -12.914062 24.765625 -14.96875 L 24.765625 -16.8125 C 23.941406 -16.195312 23.054688 -15.734375 22.109375 -15.421875 C 21.171875 -15.117188 20.226562 -14.863281 19.28125 -14.65625 L 15.03125 -13.671875 C 13.144531 -13.265625 11.757812 -12.660156 10.875 -11.859375 C 9.988281 -11.054688 9.546875 -9.9375 9.546875 -8.5 C 9.546875 -7.019531 10.035156 -5.890625 11.015625 -5.109375 C 12.003906 -4.328125 13.300781 -3.9375 14.90625 -3.9375 Z M 14.90625 -3.9375 "/></g></g></g><g fill="#ffffff" fill-opacity="1"><g transform="translate(634.033856, 444.270258)"><g><path d="M 21.625 -31.78125 C 25.726562 -31.78125 28.617188 -30.691406 30.296875 -28.515625 C 31.984375 -26.335938 32.828125 -23.238281 32.828125 -19.21875 L 32.828125 0 L 26.671875 0 L 26.671875 -18.65625 C 26.671875 -20.832031 26.375 -22.492188 25.78125 -23.640625 C 25.1875 -24.796875 24.375 -25.585938 23.34375 -26.015625 C 22.3125 -26.453125 21.140625 -26.671875 19.828125 -26.671875 C 16.835938 -26.671875 14.53125 -25.613281 12.90625 -23.5 C 11.28125 -21.382812 10.46875 -17.882812 10.46875 -13 L 10.46875 0 L 4.3125 0 L 4.3125 -30.796875 L 10.46875 -30.796875 L 10.46875 -23.890625 C 11.414062 -26.191406 12.769531 -28.082031 14.53125 -29.5625 C 16.300781 -31.039062 18.664062 -31.78125 21.625 -31.78125 Z M 21.625 -31.78125 "/></g></g></g><g fill="#ffffff" fill-opacity="1"><g transform="translate(665.936064, 444.270258)"><g><path d="M 13.609375 0.796875 C 10.492188 0.796875 8.007812 0 6.15625 -1.59375 C 4.3125 -3.195312 3.390625 -5.414062 3.390625 -8.25 C 3.390625 -10.71875 4.085938 -12.738281 5.484375 -14.3125 C 6.878906 -15.894531 9.300781 -16.972656 12.75 -17.546875 L 20.453125 -18.84375 C 21.929688 -19.09375 23.019531 -19.484375 23.71875 -20.015625 C 24.414062 -20.546875 24.765625 -21.347656 24.765625 -22.421875 C 24.765625 -23.816406 24.300781 -24.941406 23.375 -25.796875 C 22.445312 -26.660156 20.648438 -27.09375 17.984375 -27.09375 C 15.484375 -27.09375 13.601562 -26.585938 12.34375 -25.578125 C 11.09375 -24.578125 10.382812 -23.113281 10.21875 -21.1875 L 4.0625 -21.1875 C 4.101562 -24.46875 5.300781 -27.0625 7.65625 -28.96875 C 10.019531 -30.882812 13.378906 -31.84375 17.734375 -31.84375 C 22.003906 -31.84375 25.1875 -30.957031 27.28125 -29.1875 C 29.375 -27.425781 30.421875 -25.128906 30.421875 -22.296875 L 30.421875 -7.015625 C 30.421875 -5.867188 30.441406 -4.769531 30.484375 -3.71875 C 30.523438 -2.675781 30.609375 -1.4375 30.734375 0 L 25.125 0 C 25.007812 -1.1875 24.921875 -2.332031 24.859375 -3.4375 C 24.796875 -4.550781 24.765625 -5.722656 24.765625 -6.953125 C 24.347656 -5.679688 23.675781 -4.453125 22.75 -3.265625 C 21.832031 -2.078125 20.625 -1.101562 19.125 -0.34375 C 17.625 0.414062 15.785156 0.796875 13.609375 0.796875 Z M 14.90625 -3.9375 C 17.082031 -3.9375 18.898438 -4.429688 20.359375 -5.421875 C 21.816406 -6.410156 22.914062 -7.734375 23.65625 -9.390625 C 24.394531 -11.054688 24.765625 -12.914062 24.765625 -14.96875 L 24.765625 -16.8125 C 23.941406 -16.195312 23.054688 -15.734375 22.109375 -15.421875 C 21.171875 -15.117188 20.226562 -14.863281 19.28125 -14.65625 L 15.03125 -13.671875 C 13.144531 -13.265625 11.757812 -12.660156 10.875 -11.859375 C 9.988281 -11.054688 9.546875 -9.9375 9.546875 -8.5 C 9.546875 -7.019531 10.035156 -5.890625 11.015625 -5.109375 C 12.003906 -4.328125 13.300781 -3.9375 14.90625 -3.9375 Z M 14.90625 -3.9375 "/></g></g></g><g fill="#ffffff" fill-opacity="1"><g transform="translate(695.497994, 444.270258)"><g><path d="M 28.390625 -30.796875 L 34.546875 -30.796875 L 34.546875 -0.125 C 34.546875 4.0625 33.34375 7.296875 30.9375 9.578125 C 28.539062 11.859375 24.46875 13 18.71875 13 C 14.039062 13 10.382812 12.03125 7.75 10.09375 C 5.125 8.164062 3.671875 5.351562 3.390625 1.65625 L 9.546875 1.65625 C 9.753906 3.71875 10.578125 5.332031 12.015625 6.5 C 13.453125 7.664062 15.707031 8.25 18.78125 8.25 C 22.15625 8.25 24.597656 7.613281 26.109375 6.34375 C 27.628906 5.070312 28.390625 2.851562 28.390625 -0.3125 L 28.390625 -6.21875 C 26.378906 -2.601562 22.6875 -0.796875 17.3125 -0.796875 C 14.019531 -0.796875 11.296875 -1.453125 9.140625 -2.765625 C 6.984375 -4.085938 5.378906 -5.90625 4.328125 -8.21875 C 3.285156 -10.539062 2.765625 -13.203125 2.765625 -16.203125 C 2.765625 -19.234375 3.285156 -21.898438 4.328125 -24.203125 C 5.378906 -26.503906 6.984375 -28.3125 9.140625 -29.625 C 11.296875 -30.9375 14.019531 -31.59375 17.3125 -31.59375 C 20.019531 -31.59375 22.285156 -31.085938 24.109375 -30.078125 C 25.941406 -29.078125 27.367188 -27.675781 28.390625 -25.875 Z M 18.78125 -5.546875 C 22.03125 -5.546875 24.441406 -6.375 26.015625 -8.03125 C 27.597656 -9.695312 28.390625 -12.421875 28.390625 -16.203125 C 28.390625 -19.972656 27.597656 -22.691406 26.015625 -24.359375 C 24.441406 -26.023438 22.03125 -26.859375 18.78125 -26.859375 C 15.375 -26.859375 12.890625 -26.054688 11.328125 -24.453125 C 9.773438 -22.847656 9 -20.097656 9 -16.203125 C 9 -12.296875 9.773438 -9.539062 11.328125 -7.9375 C 12.890625 -6.34375 15.375 -5.546875 18.78125 -5.546875 Z M 18.78125 -5.546875 "/></g></g></g><g fill="#ffffff" fill-opacity="1"><g transform="translate(729.617376, 444.270258)"><g><path d="M 18.59375 -3.578125 C 21.394531 -3.578125 23.484375 -4.128906 24.859375 -5.234375 C 26.234375 -6.347656 27.125 -7.703125 27.53125 -9.296875 L 33.203125 -9.296875 C 33.078125 -8.234375 32.734375 -7.101562 32.171875 -5.90625 C 31.617188 -4.71875 30.78125 -3.597656 29.65625 -2.546875 C 28.53125 -1.503906 27.050781 -0.65625 25.21875 0 C 23.394531 0.65625 21.128906 0.984375 18.421875 0.984375 C 14.765625 0.984375 11.785156 0.242188 9.484375 -1.234375 C 7.179688 -2.710938 5.492188 -4.691406 4.421875 -7.171875 C 3.359375 -9.660156 2.828125 -12.421875 2.828125 -15.453125 C 2.828125 -18.453125 3.390625 -21.179688 4.515625 -23.640625 C 5.648438 -26.109375 7.378906 -28.082031 9.703125 -29.5625 C 12.023438 -31.039062 14.929688 -31.78125 18.421875 -31.78125 C 21.703125 -31.78125 24.441406 -31.082031 26.640625 -29.6875 C 28.835938 -28.289062 30.488281 -26.398438 31.59375 -24.015625 C 32.707031 -21.640625 33.265625 -18.972656 33.265625 -16.015625 C 33.265625 -15.609375 33.265625 -15.21875 33.265625 -14.84375 C 33.265625 -14.476562 33.222656 -14.085938 33.140625 -13.671875 L 8.875 -13.671875 C 9.03125 -11.085938 9.550781 -9.066406 10.4375 -7.609375 C 11.320312 -6.148438 12.460938 -5.113281 13.859375 -4.5 C 15.253906 -3.882812 16.832031 -3.578125 18.59375 -3.578125 Z M 18.484375 -27.21875 C 15.847656 -27.21875 13.6875 -26.5625 12 -25.25 C 10.320312 -23.9375 9.300781 -21.578125 8.9375 -18.171875 L 27.34375 -18.171875 C 27.175781 -21.285156 26.34375 -23.570312 24.84375 -25.03125 C 23.351562 -26.488281 21.234375 -27.21875 18.484375 -27.21875 Z M 18.484375 -27.21875 "/></g></g></g><g fill="#ffffff" fill-opacity="1"><g transform="translate(760.842146, 444.270258)"><g><path d="M 21.3125 -31.296875 L 22.234375 -31.296875 L 22.234375 -25.3125 L 20.703125 -25.3125 C 17.941406 -25.3125 15.820312 -24.765625 14.34375 -23.671875 C 12.875 -22.585938 11.859375 -21.03125 11.296875 -19 C 10.742188 -16.96875 10.46875 -14.554688 10.46875 -11.765625 L 10.46875 0 L 4.3125 0 L 4.3125 -30.796875 L 10.40625 -30.796875 L 10.40625 -23.34375 C 11.351562 -25.644531 12.6875 -27.546875 14.40625 -29.046875 C 16.132812 -30.546875 18.4375 -31.296875 21.3125 -31.296875 Z M 21.3125 -31.296875 "/></g></g></g></svg>