<svg xmlns="http://www.w3.org/2000/svg" xmlns:xlink="http://www.w3.org/1999/xlink" width="1080" zoomAndPan="magnify" viewBox="0 0 810 809.999993" height="1080" preserveAspectRatio="xMidYMid meet" version="1.0"><defs><g/><clipPath id="c816f54837"><path d="M 2 207 L 273.839844 207 L 273.839844 431.933594 L 2 431.933594 Z M 2 207 " clip-rule="nonzero"/></clipPath></defs><g clip-path="url(#c816f54837)"><path fill="#723582" d="M 42.625 411.554688 C 43.316406 411.214844 45.523438 410.238281 48.183594 410.90625 C 48.636719 411.03125 52.488281 412.0625 53.292969 415.3125 C 53.722656 417.066406 53.144531 419.027344 52.058594 420.285156 C 49.136719 423.667969 42.089844 422.492188 37.902344 420.804688 C 30.429688 417.78125 26.894531 410.988281 23.554688 404.578125 C 21.175781 400.023438 17.925781 392.402344 16.691406 382.007812 C 14.792969 379.015625 13.285156 375.839844 12.171875 372.472656 C 10.125 366.3125 10.011719 361.285156 9.941406 356.191406 C 9.859375 350.375 10.40625 344.617188 11.585938 338.921875 C 9.023438 332.207031 6 321.4375 6.738281 308.175781 C 7.496094 294.699219 11.800781 284.800781 13.726562 280.511719 C 14.753906 278.1875 17.644531 273.320312 23.417969 263.570312 C 29.636719 253.082031 33.441406 247.128906 35.964844 237.839844 C 37.96875 230.46875 37.492188 227.164062 35.964844 224.648438 C 34.074219 221.546875 30.394531 219.339844 26.519531 219.347656 C 20.769531 219.359375 16.828125 224.253906 15.402344 228.148438 C 14.394531 230.890625 14.5625 233.367188 14.753906 234.738281 C 14.914062 234.875 17.382812 236.980469 16.953125 239.914062 C 16.523438 242.847656 13.734375 244.421875 11.527344 244.566406 C 7.359375 244.839844 4.519531 239.675781 4.15625 239.007812 C 0 231.238281 5.695312 221.355469 7 219.089844 C 8.945312 215.703125 11.867188 210.640625 17.992188 208.230469 C 27.621094 204.445312 36.824219 210.539062 38.421875 211.59375 C 40.019531 212.644531 46.859375 217.414062 49.023438 226.335938 C 51.027344 234.589844 47.84375 241.882812 46.566406 244.828125 C 43.542969 251.746094 39.757812 254.070312 38.933594 260.988281 C 38.628906 263.648438 38.800781 266.273438 39.453125 268.871094 C 44.816406 271.921875 49.949219 275.324219 54.84375 279.082031 C 59.113281 282.367188 67.570312 288.878906 74.230469 297.453125 C 78.519531 302.953125 86.707031 315.285156 89.109375 335.464844 C 91.65625 344.378906 95.675781 350.378906 98.417969 353.824219 C 100.320312 356.210938 105.199219 360.117188 114.960938 367.921875 C 114.960938 367.921875 121.621094 373.230469 130.613281 376.96875 C 131.621094 377.386719 133.453125 378.101562 135.820312 378 C 138.628906 377.886719 140.722656 376.71875 142.070312 375.9375 C 145.0625 374.21875 145.671875 372.835938 147.835938 371.113281 C 149.671875 369.675781 152.570312 368 157.199219 367.308594 C 159.523438 363.390625 161.300781 360.390625 163.257812 357.0625 C 165.21875 353.730469 166.949219 350.765625 170.222656 347.878906 C 170.902344 347.277344 171.503906 346.8125 171.910156 346.507812 C 172.226562 346.707031 172.46875 346.976562 172.636719 347.3125 C 172.804688 347.648438 172.871094 348.003906 172.839844 348.375 C 172.816406 350.175781 172.941406 356.550781 173.496094 359.519531 C 173.722656 360.753906 174.253906 362.578125 175.601562 364.683594 C 178.953125 364.726562 182.175781 365.402344 185.261719 366.710938 C 187.0625 367.480469 192.316406 369.800781 195.996094 375.464844 C 197.0625 377.101562 197.894531 378.855469 198.488281 380.71875 C 199.242188 381.671875 200.132812 382.476562 201.160156 383.128906 C 202.125 383.730469 202.644531 383.84375 203.539062 384.421875 C 204.589844 385.125 205.464844 386.003906 206.164062 387.058594 C 206.222656 387.3125 206.230469 387.570312 206.199219 387.828125 C 206.15625 388.203125 206.027344 388.546875 205.816406 388.859375 C 205.859375 389.449219 205.863281 390.035156 205.828125 390.625 C 205.757812 391.804688 205.578125 394.792969 203.730469 396.875 C 202.722656 398.019531 201.964844 398.871094 201.421875 399.210938 C 201.183594 399.355469 200.996094 399.546875 200.855469 399.789062 C 200.726562 399.992188 200.660156 400.214844 200.664062 400.457031 C 200.664062 400.765625 200.765625 401.039062 200.957031 401.28125 C 205.375 403.46875 211.023438 406.070312 217.761719 408.644531 C 223.039062 410.667969 229.640625 413.195312 238.507812 415.246094 C 250.554688 418.03125 256.582031 419.421875 260.046875 419.117188 C 260.046875 419.117188 265.539062 418.652344 271.675781 421.539062 C 272.050781 421.722656 272.832031 422.117188 273.136719 422.898438 C 273.839844 424.734375 271.449219 427.179688 270.804688 427.847656 C 266.796875 431.980469 259.964844 432.175781 257.609375 432.207031 C 246.332031 432.402344 238.460938 431.1875 229.878906 430.273438 C 219.402344 429.160156 219.824219 429.75 206.800781 428.425781 C 198.136719 427.554688 191.082031 426.589844 186.4375 425.910156 C 169.941406 426.273438 155.128906 426.433594 142.308594 426.488281 C 124.8125 426.570312 118.121094 426.410156 108.949219 424.359375 C 101.90625 422.773438 91.714844 420.5 80.832031 413.5 C 71.207031 407.304688 69.144531 402.652344 50.574219 387.117188 C 46.542969 383.742188 43.179688 381.070312 41.039062 379.390625 C 40.027344 379.667969 39.121094 380.144531 38.320312 380.820312 C 35.355469 383.332031 35.476562 387.703125 35.546875 390.160156 C 35.648438 394.136719 36.960938 397.214844 37.710938 398.914062 C 38.773438 401.359375 39.40625 401.804688 40.515625 404.351562 C 41.527344 406.660156 42.230469 409.0625 42.625 411.554688 Z M 42.625 411.554688 " fill-opacity="1" fill-rule="nonzero"/></g><g fill="#ffffff" fill-opacity="1"><g transform="translate(93.130384, 318.425053)"><g><path d="M 44.859375 -48.109375 L 79.734375 -0.625 L 79.734375 0 L 64.109375 0 L 36.234375 -38.859375 L 21 -22.75 L 21 0 L 8.125 0 L 8.125 -83.109375 L 21 -83.109375 L 21 -39.109375 L 60.984375 -83.109375 L 77.859375 -83.109375 Z M 44.859375 -48.109375 "/></g></g></g><g fill="#ffffff" fill-opacity="1"><g transform="translate(172.223595, 318.425053)"><g><path d="M 7.125 -71.859375 L 7.125 -83.109375 L 22.875 -83.109375 L 22.875 -71.859375 Z M 8.75 0 L 8.75 -62.484375 L 21.25 -62.484375 L 21.25 0 Z M 8.75 0 "/></g></g></g><g fill="#ffffff" fill-opacity="1"><g transform="translate(195.963484, 318.425053)"><g><path d="M 32.859375 0 C 27.867188 0 24 -0.664062 21.25 -2 C 18.5 -3.332031 16.601562 -5.351562 15.5625 -8.0625 C 14.519531 -10.769531 14 -14.207031 14 -18.375 L 14 -52.859375 L 2.125 -52.859375 L 2.125 -59.359375 L 15.125 -63.859375 L 20.25 -76.609375 L 26.5 -76.609375 L 26.5 -62.484375 L 46.484375 -62.484375 L 46.484375 -52.859375 L 26.5 -52.859375 L 26.5 -10 L 45.234375 -10 L 45.234375 0 Z M 32.859375 0 "/></g></g></g><g fill="#ffffff" fill-opacity="1"><g transform="translate(239.695548, 318.425053)"><g><path d="M 32.859375 0 C 27.867188 0 24 -0.664062 21.25 -2 C 18.5 -3.332031 16.601562 -5.351562 15.5625 -8.0625 C 14.519531 -10.769531 14 -14.207031 14 -18.375 L 14 -52.859375 L 2.125 -52.859375 L 2.125 -59.359375 L 15.125 -63.859375 L 20.25 -76.609375 L 26.5 -76.609375 L 26.5 -62.484375 L 46.484375 -62.484375 L 46.484375 -52.859375 L 26.5 -52.859375 L 26.5 -10 L 45.234375 -10 L 45.234375 0 Z M 32.859375 0 "/></g></g></g><g fill="#ffffff" fill-opacity="1"><g transform="translate(283.427612, 318.425053)"><g><path d="M 55.109375 -62.484375 L 67.234375 -62.484375 L 41.109375 5.5 C 39.441406 9.914062 37.773438 13.5625 36.109375 16.4375 C 34.441406 19.3125 32.234375 21.457031 29.484375 22.875 C 26.742188 24.289062 22.832031 25 17.75 25 L 7 25 L 7 15 L 25.5 15 L 31.359375 0 L 26.875 0 L 3.25 -62.484375 L 16.125 -62.484375 L 32.984375 -17.875 L 35.609375 -10.375 L 37.984375 -17.875 Z M 55.109375 -62.484375 "/></g></g></g><g fill="#ffffff" fill-opacity="1"><g transform="translate(347.276784, 318.425053)"><g><path d="M 6 -27.875 L 18.5 -27.875 C 18.664062 -21.539062 20.664062 -16.644531 24.5 -13.1875 C 28.332031 -9.726562 34.328125 -8 42.484375 -8 C 48.066406 -8 52.359375 -8.601562 55.359375 -9.8125 C 58.359375 -11.019531 60.421875 -12.6875 61.546875 -14.8125 C 62.671875 -16.9375 63.234375 -19.414062 63.234375 -22.25 C 63.234375 -29.820312 58.566406 -34.273438 49.234375 -35.609375 L 30 -38.359375 C 15.664062 -40.359375 8.5 -47.816406 8.5 -60.734375 C 8.5 -65.398438 9.664062 -69.585938 12 -73.296875 C 14.332031 -77.003906 17.894531 -79.941406 22.6875 -82.109375 C 27.476562 -84.273438 33.578125 -85.359375 40.984375 -85.359375 C 48.816406 -85.359375 55.191406 -84.171875 60.109375 -81.796875 C 65.023438 -79.421875 68.710938 -76.234375 71.171875 -72.234375 C 73.628906 -68.234375 75.023438 -63.734375 75.359375 -58.734375 L 62.859375 -58.734375 C 62.273438 -63.734375 60.234375 -67.753906 56.734375 -70.796875 C 53.234375 -73.835938 47.941406 -75.359375 40.859375 -75.359375 C 34.117188 -75.359375 29.207031 -74.023438 26.125 -71.359375 C 23.039062 -68.691406 21.5 -65.273438 21.5 -61.109375 C 21.5 -58.023438 22.394531 -55.441406 24.1875 -53.359375 C 25.976562 -51.273438 28.785156 -49.941406 32.609375 -49.359375 L 52.984375 -46.359375 C 60.234375 -45.273438 65.921875 -42.984375 70.046875 -39.484375 C 74.171875 -35.984375 76.234375 -30.78125 76.234375 -23.875 C 76.234375 -15.707031 73.585938 -9.351562 68.296875 -4.8125 C 63.003906 -0.269531 54.398438 2 42.484375 2 C 33.410156 2 26.207031 0.601562 20.875 -2.1875 C 15.539062 -4.976562 11.726562 -8.664062 9.4375 -13.25 C 7.144531 -17.832031 6 -22.707031 6 -27.875 Z M 6 -27.875 "/></g></g></g><g fill="#ffffff" fill-opacity="1"><g transform="translate(423.496114, 318.425053)"><g><path d="M 37.734375 -7.25 C 43.398438 -7.25 47.628906 -8.375 50.421875 -10.625 C 53.210938 -12.875 55.023438 -15.625 55.859375 -18.875 L 67.359375 -18.875 C 67.109375 -16.707031 66.421875 -14.414062 65.296875 -12 C 64.171875 -9.582031 62.460938 -7.3125 60.171875 -5.1875 C 57.878906 -3.0625 54.878906 -1.332031 51.171875 0 C 47.460938 1.332031 42.859375 2 37.359375 2 C 29.953125 2 23.914062 0.5 19.25 -2.5 C 14.582031 -5.5 11.164062 -9.519531 9 -14.5625 C 6.832031 -19.601562 5.75 -25.203125 5.75 -31.359375 C 5.75 -37.441406 6.894531 -42.984375 9.1875 -47.984375 C 11.476562 -52.984375 14.976562 -56.984375 19.6875 -59.984375 C 24.394531 -62.984375 30.285156 -64.484375 37.359375 -64.484375 C 44.023438 -64.484375 49.585938 -63.066406 54.046875 -60.234375 C 58.503906 -57.398438 61.859375 -53.566406 64.109375 -48.734375 C 66.359375 -43.898438 67.484375 -38.484375 67.484375 -32.484375 C 67.484375 -31.660156 67.484375 -30.875 67.484375 -30.125 C 67.484375 -29.375 67.398438 -28.582031 67.234375 -27.75 L 18 -27.75 C 18.332031 -22.5 19.394531 -18.394531 21.1875 -15.4375 C 22.976562 -12.476562 25.285156 -10.375 28.109375 -9.125 C 30.941406 -7.875 34.148438 -7.25 37.734375 -7.25 Z M 37.484375 -55.234375 C 32.160156 -55.234375 27.789062 -53.898438 24.375 -51.234375 C 20.957031 -48.566406 18.875 -43.773438 18.125 -36.859375 L 55.484375 -36.859375 C 55.148438 -43.191406 53.460938 -47.835938 50.421875 -50.796875 C 47.378906 -53.753906 43.066406 -55.234375 37.484375 -55.234375 Z M 37.484375 -55.234375 "/></g></g></g><g fill="#ffffff" fill-opacity="1"><g transform="translate(489.96927, 318.425053)"><g><path d="M 5.75 -31.25 C 5.75 -37.488281 6.957031 -43.109375 9.375 -48.109375 C 11.789062 -53.109375 15.375 -57.085938 20.125 -60.046875 C 24.875 -63.003906 30.742188 -64.484375 37.734375 -64.484375 C 44.234375 -64.484375 49.671875 -63.378906 54.046875 -61.171875 C 58.421875 -58.960938 61.753906 -55.960938 64.046875 -52.171875 C 66.335938 -48.378906 67.566406 -44.023438 67.734375 -39.109375 L 55.984375 -39.109375 C 55.484375 -43.273438 53.878906 -46.878906 51.171875 -49.921875 C 48.460938 -52.960938 44.148438 -54.484375 38.234375 -54.484375 C 32.160156 -54.484375 27.332031 -52.753906 23.75 -49.296875 C 20.164062 -45.835938 18.375 -39.820312 18.375 -31.25 C 18.375 -22.5 20.125 -16.4375 23.625 -13.0625 C 27.125 -9.6875 31.910156 -8 37.984375 -8 C 44.066406 -8 48.546875 -9.582031 51.421875 -12.75 C 54.296875 -15.914062 56.023438 -19.707031 56.609375 -24.125 L 68.359375 -24.125 C 68.191406 -19.539062 66.960938 -15.25 64.671875 -11.25 C 62.378906 -7.25 59.003906 -4.039062 54.546875 -1.625 C 50.085938 0.789062 44.566406 2 37.984375 2 C 30.992188 2 25.101562 0.519531 20.3125 -2.4375 C 15.519531 -5.394531 11.894531 -9.394531 9.4375 -14.4375 C 6.976562 -19.476562 5.75 -25.082031 5.75 -31.25 Z M 5.75 -31.25 "/></g></g></g><g fill="#ffffff" fill-opacity="1"><g transform="translate(557.067172, 318.425053)"><g><path d="M 52.859375 -62.484375 L 65.359375 -62.484375 L 65.359375 0 L 52.859375 0 L 52.859375 -13.625 C 51.023438 -9.039062 48.359375 -5.289062 44.859375 -2.375 C 41.359375 0.539062 36.65625 2 30.75 2 C 22.414062 2 16.457031 -0.207031 12.875 -4.625 C 9.289062 -9.039062 7.5 -15.332031 7.5 -23.5 L 7.5 -62.484375 L 20 -62.484375 L 20 -24.625 C 20 -20.289062 20.644531 -16.9375 21.9375 -14.5625 C 23.226562 -12.1875 24.976562 -10.5625 27.1875 -9.6875 C 29.394531 -8.8125 31.867188 -8.375 34.609375 -8.375 C 40.191406 -8.375 44.628906 -10.664062 47.921875 -15.25 C 51.210938 -19.832031 52.859375 -26.785156 52.859375 -36.109375 Z M 52.859375 -62.484375 "/></g></g></g><g fill="#ffffff" fill-opacity="1"><g transform="translate(624.914769, 318.425053)"><g><path d="M 43.234375 -63.484375 L 45.109375 -63.484375 L 45.109375 -51.359375 L 41.984375 -51.359375 C 36.398438 -51.359375 32.109375 -50.253906 29.109375 -48.046875 C 26.117188 -45.835938 24.0625 -42.671875 22.9375 -38.546875 C 21.8125 -34.421875 21.25 -29.53125 21.25 -23.875 L 21.25 0 L 8.75 0 L 8.75 -62.484375 L 21.125 -62.484375 L 21.125 -47.359375 C 23.039062 -52.023438 25.742188 -55.878906 29.234375 -58.921875 C 32.734375 -61.960938 37.398438 -63.484375 43.234375 -63.484375 Z M 43.234375 -63.484375 "/></g></g></g><g fill="#ffffff" fill-opacity="1"><g transform="translate(667.647206, 318.425053)"><g><path d="M 7.125 -71.859375 L 7.125 -83.109375 L 22.875 -83.109375 L 22.875 -71.859375 Z M 8.75 0 L 8.75 -62.484375 L 21.25 -62.484375 L 21.25 0 Z M 8.75 0 "/></g></g></g><g fill="#ffffff" fill-opacity="1"><g transform="translate(691.387095, 318.425053)"><g><path d="M 32.859375 0 C 27.867188 0 24 -0.664062 21.25 -2 C 18.5 -3.332031 16.601562 -5.351562 15.5625 -8.0625 C 14.519531 -10.769531 14 -14.207031 14 -18.375 L 14 -52.859375 L 2.125 -52.859375 L 2.125 -59.359375 L 15.125 -63.859375 L 20.25 -76.609375 L 26.5 -76.609375 L 26.5 -62.484375 L 46.484375 -62.484375 L 46.484375 -52.859375 L 26.5 -52.859375 L 26.5 -10 L 45.234375 -10 L 45.234375 0 Z M 32.859375 0 "/></g></g></g><g fill="#ffffff" fill-opacity="1"><g transform="translate(735.119192, 318.425053)"><g><path d="M 55.109375 -62.484375 L 67.234375 -62.484375 L 41.109375 5.5 C 39.441406 9.914062 37.773438 13.5625 36.109375 16.4375 C 34.441406 19.3125 32.234375 21.457031 29.484375 22.875 C 26.742188 24.289062 22.832031 25 17.75 25 L 7 25 L 7 15 L 25.5 15 L 31.359375 0 L 26.875 0 L 3.25 -62.484375 L 16.125 -62.484375 L 32.984375 -17.875 L 35.609375 -10.375 L 37.984375 -17.875 Z M 55.109375 -62.484375 "/></g></g></g><g fill="#ffffff" fill-opacity="1"><g transform="translate(288.958055, 411.706618)"><g><path d="M 23.25 -40.796875 C 26.269531 -40.796875 28.710938 -40.222656 30.578125 -39.078125 C 32.441406 -37.929688 33.800781 -36.414062 34.65625 -34.53125 C 35.519531 -32.65625 35.953125 -30.632812 35.953125 -28.46875 C 35.953125 -26.257812 35.519531 -24.210938 34.65625 -22.328125 C 33.800781 -20.441406 32.441406 -18.925781 30.578125 -17.78125 C 28.710938 -16.644531 26.269531 -16.078125 23.25 -16.078125 L 10.359375 -16.078125 L 10.359375 0 L 3.984375 0 L 3.984375 -40.796875 Z M 21.71875 -21.15625 C 24.625 -21.15625 26.617188 -21.847656 27.703125 -23.234375 C 28.785156 -24.628906 29.328125 -26.375 29.328125 -28.46875 C 29.328125 -30.550781 28.785156 -32.273438 27.703125 -33.640625 C 26.617188 -35.015625 24.625 -35.703125 21.71875 -35.703125 L 10.359375 -35.703125 L 10.359375 -21.15625 Z M 21.71875 -21.15625 "/></g></g></g><g fill="#ffffff" fill-opacity="1"><g transform="translate(322.762728, 411.706618)"><g><path d="M 13.5625 0.796875 C 10.445312 0.796875 7.96875 0 6.125 -1.59375 C 4.289062 -3.1875 3.375 -5.394531 3.375 -8.21875 C 3.375 -10.675781 4.066406 -12.691406 5.453125 -14.265625 C 6.847656 -15.835938 9.265625 -16.910156 12.703125 -17.484375 L 20.359375 -18.765625 C 21.835938 -19.015625 22.921875 -19.40625 23.609375 -19.9375 C 24.304688 -20.46875 24.65625 -21.265625 24.65625 -22.328125 C 24.65625 -23.722656 24.195312 -24.847656 23.28125 -25.703125 C 22.363281 -26.554688 20.570312 -26.984375 17.90625 -26.984375 C 15.414062 -26.984375 13.546875 -26.484375 12.296875 -25.484375 C 11.046875 -24.484375 10.34375 -23.023438 10.1875 -21.109375 L 4.046875 -21.109375 C 4.085938 -24.378906 5.285156 -26.960938 7.640625 -28.859375 C 9.992188 -30.765625 13.335938 -31.71875 17.671875 -31.71875 C 21.921875 -31.71875 25.085938 -30.835938 27.171875 -29.078125 C 29.253906 -27.316406 30.296875 -25.023438 30.296875 -22.203125 L 30.296875 -7 C 30.296875 -5.851562 30.316406 -4.753906 30.359375 -3.703125 C 30.398438 -2.660156 30.484375 -1.425781 30.609375 0 L 25.03125 0 C 24.90625 -1.1875 24.8125 -2.332031 24.75 -3.4375 C 24.6875 -4.539062 24.65625 -5.707031 24.65625 -6.9375 C 24.25 -5.664062 23.582031 -4.4375 22.65625 -3.25 C 21.738281 -2.0625 20.535156 -1.085938 19.046875 -0.328125 C 17.554688 0.421875 15.726562 0.796875 13.5625 0.796875 Z M 14.84375 -3.921875 C 17.007812 -3.921875 18.816406 -4.410156 20.265625 -5.390625 C 21.722656 -6.378906 22.816406 -7.703125 23.546875 -9.359375 C 24.285156 -11.015625 24.65625 -12.863281 24.65625 -14.90625 L 24.65625 -16.75 C 23.84375 -16.132812 22.960938 -15.671875 22.015625 -15.359375 C 21.078125 -15.054688 20.140625 -14.800781 19.203125 -14.59375 L 14.96875 -13.625 C 13.082031 -13.207031 11.703125 -12.597656 10.828125 -11.796875 C 9.953125 -11.003906 9.515625 -9.894531 9.515625 -8.46875 C 9.515625 -6.988281 10.003906 -5.859375 10.984375 -5.078125 C 11.960938 -4.304688 13.25 -3.921875 14.84375 -3.921875 Z M 14.84375 -3.921875 "/></g></g></g><g fill="#ffffff" fill-opacity="1"><g transform="translate(352.21145, 411.706618)"><g><path d="M 2.078125 -10.25 L 7.796875 -10.25 C 7.910156 -8.363281 8.640625 -6.773438 9.984375 -5.484375 C 11.335938 -4.203125 13.507812 -3.5625 16.5 -3.5625 C 19.238281 -3.5625 21.054688 -4 21.953125 -4.875 C 22.859375 -5.757812 23.3125 -6.894531 23.3125 -8.28125 C 23.3125 -9.550781 22.941406 -10.539062 22.203125 -11.25 C 21.472656 -11.96875 20.289062 -12.453125 18.65625 -12.703125 L 11.046875 -13.859375 C 8.378906 -14.273438 6.34375 -15.195312 4.9375 -16.625 C 3.53125 -18.050781 2.828125 -19.929688 2.828125 -22.265625 C 2.828125 -25.210938 3.945312 -27.523438 6.1875 -29.203125 C 8.4375 -30.878906 11.566406 -31.71875 15.578125 -31.71875 C 19.546875 -31.71875 22.695312 -30.816406 25.03125 -29.015625 C 27.363281 -27.210938 28.628906 -24.863281 28.828125 -21.96875 L 22.703125 -21.96875 C 22.535156 -23.394531 21.867188 -24.617188 20.703125 -25.640625 C 19.535156 -26.660156 17.765625 -27.171875 15.390625 -27.171875 C 13.023438 -27.171875 11.328125 -26.75 10.296875 -25.90625 C 9.273438 -25.070312 8.765625 -24.039062 8.765625 -22.8125 C 8.765625 -21.914062 9.0625 -21.109375 9.65625 -20.390625 C 10.25 -19.679688 11.363281 -19.203125 13 -18.953125 L 19.625 -17.96875 C 22.164062 -17.601562 24.140625 -16.976562 25.546875 -16.09375 C 26.960938 -15.21875 27.945312 -14.144531 28.5 -12.875 C 29.050781 -11.613281 29.328125 -10.1875 29.328125 -8.59375 C 29.328125 -5.4375 28.269531 -3.050781 26.15625 -1.4375 C 24.050781 0.175781 20.769531 0.984375 16.3125 0.984375 C 12.957031 0.984375 10.226562 0.484375 8.125 -0.515625 C 6.019531 -1.523438 4.484375 -2.875 3.515625 -4.5625 C 2.554688 -6.257812 2.078125 -8.15625 2.078125 -10.25 Z M 2.078125 -10.25 "/></g></g></g><g fill="#ffffff" fill-opacity="1"><g transform="translate(379.267456, 411.706618)"><g><path d="M 2.078125 -10.25 L 7.796875 -10.25 C 7.910156 -8.363281 8.640625 -6.773438 9.984375 -5.484375 C 11.335938 -4.203125 13.507812 -3.5625 16.5 -3.5625 C 19.238281 -3.5625 21.054688 -4 21.953125 -4.875 C 22.859375 -5.757812 23.3125 -6.894531 23.3125 -8.28125 C 23.3125 -9.550781 22.941406 -10.539062 22.203125 -11.25 C 21.472656 -11.96875 20.289062 -12.453125 18.65625 -12.703125 L 11.046875 -13.859375 C 8.378906 -14.273438 6.34375 -15.195312 4.9375 -16.625 C 3.53125 -18.050781 2.828125 -19.929688 2.828125 -22.265625 C 2.828125 -25.210938 3.945312 -27.523438 6.1875 -29.203125 C 8.4375 -30.878906 11.566406 -31.71875 15.578125 -31.71875 C 19.546875 -31.71875 22.695312 -30.816406 25.03125 -29.015625 C 27.363281 -27.210938 28.628906 -24.863281 28.828125 -21.96875 L 22.703125 -21.96875 C 22.535156 -23.394531 21.867188 -24.617188 20.703125 -25.640625 C 19.535156 -26.660156 17.765625 -27.171875 15.390625 -27.171875 C 13.023438 -27.171875 11.328125 -26.75 10.296875 -25.90625 C 9.273438 -25.070312 8.765625 -24.039062 8.765625 -22.8125 C 8.765625 -21.914062 9.0625 -21.109375 9.65625 -20.390625 C 10.25 -19.679688 11.363281 -19.203125 13 -18.953125 L 19.625 -17.96875 C 22.164062 -17.601562 24.140625 -16.976562 25.546875 -16.09375 C 26.960938 -15.21875 27.945312 -14.144531 28.5 -12.875 C 29.050781 -11.613281 29.328125 -10.1875 29.328125 -8.59375 C 29.328125 -5.4375 28.269531 -3.050781 26.15625 -1.4375 C 24.050781 0.175781 20.769531 0.984375 16.3125 0.984375 C 12.957031 0.984375 10.226562 0.484375 8.125 -0.515625 C 6.019531 -1.523438 4.484375 -2.875 3.515625 -4.5625 C 2.554688 -6.257812 2.078125 -8.15625 2.078125 -10.25 Z M 2.078125 -10.25 "/></g></g></g><g fill="#ffffff" fill-opacity="1"><g transform="translate(406.323466, 411.706618)"><g><path d="M 46.75 -30.671875 L 52.6875 -30.671875 L 43.5 0 L 34.78125 0 L 27.109375 -23.3125 L 19.453125 0 L 10.734375 0 L 1.53125 -30.671875 L 7.859375 -30.671875 L 15.390625 -4.59375 L 24.234375 -30.671875 L 30.359375 -30.671875 L 39.203125 -4.59375 Z M 46.75 -30.671875 "/></g></g></g><g fill="#ffffff" fill-opacity="1"><g transform="translate(455.956813, 411.706618)"><g><path d="M 18.65625 0.984375 C 15.09375 0.984375 12.132812 0.25 9.78125 -1.21875 C 7.425781 -2.695312 5.675781 -4.671875 4.53125 -7.140625 C 3.394531 -9.617188 2.828125 -12.367188 2.828125 -15.390625 C 2.828125 -18.378906 3.394531 -21.097656 4.53125 -23.546875 C 5.675781 -26.003906 7.425781 -27.96875 9.78125 -29.4375 C 12.132812 -30.914062 15.09375 -31.65625 18.65625 -31.65625 C 22.207031 -31.65625 25.148438 -30.914062 27.484375 -29.4375 C 29.816406 -27.96875 31.5625 -26.003906 32.71875 -23.546875 C 33.882812 -21.097656 34.46875 -18.378906 34.46875 -15.390625 C 34.46875 -12.410156 33.882812 -9.671875 32.71875 -7.171875 C 31.5625 -4.679688 29.816406 -2.695312 27.484375 -1.21875 C 25.148438 0.25 22.207031 0.984375 18.65625 0.984375 Z M 9.015625 -15.328125 C 9.015625 -11.242188 9.789062 -8.320312 11.34375 -6.5625 C 12.894531 -4.800781 15.332031 -3.921875 18.65625 -3.921875 C 21.96875 -3.921875 24.398438 -4.800781 25.953125 -6.5625 C 27.503906 -8.320312 28.28125 -11.242188 28.28125 -15.328125 C 28.28125 -19.421875 27.503906 -22.347656 25.953125 -24.109375 C 24.398438 -25.867188 21.96875 -26.75 18.65625 -26.75 C 15.332031 -26.75 12.894531 -25.867188 11.34375 -24.109375 C 9.789062 -22.347656 9.015625 -19.421875 9.015625 -15.328125 Z M 9.015625 -15.328125 "/></g></g></g><g fill="#ffffff" fill-opacity="1"><g transform="translate(488.657157, 411.706618)"><g><path d="M 21.21875 -31.15625 L 22.140625 -31.15625 L 22.140625 -25.21875 L 20.609375 -25.21875 C 17.867188 -25.21875 15.757812 -24.675781 14.28125 -23.59375 C 12.8125 -22.507812 11.800781 -20.953125 11.25 -18.921875 C 10.695312 -16.898438 10.421875 -14.5 10.421875 -11.71875 L 10.421875 0 L 4.296875 0 L 4.296875 -30.671875 L 10.359375 -30.671875 L 10.359375 -23.25 C 11.304688 -25.539062 12.640625 -27.429688 14.359375 -28.921875 C 16.078125 -30.410156 18.363281 -31.15625 21.21875 -31.15625 Z M 21.21875 -31.15625 "/></g></g></g><g fill="#ffffff" fill-opacity="1"><g transform="translate(508.105577, 411.706618)"><g><path d="M 28.46875 -42.9375 L 34.59375 -42.9375 L 34.59375 0 L 28.46875 0 L 28.46875 -5.28125 C 27.445312 -3.269531 25.992188 -1.722656 24.109375 -0.640625 C 22.222656 0.441406 19.890625 0.984375 17.109375 0.984375 C 13.835938 0.984375 11.140625 0.25 9.015625 -1.21875 C 6.890625 -2.695312 5.328125 -4.671875 4.328125 -7.140625 C 3.328125 -9.617188 2.828125 -12.347656 2.828125 -15.328125 C 2.828125 -18.359375 3.328125 -21.097656 4.328125 -23.546875 C 5.328125 -26.003906 6.890625 -27.96875 9.015625 -29.4375 C 11.140625 -30.914062 13.835938 -31.65625 17.109375 -31.65625 C 19.890625 -31.65625 22.222656 -31.113281 24.109375 -30.03125 C 25.992188 -28.945312 27.445312 -27.398438 28.46875 -25.390625 Z M 18.40625 -3.921875 C 21.632812 -3.921875 24.117188 -4.84375 25.859375 -6.6875 C 27.597656 -8.53125 28.46875 -11.410156 28.46875 -15.328125 C 28.46875 -19.253906 27.597656 -22.140625 25.859375 -23.984375 C 24.117188 -25.828125 21.632812 -26.75 18.40625 -26.75 C 15.007812 -26.75 12.59375 -25.796875 11.15625 -23.890625 C 9.726562 -21.992188 9.015625 -19.140625 9.015625 -15.328125 C 9.015625 -11.523438 9.726562 -8.671875 11.15625 -6.765625 C 12.59375 -4.867188 15.007812 -3.921875 18.40625 -3.921875 Z M 18.40625 -3.921875 "/></g></g></g><g fill="#ffffff" fill-opacity="1"><g transform="translate(542.278343, 411.706618)"><g/></g></g><g fill="#ffffff" fill-opacity="1"><g transform="translate(552.769453, 411.706618)"><g><path d="M 50 -40.796875 L 50 0 L 43.671875 0 L 43.671875 -35.890625 L 31.15625 0 L 22.8125 0 L 10.3125 -35.890625 L 10.3125 0 L 3.984375 0 L 3.984375 -40.796875 L 14.96875 -40.796875 L 27.046875 -6.140625 L 39.140625 -40.796875 Z M 50 -40.796875 "/></g></g></g><g fill="#ffffff" fill-opacity="1"><g transform="translate(602.157382, 411.706618)"><g><path d="M 13.5625 0.796875 C 10.445312 0.796875 7.96875 0 6.125 -1.59375 C 4.289062 -3.1875 3.375 -5.394531 3.375 -8.21875 C 3.375 -10.675781 4.066406 -12.691406 5.453125 -14.265625 C 6.847656 -15.835938 9.265625 -16.910156 12.703125 -17.484375 L 20.359375 -18.765625 C 21.835938 -19.015625 22.921875 -19.40625 23.609375 -19.9375 C 24.304688 -20.46875 24.65625 -21.265625 24.65625 -22.328125 C 24.65625 -23.722656 24.195312 -24.847656 23.28125 -25.703125 C 22.363281 -26.554688 20.570312 -26.984375 17.90625 -26.984375 C 15.414062 -26.984375 13.546875 -26.484375 12.296875 -25.484375 C 11.046875 -24.484375 10.34375 -23.023438 10.1875 -21.109375 L 4.046875 -21.109375 C 4.085938 -24.378906 5.285156 -26.960938 7.640625 -28.859375 C 9.992188 -30.765625 13.335938 -31.71875 17.671875 -31.71875 C 21.921875 -31.71875 25.085938 -30.835938 27.171875 -29.078125 C 29.253906 -27.316406 30.296875 -25.023438 30.296875 -22.203125 L 30.296875 -7 C 30.296875 -5.851562 30.316406 -4.753906 30.359375 -3.703125 C 30.398438 -2.660156 30.484375 -1.425781 30.609375 0 L 25.03125 0 C 24.90625 -1.1875 24.8125 -2.332031 24.75 -3.4375 C 24.6875 -4.539062 24.65625 -5.707031 24.65625 -6.9375 C 24.25 -5.664062 23.582031 -4.4375 22.65625 -3.25 C 21.738281 -2.0625 20.535156 -1.085938 19.046875 -0.328125 C 17.554688 0.421875 15.726562 0.796875 13.5625 0.796875 Z M 14.84375 -3.921875 C 17.007812 -3.921875 18.816406 -4.410156 20.265625 -5.390625 C 21.722656 -6.378906 22.816406 -7.703125 23.546875 -9.359375 C 24.285156 -11.015625 24.65625 -12.863281 24.65625 -14.90625 L 24.65625 -16.75 C 23.84375 -16.132812 22.960938 -15.671875 22.015625 -15.359375 C 21.078125 -15.054688 20.140625 -14.800781 19.203125 -14.59375 L 14.96875 -13.625 C 13.082031 -13.207031 11.703125 -12.597656 10.828125 -11.796875 C 9.953125 -11.003906 9.515625 -9.894531 9.515625 -8.46875 C 9.515625 -6.988281 10.003906 -5.859375 10.984375 -5.078125 C 11.960938 -4.304688 13.25 -3.921875 14.84375 -3.921875 Z M 14.84375 -3.921875 "/></g></g></g><g fill="#ffffff" fill-opacity="1"><g transform="translate(631.606117, 411.706618)"><g><path d="M 21.53125 -31.65625 C 25.625 -31.65625 28.507812 -30.570312 30.1875 -28.40625 C 31.863281 -26.238281 32.703125 -23.148438 32.703125 -19.140625 L 32.703125 0 L 26.5625 0 L 26.5625 -18.59375 C 26.5625 -20.757812 26.265625 -22.414062 25.671875 -23.5625 C 25.078125 -24.707031 24.269531 -25.492188 23.25 -25.921875 C 22.226562 -26.347656 21.0625 -26.5625 19.75 -26.5625 C 16.769531 -26.5625 14.46875 -25.507812 12.84375 -23.40625 C 11.226562 -21.300781 10.421875 -17.8125 10.421875 -12.9375 L 10.421875 0 L 4.296875 0 L 4.296875 -30.671875 L 10.421875 -30.671875 L 10.421875 -23.796875 C 11.367188 -26.085938 12.71875 -27.96875 14.46875 -29.4375 C 16.226562 -30.914062 18.582031 -31.65625 21.53125 -31.65625 Z M 21.53125 -31.65625 "/></g></g></g><g fill="#ffffff" fill-opacity="1"><g transform="translate(663.386169, 411.706618)"><g><path d="M 13.5625 0.796875 C 10.445312 0.796875 7.96875 0 6.125 -1.59375 C 4.289062 -3.1875 3.375 -5.394531 3.375 -8.21875 C 3.375 -10.675781 4.066406 -12.691406 5.453125 -14.265625 C 6.847656 -15.835938 9.265625 -16.910156 12.703125 -17.484375 L 20.359375 -18.765625 C 21.835938 -19.015625 22.921875 -19.40625 23.609375 -19.9375 C 24.304688 -20.46875 24.65625 -21.265625 24.65625 -22.328125 C 24.65625 -23.722656 24.195312 -24.847656 23.28125 -25.703125 C 22.363281 -26.554688 20.570312 -26.984375 17.90625 -26.984375 C 15.414062 -26.984375 13.546875 -26.484375 12.296875 -25.484375 C 11.046875 -24.484375 10.34375 -23.023438 10.1875 -21.109375 L 4.046875 -21.109375 C 4.085938 -24.378906 5.285156 -26.960938 7.640625 -28.859375 C 9.992188 -30.765625 13.335938 -31.71875 17.671875 -31.71875 C 21.921875 -31.71875 25.085938 -30.835938 27.171875 -29.078125 C 29.253906 -27.316406 30.296875 -25.023438 30.296875 -22.203125 L 30.296875 -7 C 30.296875 -5.851562 30.316406 -4.753906 30.359375 -3.703125 C 30.398438 -2.660156 30.484375 -1.425781 30.609375 0 L 25.03125 0 C 24.90625 -1.1875 24.8125 -2.332031 24.75 -3.4375 C 24.6875 -4.539062 24.65625 -5.707031 24.65625 -6.9375 C 24.25 -5.664062 23.582031 -4.4375 22.65625 -3.25 C 21.738281 -2.0625 20.535156 -1.085938 19.046875 -0.328125 C 17.554688 0.421875 15.726562 0.796875 13.5625 0.796875 Z M 14.84375 -3.921875 C 17.007812 -3.921875 18.816406 -4.410156 20.265625 -5.390625 C 21.722656 -6.378906 22.816406 -7.703125 23.546875 -9.359375 C 24.285156 -11.015625 24.65625 -12.863281 24.65625 -14.90625 L 24.65625 -16.75 C 23.84375 -16.132812 22.960938 -15.671875 22.015625 -15.359375 C 21.078125 -15.054688 20.140625 -14.800781 19.203125 -14.59375 L 14.96875 -13.625 C 13.082031 -13.207031 11.703125 -12.597656 10.828125 -11.796875 C 9.953125 -11.003906 9.515625 -9.894531 9.515625 -8.46875 C 9.515625 -6.988281 10.003906 -5.859375 10.984375 -5.078125 C 11.960938 -4.304688 13.25 -3.921875 14.84375 -3.921875 Z M 14.84375 -3.921875 "/></g></g></g><g fill="#ffffff" fill-opacity="1"><g transform="translate(692.834904, 411.706618)"><g><path d="M 28.28125 -30.671875 L 34.40625 -30.671875 L 34.40625 -0.125 C 34.40625 4.050781 33.207031 7.269531 30.8125 9.53125 C 28.425781 11.800781 24.375 12.9375 18.65625 12.9375 C 13.988281 12.9375 10.34375 11.972656 7.71875 10.046875 C 5.101562 8.128906 3.65625 5.332031 3.375 1.65625 L 9.515625 1.65625 C 9.710938 3.695312 10.523438 5.300781 11.953125 6.46875 C 13.390625 7.632812 15.640625 8.21875 18.703125 8.21875 C 22.054688 8.21875 24.488281 7.582031 26 6.3125 C 27.519531 5.050781 28.28125 2.84375 28.28125 -0.3125 L 28.28125 -6.203125 C 26.28125 -2.597656 22.597656 -0.796875 17.234375 -0.796875 C 13.960938 -0.796875 11.253906 -1.445312 9.109375 -2.75 C 6.960938 -4.0625 5.367188 -5.875 4.328125 -8.1875 C 3.285156 -10.5 2.765625 -13.148438 2.765625 -16.140625 C 2.765625 -19.160156 3.285156 -21.816406 4.328125 -24.109375 C 5.367188 -26.398438 6.960938 -28.195312 9.109375 -29.5 C 11.253906 -30.8125 13.960938 -31.46875 17.234375 -31.46875 C 19.929688 -31.46875 22.191406 -30.96875 24.015625 -29.96875 C 25.835938 -28.96875 27.257812 -27.566406 28.28125 -25.765625 Z M 18.703125 -5.515625 C 21.941406 -5.515625 24.347656 -6.34375 25.921875 -8 C 27.492188 -9.65625 28.28125 -12.367188 28.28125 -16.140625 C 28.28125 -19.898438 27.492188 -22.609375 25.921875 -24.265625 C 24.347656 -25.921875 21.941406 -26.75 18.703125 -26.75 C 15.316406 -26.75 12.84375 -25.953125 11.28125 -24.359375 C 9.726562 -22.765625 8.953125 -20.023438 8.953125 -16.140625 C 8.953125 -12.253906 9.726562 -9.507812 11.28125 -7.90625 C 12.84375 -6.3125 15.316406 -5.515625 18.703125 -5.515625 Z M 18.703125 -5.515625 "/></g></g></g><g fill="#ffffff" fill-opacity="1"><g transform="translate(726.823641, 411.706618)"><g><path d="M 18.53125 -3.5625 C 21.3125 -3.5625 23.382812 -4.113281 24.75 -5.21875 C 26.125 -6.320312 27.015625 -7.671875 27.421875 -9.265625 L 33.0625 -9.265625 C 32.9375 -8.203125 32.597656 -7.078125 32.046875 -5.890625 C 31.492188 -4.703125 30.65625 -3.585938 29.53125 -2.546875 C 28.40625 -1.503906 26.929688 -0.65625 25.109375 0 C 23.296875 0.65625 21.039062 0.984375 18.34375 0.984375 C 14.695312 0.984375 11.726562 0.25 9.4375 -1.21875 C 7.15625 -2.695312 5.484375 -4.671875 4.421875 -7.140625 C 3.359375 -9.617188 2.828125 -12.367188 2.828125 -15.390625 C 2.828125 -18.378906 3.390625 -21.097656 4.515625 -23.546875 C 5.640625 -26.003906 7.351562 -27.96875 9.65625 -29.4375 C 11.96875 -30.914062 14.863281 -31.65625 18.34375 -31.65625 C 21.613281 -31.65625 24.34375 -30.957031 26.53125 -29.5625 C 28.71875 -28.175781 30.363281 -26.296875 31.46875 -23.921875 C 32.570312 -21.546875 33.125 -18.890625 33.125 -15.953125 C 33.125 -15.535156 33.125 -15.144531 33.125 -14.78125 C 33.125 -14.414062 33.082031 -14.03125 33 -13.625 L 8.828125 -13.625 C 8.992188 -11.039062 9.515625 -9.019531 10.390625 -7.5625 C 11.273438 -6.113281 12.410156 -5.082031 13.796875 -4.46875 C 15.191406 -3.863281 16.769531 -3.5625 18.53125 -3.5625 Z M 18.40625 -27.109375 C 15.789062 -27.109375 13.644531 -26.453125 11.96875 -25.140625 C 10.289062 -23.835938 9.265625 -21.488281 8.890625 -18.09375 L 27.234375 -18.09375 C 27.066406 -21.207031 26.238281 -23.488281 24.75 -24.9375 C 23.257812 -26.382812 21.144531 -27.109375 18.40625 -27.109375 Z M 18.40625 -27.109375 "/></g></g></g><g fill="#ffffff" fill-opacity="1"><g transform="translate(757.928849, 411.706618)"><g><path d="M 21.21875 -31.15625 L 22.140625 -31.15625 L 22.140625 -25.21875 L 20.609375 -25.21875 C 17.867188 -25.21875 15.757812 -24.675781 14.28125 -23.59375 C 12.8125 -22.507812 11.800781 -20.953125 11.25 -18.921875 C 10.695312 -16.898438 10.421875 -14.5 10.421875 -11.71875 L 10.421875 0 L 4.296875 0 L 4.296875 -30.671875 L 10.359375 -30.671875 L 10.359375 -23.25 C 11.304688 -25.539062 12.640625 -27.429688 14.359375 -28.921875 C 16.078125 -30.410156 18.363281 -31.15625 21.21875 -31.15625 Z M 21.21875 -31.15625 "/></g></g></g></svg>