<svg xmlns="http://www.w3.org/2000/svg" xmlns:xlink="http://www.w3.org/1999/xlink" width="378" zoomAndPan="magnify" viewBox="0 0 283.5 84.749999" height="113" preserveAspectRatio="xMidYMid meet" version="1.0"><defs><g/><clipPath id="b9f0107ee6"><path d="M 2 3 L 96.789062 3 L 96.789062 81.992188 L 2 81.992188 Z M 2 3 " clip-rule="nonzero"/></clipPath></defs><g clip-path="url(#b9f0107ee6)"><path fill="#723582" d="M 16.007812 74.703125 C 16.246094 74.585938 17.019531 74.246094 17.949219 74.480469 C 18.105469 74.523438 19.453125 74.882812 19.734375 76.019531 C 19.882812 76.632812 19.679688 77.316406 19.300781 77.753906 C 18.28125 78.9375 15.820312 78.527344 14.355469 77.9375 C 11.746094 76.878906 10.511719 74.507812 9.34375 72.265625 C 8.511719 70.675781 7.375 68.015625 6.945312 64.382812 C 6.28125 63.335938 5.753906 62.226562 5.367188 61.050781 C 4.652344 58.898438 4.609375 57.140625 4.585938 55.363281 C 4.558594 53.328125 4.75 51.316406 5.160156 49.328125 C 4.265625 46.980469 3.210938 43.21875 3.46875 38.585938 C 3.734375 33.878906 5.238281 30.421875 5.910156 28.921875 C 6.269531 28.109375 7.277344 26.40625 9.296875 23 C 11.46875 19.339844 12.796875 17.257812 13.679688 14.011719 C 14.378906 11.4375 14.214844 10.28125 13.679688 9.402344 C 13.019531 8.320312 11.734375 7.546875 10.378906 7.550781 C 8.371094 7.554688 6.992188 9.265625 6.496094 10.625 C 6.140625 11.582031 6.203125 12.449219 6.269531 12.929688 C 6.324219 12.976562 7.1875 13.710938 7.035156 14.738281 C 6.886719 15.761719 5.914062 16.3125 5.140625 16.363281 C 3.683594 16.457031 2.691406 14.652344 2.566406 14.421875 C 1.113281 11.707031 3.105469 8.25 3.558594 7.460938 C 4.238281 6.277344 5.261719 4.507812 7.402344 3.667969 C 10.761719 2.34375 13.980469 4.472656 14.539062 4.839844 C 15.097656 5.210938 17.484375 6.875 18.242188 9.992188 C 18.941406 12.878906 17.828125 15.425781 17.382812 16.453125 C 16.328125 18.871094 15.003906 19.683594 14.714844 22.097656 C 14.609375 23.027344 14.671875 23.945312 14.898438 24.851562 C 16.773438 25.917969 18.566406 27.109375 20.273438 28.421875 C 21.765625 29.570312 24.722656 31.84375 27.046875 34.839844 C 28.546875 36.761719 31.410156 41.070312 32.246094 48.121094 C 33.136719 51.234375 34.542969 53.332031 35.5 54.535156 C 36.164062 55.371094 37.871094 56.734375 41.28125 59.460938 C 41.28125 59.460938 43.605469 61.316406 46.746094 62.621094 C 47.101562 62.769531 47.742188 63.015625 48.566406 62.980469 C 49.550781 62.941406 50.28125 62.535156 50.75 62.261719 C 51.796875 61.660156 52.007812 61.175781 52.765625 60.574219 C 53.40625 60.074219 54.417969 59.488281 56.039062 59.246094 C 56.847656 57.878906 57.46875 56.828125 58.152344 55.667969 C 58.839844 54.503906 59.445312 53.464844 60.585938 52.457031 C 60.824219 52.246094 61.035156 52.085938 61.175781 51.980469 C 61.417969 52.128906 61.527344 52.347656 61.5 52.632812 C 61.492188 53.261719 61.535156 55.488281 61.730469 56.523438 C 61.808594 56.957031 61.996094 57.59375 62.464844 58.328125 C 63.636719 58.34375 64.761719 58.582031 65.839844 59.035156 C 66.46875 59.304688 68.304688 60.117188 69.59375 62.09375 C 69.964844 62.667969 70.253906 63.28125 70.460938 63.929688 C 70.726562 64.265625 71.039062 64.546875 71.394531 64.773438 C 71.734375 64.984375 71.914062 65.023438 72.226562 65.226562 C 72.59375 65.472656 72.898438 65.777344 73.144531 66.148438 C 73.164062 66.234375 73.167969 66.324219 73.15625 66.414062 C 73.140625 66.546875 73.097656 66.667969 73.023438 66.777344 C 73.039062 66.980469 73.039062 67.1875 73.027344 67.394531 C 73.003906 67.804688 72.9375 68.847656 72.292969 69.578125 C 71.941406 69.976562 71.675781 70.273438 71.488281 70.390625 C 71.402344 70.441406 71.339844 70.511719 71.289062 70.59375 C 71.242188 70.664062 71.222656 70.742188 71.222656 70.828125 C 71.222656 70.933594 71.257812 71.03125 71.324219 71.117188 C 72.867188 71.878906 74.84375 72.789062 77.195312 73.6875 C 79.039062 74.394531 81.347656 75.277344 84.445312 75.996094 C 88.65625 76.96875 90.757812 77.453125 91.96875 77.347656 C 91.96875 77.347656 93.890625 77.183594 96.035156 78.195312 C 96.164062 78.257812 96.4375 78.394531 96.542969 78.667969 C 96.789062 79.308594 95.953125 80.164062 95.730469 80.398438 C 94.328125 81.84375 91.941406 81.910156 91.121094 81.921875 C 87.179688 81.988281 84.429688 81.566406 81.429688 81.246094 C 77.769531 80.855469 77.917969 81.0625 73.367188 80.601562 C 70.339844 80.296875 67.875 79.957031 66.253906 79.722656 C 60.488281 79.847656 55.3125 79.902344 50.835938 79.921875 C 44.722656 79.949219 42.382812 79.894531 39.179688 79.179688 C 36.71875 78.625 33.15625 77.832031 29.355469 75.386719 C 25.992188 73.222656 25.273438 71.59375 18.785156 66.167969 C 17.375 64.988281 16.199219 64.054688 15.453125 63.46875 C 15.097656 63.566406 14.78125 63.730469 14.503906 63.96875 C 13.464844 64.84375 13.507812 66.371094 13.53125 67.230469 C 13.570312 68.621094 14.027344 69.695312 14.289062 70.289062 C 14.660156 71.144531 14.882812 71.296875 15.269531 72.1875 C 15.625 72.996094 15.867188 73.835938 16.007812 74.703125 Z M 16.007812 74.703125 " fill-opacity="1" fill-rule="nonzero"/></g><g fill="#ffffff" fill-opacity="1"><g transform="translate(33.521298, 42.249758)"><g><path d="M 15.707031 -16.84375 L 27.914062 -0.21875 L 27.914062 0 L 22.445312 0 L 12.6875 -13.605469 L 7.351562 -7.960938 L 7.351562 0 L 2.84375 0 L 2.84375 -29.09375 L 7.351562 -29.09375 L 7.351562 -13.695312 L 21.351562 -29.09375 L 27.257812 -29.09375 Z M 15.707031 -16.84375 "/></g></g></g><g fill="#ffffff" fill-opacity="1"><g transform="translate(61.212613, 42.249758)"><g><path d="M 2.492188 -25.15625 L 2.492188 -29.09375 L 8.007812 -29.09375 L 8.007812 -25.15625 Z M 3.0625 0 L 3.0625 -21.875 L 7.4375 -21.875 L 7.4375 0 Z M 3.0625 0 "/></g></g></g><g fill="#ffffff" fill-opacity="1"><g transform="translate(69.524187, 42.249758)"><g><path d="M 11.507812 0 C 9.757812 0 8.398438 -0.234375 7.4375 -0.699219 C 6.476562 -1.167969 5.8125 -1.875 5.445312 -2.820312 C 5.082031 -3.769531 4.898438 -4.972656 4.898438 -6.429688 L 4.898438 -18.507812 L 0.742188 -18.507812 L 0.742188 -20.78125 L 5.292969 -22.355469 L 7.085938 -26.820312 L 9.277344 -26.820312 L 9.277344 -21.875 L 16.277344 -21.875 L 16.277344 -18.507812 L 9.277344 -18.507812 L 9.277344 -3.5 L 15.839844 -3.5 L 15.839844 0 Z M 11.507812 0 "/></g></g></g><g fill="#ffffff" fill-opacity="1"><g transform="translate(84.835218, 42.249758)"><g><path d="M 11.507812 0 C 9.757812 0 8.398438 -0.234375 7.4375 -0.699219 C 6.476562 -1.167969 5.8125 -1.875 5.445312 -2.820312 C 5.082031 -3.769531 4.898438 -4.972656 4.898438 -6.429688 L 4.898438 -18.507812 L 0.742188 -18.507812 L 0.742188 -20.78125 L 5.292969 -22.355469 L 7.085938 -26.820312 L 9.277344 -26.820312 L 9.277344 -21.875 L 16.277344 -21.875 L 16.277344 -18.507812 L 9.277344 -18.507812 L 9.277344 -3.5 L 15.839844 -3.5 L 15.839844 0 Z M 11.507812 0 "/></g></g></g><g fill="#ffffff" fill-opacity="1"><g transform="translate(100.146248, 42.249758)"><g><path d="M 19.292969 -21.875 L 23.539062 -21.875 L 14.394531 1.925781 C 13.8125 3.472656 13.226562 4.746094 12.644531 5.753906 C 12.0625 6.757812 11.289062 7.511719 10.324219 8.007812 C 9.363281 8.503906 7.992188 8.75 6.210938 8.75 L 2.449219 8.75 L 2.449219 5.25 L 8.925781 5.25 L 10.980469 0 L 9.40625 0 L 1.136719 -21.875 L 5.644531 -21.875 L 11.550781 -6.257812 L 12.46875 -3.632812 L 13.300781 -6.257812 Z M 19.292969 -21.875 "/></g></g></g><g fill="#ffffff" fill-opacity="1"><g transform="translate(122.500476, 42.249758)"><g><path d="M 2.101562 -9.757812 L 6.476562 -9.757812 C 6.535156 -7.539062 7.234375 -5.828125 8.574219 -4.617188 C 9.917969 -3.40625 12.015625 -2.800781 14.875 -2.800781 C 16.828125 -2.800781 18.332031 -3.011719 19.382812 -3.433594 C 20.433594 -3.859375 21.152344 -4.441406 21.546875 -5.183594 C 21.941406 -5.929688 22.136719 -6.796875 22.136719 -7.789062 C 22.136719 -10.441406 20.503906 -12.003906 17.238281 -12.46875 L 10.5 -13.433594 C 5.484375 -14.132812 2.976562 -16.742188 2.976562 -21.261719 C 2.976562 -22.898438 3.382812 -24.363281 4.199219 -25.660156 C 5.015625 -26.957031 6.265625 -27.988281 7.941406 -28.746094 C 9.617188 -29.503906 11.753906 -29.882812 14.351562 -29.882812 C 17.09375 -29.882812 19.324219 -29.46875 21.042969 -28.636719 C 22.765625 -27.804688 24.054688 -26.6875 24.917969 -25.289062 C 25.777344 -23.886719 26.265625 -22.3125 26.382812 -20.5625 L 22.007812 -20.5625 C 21.804688 -22.3125 21.089844 -23.722656 19.863281 -24.785156 C 18.636719 -25.851562 16.785156 -26.382812 14.308594 -26.382812 C 11.945312 -26.382812 10.222656 -25.914062 9.144531 -24.980469 C 8.066406 -24.050781 7.523438 -22.851562 7.523438 -21.394531 C 7.523438 -20.316406 7.839844 -19.410156 8.464844 -18.683594 C 9.09375 -17.953125 10.078125 -17.484375 11.417969 -17.28125 L 18.550781 -16.230469 C 21.089844 -15.851562 23.078125 -15.050781 24.523438 -13.824219 C 25.964844 -12.601562 26.6875 -10.777344 26.6875 -8.355469 C 26.6875 -5.5 25.761719 -3.273438 23.910156 -1.683594 C 22.058594 -0.09375 19.046875 0.699219 14.875 0.699219 C 11.695312 0.699219 9.171875 0.210938 7.304688 -0.765625 C 5.441406 -1.742188 4.105469 -3.035156 3.304688 -4.636719 C 2.5 -6.242188 2.101562 -7.949219 2.101562 -9.757812 Z M 2.101562 -9.757812 "/></g></g></g><g fill="#ffffff" fill-opacity="1"><g transform="translate(149.185617, 42.249758)"><g><path d="M 13.214844 -2.539062 C 15.195312 -2.539062 16.675781 -2.929688 17.652344 -3.71875 C 18.632812 -4.507812 19.265625 -5.46875 19.558594 -6.605469 L 23.582031 -6.605469 C 23.496094 -5.847656 23.253906 -5.046875 22.859375 -4.199219 C 22.464844 -3.355469 21.867188 -2.558594 21.066406 -1.816406 C 20.265625 -1.070312 19.214844 -0.464844 17.917969 0 C 16.617188 0.464844 15.007812 0.699219 13.082031 0.699219 C 10.484375 0.699219 8.371094 0.175781 6.738281 -0.875 C 5.105469 -1.925781 3.910156 -3.332031 3.148438 -5.097656 C 2.390625 -6.863281 2.011719 -8.824219 2.011719 -10.980469 C 2.011719 -13.109375 2.414062 -15.050781 3.214844 -16.800781 C 4.019531 -18.550781 5.242188 -19.949219 6.890625 -21 C 8.539062 -22.050781 10.601562 -22.574219 13.082031 -22.574219 C 15.414062 -22.574219 17.363281 -22.082031 18.921875 -21.089844 C 20.484375 -20.097656 21.65625 -18.753906 22.445312 -17.0625 C 23.230469 -15.371094 23.625 -13.476562 23.625 -11.375 C 23.625 -11.082031 23.625 -10.808594 23.625 -10.542969 C 23.625 -10.28125 23.597656 -10.003906 23.539062 -9.714844 L 6.300781 -9.714844 C 6.417969 -7.875 6.789062 -6.4375 7.414062 -5.402344 C 8.042969 -4.367188 8.851562 -3.632812 9.84375 -3.195312 C 10.835938 -2.757812 11.957031 -2.539062 13.214844 -2.539062 Z M 13.125 -19.339844 C 11.257812 -19.339844 9.726562 -18.871094 8.53125 -17.9375 C 7.335938 -17.003906 6.605469 -15.328125 6.34375 -12.90625 L 19.425781 -12.90625 C 19.308594 -15.125 18.71875 -16.75 17.652344 -17.785156 C 16.589844 -18.820312 15.078125 -19.339844 13.125 -19.339844 Z M 13.125 -19.339844 "/></g></g></g><g fill="#ffffff" fill-opacity="1"><g transform="translate(172.458534, 42.249758)"><g><path d="M 2.011719 -10.9375 C 2.011719 -13.125 2.433594 -15.09375 3.28125 -16.84375 C 4.128906 -18.59375 5.382812 -19.988281 7.042969 -21.023438 C 8.707031 -22.058594 10.761719 -22.574219 13.214844 -22.574219 C 15.488281 -22.574219 17.390625 -22.191406 18.921875 -21.417969 C 20.453125 -20.644531 21.621094 -19.59375 22.421875 -18.265625 C 23.226562 -16.9375 23.65625 -15.414062 23.714844 -13.695312 L 19.601562 -13.695312 C 19.425781 -15.152344 18.863281 -16.414062 17.917969 -17.480469 C 16.96875 -18.542969 15.460938 -19.074219 13.386719 -19.074219 C 11.257812 -19.074219 9.566406 -18.46875 8.3125 -17.261719 C 7.058594 -16.050781 6.429688 -13.941406 6.429688 -10.9375 C 6.429688 -7.875 7.042969 -5.753906 8.269531 -4.570312 C 9.496094 -3.390625 11.171875 -2.800781 13.300781 -2.800781 C 15.429688 -2.800781 16.996094 -3.355469 18.003906 -4.460938 C 19.011719 -5.570312 19.617188 -6.898438 19.820312 -8.445312 L 23.933594 -8.445312 C 23.875 -6.839844 23.445312 -5.335938 22.640625 -3.9375 C 21.839844 -2.539062 20.65625 -1.414062 19.097656 -0.570312 C 17.539062 0.277344 15.605469 0.699219 13.300781 0.699219 C 10.851562 0.699219 8.785156 0.183594 7.109375 -0.851562 C 5.433594 -1.886719 4.164062 -3.289062 3.304688 -5.054688 C 2.441406 -6.816406 2.011719 -8.78125 2.011719 -10.9375 Z M 2.011719 -10.9375 "/></g></g></g><g fill="#ffffff" fill-opacity="1"><g transform="translate(195.950168, 42.249758)"><g><path d="M 18.507812 -21.875 L 22.882812 -21.875 L 22.882812 0 L 18.507812 0 L 18.507812 -4.769531 C 17.867188 -3.164062 16.933594 -1.851562 15.707031 -0.832031 C 14.480469 0.191406 12.832031 0.699219 10.761719 0.699219 C 7.847656 0.699219 5.761719 -0.0742188 4.507812 -1.617188 C 3.253906 -3.164062 2.625 -5.367188 2.625 -8.226562 L 2.625 -21.875 L 7 -21.875 L 7 -8.617188 C 7 -7.101562 7.226562 -5.929688 7.679688 -5.097656 C 8.128906 -4.265625 8.742188 -3.695312 9.515625 -3.390625 C 10.289062 -3.085938 11.15625 -2.929688 12.121094 -2.929688 C 14.074219 -2.929688 15.625 -3.734375 16.777344 -5.335938 C 17.929688 -6.941406 18.507812 -9.378906 18.507812 -12.644531 Z M 18.507812 -21.875 "/></g></g></g><g fill="#ffffff" fill-opacity="1"><g transform="translate(219.704289, 42.249758)"><g><path d="M 15.136719 -22.226562 L 15.792969 -22.226562 L 15.792969 -17.980469 L 14.699219 -17.980469 C 12.746094 -17.980469 11.246094 -17.59375 10.195312 -16.824219 C 9.144531 -16.050781 8.421875 -14.941406 8.027344 -13.496094 C 7.632812 -12.054688 7.4375 -10.339844 7.4375 -8.355469 L 7.4375 0 L 3.0625 0 L 3.0625 -21.875 L 7.394531 -21.875 L 7.394531 -16.582031 C 8.066406 -18.214844 9.011719 -19.5625 10.238281 -20.628906 C 11.464844 -21.695312 13.097656 -22.226562 15.136719 -22.226562 Z M 15.136719 -22.226562 "/></g></g></g><g fill="#ffffff" fill-opacity="1"><g transform="translate(234.665346, 42.249758)"><g><path d="M 2.492188 -25.15625 L 2.492188 -29.09375 L 8.007812 -29.09375 L 8.007812 -25.15625 Z M 3.0625 0 L 3.0625 -21.875 L 7.4375 -21.875 L 7.4375 0 Z M 3.0625 0 "/></g></g></g><g fill="#ffffff" fill-opacity="1"><g transform="translate(242.976914, 42.249758)"><g><path d="M 11.507812 0 C 9.757812 0 8.398438 -0.234375 7.4375 -0.699219 C 6.476562 -1.167969 5.8125 -1.875 5.445312 -2.820312 C 5.082031 -3.769531 4.898438 -4.972656 4.898438 -6.429688 L 4.898438 -18.507812 L 0.742188 -18.507812 L 0.742188 -20.78125 L 5.292969 -22.355469 L 7.085938 -26.820312 L 9.277344 -26.820312 L 9.277344 -21.875 L 16.277344 -21.875 L 16.277344 -18.507812 L 9.277344 -18.507812 L 9.277344 -3.5 L 15.839844 -3.5 L 15.839844 0 Z M 11.507812 0 "/></g></g></g><g fill="#ffffff" fill-opacity="1"><g transform="translate(258.287951, 42.249758)"><g><path d="M 19.292969 -21.875 L 23.539062 -21.875 L 14.394531 1.925781 C 13.8125 3.472656 13.226562 4.746094 12.644531 5.753906 C 12.0625 6.757812 11.289062 7.511719 10.324219 8.007812 C 9.363281 8.503906 7.992188 8.75 6.210938 8.75 L 2.449219 8.75 L 2.449219 5.25 L 8.925781 5.25 L 10.980469 0 L 9.40625 0 L 1.136719 -21.875 L 5.644531 -21.875 L 11.550781 -6.257812 L 12.46875 -3.632812 L 13.300781 -6.257812 Z M 19.292969 -21.875 "/></g></g></g><g fill="#ffffff" fill-opacity="1"><g transform="translate(102.082489, 74.908547)"><g><path d="M 8.140625 -14.285156 C 9.199219 -14.285156 10.054688 -14.082031 10.707031 -13.683594 C 11.359375 -13.28125 11.835938 -12.75 12.136719 -12.09375 C 12.4375 -11.433594 12.585938 -10.726562 12.585938 -9.964844 C 12.585938 -9.191406 12.4375 -8.476562 12.136719 -7.820312 C 11.835938 -7.160156 11.359375 -6.628906 10.707031 -6.230469 C 10.054688 -5.828125 9.199219 -5.628906 8.140625 -5.628906 L 3.628906 -5.628906 L 3.628906 0 L 1.394531 0 L 1.394531 -14.285156 Z M 7.605469 -7.410156 C 8.621094 -7.410156 9.320312 -7.652344 9.699219 -8.140625 C 10.078125 -8.628906 10.265625 -9.234375 10.265625 -9.964844 C 10.265625 -10.695312 10.078125 -11.300781 9.699219 -11.78125 C 9.320312 -12.261719 8.621094 -12.5 7.605469 -12.5 L 3.628906 -12.5 L 3.628906 -7.410156 Z M 7.605469 -7.410156 "/></g></g></g><g fill="#ffffff" fill-opacity="1"><g transform="translate(113.917839, 74.908547)"><g><path d="M 4.746094 0.277344 C 3.660156 0.277344 2.792969 0 2.148438 -0.558594 C 1.503906 -1.117188 1.179688 -1.890625 1.179688 -2.878906 C 1.179688 -3.738281 1.425781 -4.441406 1.910156 -4.992188 C 2.398438 -5.546875 3.242188 -5.921875 4.445312 -6.121094 L 7.132812 -6.574219 C 7.648438 -6.660156 8.027344 -6.792969 8.269531 -6.980469 C 8.511719 -7.167969 8.636719 -7.445312 8.636719 -7.820312 C 8.636719 -8.304688 8.472656 -8.699219 8.152344 -9 C 7.828125 -9.300781 7.203125 -9.449219 6.273438 -9.449219 C 5.398438 -9.449219 4.742188 -9.277344 4.308594 -8.925781 C 3.871094 -8.574219 3.621094 -8.0625 3.566406 -7.390625 L 1.417969 -7.390625 C 1.433594 -8.535156 1.851562 -9.441406 2.675781 -10.105469 C 3.496094 -10.773438 4.667969 -11.105469 6.1875 -11.105469 C 7.675781 -11.105469 8.785156 -10.796875 9.515625 -10.179688 C 10.246094 -9.566406 10.609375 -8.765625 10.609375 -7.777344 L 10.609375 -2.449219 C 10.609375 -2.046875 10.617188 -1.664062 10.632812 -1.300781 C 10.648438 -0.933594 10.675781 -0.5 10.71875 0 L 8.765625 0 C 8.722656 -0.414062 8.6875 -0.816406 8.667969 -1.203125 C 8.644531 -1.589844 8.636719 -1.996094 8.636719 -2.425781 C 8.492188 -1.984375 8.257812 -1.554688 7.9375 -1.136719 C 7.613281 -0.722656 7.191406 -0.382812 6.667969 -0.117188 C 6.148438 0.148438 5.507812 0.277344 4.746094 0.277344 Z M 5.199219 -1.375 C 5.957031 -1.375 6.589844 -1.546875 7.097656 -1.890625 C 7.605469 -2.234375 7.992188 -2.695312 8.25 -3.277344 C 8.507812 -3.855469 8.636719 -4.503906 8.636719 -5.21875 L 8.636719 -5.863281 C 8.347656 -5.648438 8.039062 -5.488281 7.710938 -5.378906 C 7.382812 -5.273438 7.050781 -5.183594 6.722656 -5.113281 L 5.242188 -4.769531 C 4.582031 -4.625 4.097656 -4.414062 3.792969 -4.136719 C 3.484375 -3.855469 3.328125 -3.464844 3.328125 -2.964844 C 3.328125 -2.449219 3.5 -2.054688 3.84375 -1.78125 C 4.1875 -1.511719 4.640625 -1.375 5.199219 -1.375 Z M 5.199219 -1.375 "/></g></g></g><g fill="#ffffff" fill-opacity="1"><g transform="translate(124.228128, 74.908547)"><g><path d="M 0.730469 -3.585938 L 2.726562 -3.585938 C 2.769531 -2.929688 3.027344 -2.375 3.5 -1.921875 C 3.972656 -1.472656 4.734375 -1.246094 5.777344 -1.246094 C 6.738281 -1.246094 7.375 -1.398438 7.691406 -1.707031 C 8.003906 -2.015625 8.164062 -2.414062 8.164062 -2.898438 C 8.164062 -3.34375 8.035156 -3.691406 7.777344 -3.941406 C 7.519531 -4.191406 7.101562 -4.359375 6.53125 -4.445312 L 3.867188 -4.855469 C 2.9375 -4.996094 2.222656 -5.320312 1.730469 -5.820312 C 1.234375 -6.320312 0.988281 -6.980469 0.988281 -7.796875 C 0.988281 -8.828125 1.382812 -9.636719 2.167969 -10.222656 C 2.957031 -10.8125 4.050781 -11.105469 5.457031 -11.105469 C 6.84375 -11.105469 7.949219 -10.789062 8.765625 -10.160156 C 9.578125 -9.53125 10.023438 -8.707031 10.09375 -7.691406 L 7.949219 -7.691406 C 7.890625 -8.191406 7.65625 -8.621094 7.25 -8.980469 C 6.839844 -9.335938 6.222656 -9.515625 5.390625 -9.515625 C 4.5625 -9.515625 3.964844 -9.367188 3.609375 -9.074219 C 3.25 -8.78125 3.070312 -8.421875 3.070312 -7.992188 C 3.070312 -7.675781 3.175781 -7.394531 3.382812 -7.140625 C 3.589844 -6.890625 3.980469 -6.722656 4.554688 -6.636719 L 6.875 -6.292969 C 7.761719 -6.164062 8.453125 -5.945312 8.945312 -5.636719 C 9.441406 -5.332031 9.785156 -4.953125 9.976562 -4.511719 C 10.171875 -4.066406 10.265625 -3.566406 10.265625 -3.007812 C 10.265625 -1.90625 9.898438 -1.070312 9.160156 -0.503906 C 8.421875 0.0625 7.273438 0.34375 5.714844 0.34375 C 4.539062 0.34375 3.582031 0.167969 2.847656 -0.183594 C 2.109375 -0.535156 1.570312 -1.007812 1.234375 -1.601562 C 0.898438 -2.195312 0.730469 -2.855469 0.730469 -3.585938 Z M 0.730469 -3.585938 "/></g></g></g><g fill="#ffffff" fill-opacity="1"><g transform="translate(133.700704, 74.908547)"><g><path d="M 0.730469 -3.585938 L 2.726562 -3.585938 C 2.769531 -2.929688 3.027344 -2.375 3.5 -1.921875 C 3.972656 -1.472656 4.734375 -1.246094 5.777344 -1.246094 C 6.738281 -1.246094 7.375 -1.398438 7.691406 -1.707031 C 8.003906 -2.015625 8.164062 -2.414062 8.164062 -2.898438 C 8.164062 -3.34375 8.035156 -3.691406 7.777344 -3.941406 C 7.519531 -4.191406 7.101562 -4.359375 6.53125 -4.445312 L 3.867188 -4.855469 C 2.9375 -4.996094 2.222656 -5.320312 1.730469 -5.820312 C 1.234375 -6.320312 0.988281 -6.980469 0.988281 -7.796875 C 0.988281 -8.828125 1.382812 -9.636719 2.167969 -10.222656 C 2.957031 -10.8125 4.050781 -11.105469 5.457031 -11.105469 C 6.84375 -11.105469 7.949219 -10.789062 8.765625 -10.160156 C 9.578125 -9.53125 10.023438 -8.707031 10.09375 -7.691406 L 7.949219 -7.691406 C 7.890625 -8.191406 7.65625 -8.621094 7.25 -8.980469 C 6.839844 -9.335938 6.222656 -9.515625 5.390625 -9.515625 C 4.5625 -9.515625 3.964844 -9.367188 3.609375 -9.074219 C 3.25 -8.78125 3.070312 -8.421875 3.070312 -7.992188 C 3.070312 -7.675781 3.175781 -7.394531 3.382812 -7.140625 C 3.589844 -6.890625 3.980469 -6.722656 4.554688 -6.636719 L 6.875 -6.292969 C 7.761719 -6.164062 8.453125 -5.945312 8.945312 -5.636719 C 9.441406 -5.332031 9.785156 -4.953125 9.976562 -4.511719 C 10.171875 -4.066406 10.265625 -3.566406 10.265625 -3.007812 C 10.265625 -1.90625 9.898438 -1.070312 9.160156 -0.503906 C 8.421875 0.0625 7.273438 0.34375 5.714844 0.34375 C 4.539062 0.34375 3.582031 0.167969 2.847656 -0.183594 C 2.109375 -0.535156 1.570312 -1.007812 1.234375 -1.601562 C 0.898438 -2.195312 0.730469 -2.855469 0.730469 -3.585938 Z M 0.730469 -3.585938 "/></g></g></g><g fill="#ffffff" fill-opacity="1"><g transform="translate(143.17328, 74.908547)"><g><path d="M 16.367188 -10.738281 L 18.449219 -10.738281 L 15.230469 0 L 12.179688 0 L 9.492188 -8.164062 L 6.808594 0 L 3.757812 0 L 0.535156 -10.738281 L 2.75 -10.738281 L 5.390625 -1.609375 L 8.484375 -10.738281 L 10.632812 -10.738281 L 13.726562 -1.609375 Z M 16.367188 -10.738281 "/></g></g></g><g fill="#ffffff" fill-opacity="1"><g transform="translate(160.550402, 74.908547)"><g><path d="M 6.53125 0.34375 C 5.285156 0.34375 4.25 0.0859375 3.425781 -0.429688 C 2.601562 -0.945312 1.992188 -1.636719 1.589844 -2.503906 C 1.1875 -3.367188 0.988281 -4.332031 0.988281 -5.390625 C 0.988281 -6.4375 1.1875 -7.390625 1.589844 -8.25 C 1.992188 -9.105469 2.601562 -9.792969 3.425781 -10.308594 C 4.25 -10.824219 5.285156 -11.082031 6.53125 -11.082031 C 7.777344 -11.082031 8.808594 -10.824219 9.621094 -10.308594 C 10.4375 -9.792969 11.050781 -9.105469 11.460938 -8.25 C 11.867188 -7.390625 12.070312 -6.4375 12.070312 -5.390625 C 12.070312 -4.347656 11.867188 -3.386719 11.460938 -2.511719 C 11.050781 -1.640625 10.4375 -0.945312 9.621094 -0.429688 C 8.808594 0.0859375 7.777344 0.34375 6.53125 0.34375 Z M 3.15625 -5.371094 C 3.15625 -3.9375 3.429688 -2.914062 3.972656 -2.296875 C 4.519531 -1.683594 5.371094 -1.375 6.53125 -1.375 C 7.691406 -1.375 8.542969 -1.683594 9.085938 -2.296875 C 9.628906 -2.914062 9.902344 -3.9375 9.902344 -5.371094 C 9.902344 -6.800781 9.628906 -7.824219 9.085938 -8.441406 C 8.542969 -9.058594 7.691406 -9.363281 6.53125 -9.363281 C 5.371094 -9.363281 4.519531 -9.058594 3.972656 -8.441406 C 3.429688 -7.824219 3.15625 -6.800781 3.15625 -5.371094 Z M 3.15625 -5.371094 "/></g></g></g><g fill="#ffffff" fill-opacity="1"><g transform="translate(171.999118, 74.908547)"><g><path d="M 7.433594 -10.910156 L 7.753906 -10.910156 L 7.753906 -8.828125 L 7.21875 -8.828125 C 6.257812 -8.828125 5.519531 -8.636719 5.003906 -8.257812 C 4.488281 -7.878906 4.136719 -7.335938 3.941406 -6.625 C 3.75 -5.917969 3.652344 -5.078125 3.652344 -4.101562 L 3.652344 0 L 1.503906 0 L 1.503906 -10.738281 L 3.628906 -10.738281 L 3.628906 -8.140625 C 3.960938 -8.941406 4.425781 -9.605469 5.027344 -10.128906 C 5.628906 -10.648438 6.429688 -10.910156 7.433594 -10.910156 Z M 7.433594 -10.910156 "/></g></g></g><g fill="#ffffff" fill-opacity="1"><g transform="translate(178.808207, 74.908547)"><g><path d="M 9.964844 -15.035156 L 12.113281 -15.035156 L 12.113281 0 L 9.964844 0 L 9.964844 -1.847656 C 9.609375 -1.144531 9.101562 -0.605469 8.441406 -0.226562 C 7.78125 0.152344 6.964844 0.34375 5.992188 0.34375 C 4.847656 0.34375 3.902344 0.0859375 3.15625 -0.429688 C 2.414062 -0.945312 1.863281 -1.636719 1.515625 -2.503906 C 1.164062 -3.367188 0.988281 -4.324219 0.988281 -5.371094 C 0.988281 -6.429688 1.164062 -7.390625 1.515625 -8.25 C 1.863281 -9.105469 2.414062 -9.792969 3.15625 -10.308594 C 3.902344 -10.824219 4.847656 -11.082031 5.992188 -11.082031 C 6.964844 -11.082031 7.78125 -10.894531 8.441406 -10.515625 C 9.101562 -10.136719 9.609375 -9.59375 9.964844 -8.894531 Z M 6.445312 -1.375 C 7.574219 -1.375 8.445312 -1.695312 9.054688 -2.339844 C 9.664062 -2.984375 9.964844 -3.996094 9.964844 -5.371094 C 9.964844 -6.746094 9.664062 -7.753906 9.054688 -8.398438 C 8.445312 -9.042969 7.574219 -9.363281 6.445312 -9.363281 C 5.253906 -9.363281 4.410156 -9.03125 3.910156 -8.367188 C 3.40625 -7.699219 3.15625 -6.703125 3.15625 -5.371094 C 3.15625 -4.039062 3.40625 -3.039062 3.910156 -2.375 C 4.410156 -1.707031 5.253906 -1.375 6.445312 -1.375 Z M 6.445312 -1.375 "/></g></g></g><g fill="#ffffff" fill-opacity="1"><g transform="translate(190.772433, 74.908547)"><g/></g></g><g fill="#ffffff" fill-opacity="1"><g transform="translate(194.445479, 74.908547)"><g><path d="M 17.507812 -14.285156 L 17.507812 0 L 15.292969 0 L 15.292969 -12.566406 L 10.910156 0 L 7.992188 0 L 3.609375 -12.566406 L 3.609375 0 L 1.394531 0 L 1.394531 -14.285156 L 5.242188 -14.285156 L 9.472656 -2.148438 L 13.703125 -14.285156 Z M 17.507812 -14.285156 "/></g></g></g><g fill="#ffffff" fill-opacity="1"><g transform="translate(211.736682, 74.908547)"><g><path d="M 4.746094 0.277344 C 3.660156 0.277344 2.792969 0 2.148438 -0.558594 C 1.503906 -1.117188 1.179688 -1.890625 1.179688 -2.878906 C 1.179688 -3.738281 1.425781 -4.441406 1.910156 -4.992188 C 2.398438 -5.546875 3.242188 -5.921875 4.445312 -6.121094 L 7.132812 -6.574219 C 7.648438 -6.660156 8.027344 -6.792969 8.269531 -6.980469 C 8.511719 -7.167969 8.636719 -7.445312 8.636719 -7.820312 C 8.636719 -8.304688 8.472656 -8.699219 8.152344 -9 C 7.828125 -9.300781 7.203125 -9.449219 6.273438 -9.449219 C 5.398438 -9.449219 4.742188 -9.277344 4.308594 -8.925781 C 3.871094 -8.574219 3.621094 -8.0625 3.566406 -7.390625 L 1.417969 -7.390625 C 1.433594 -8.535156 1.851562 -9.441406 2.675781 -10.105469 C 3.496094 -10.773438 4.667969 -11.105469 6.1875 -11.105469 C 7.675781 -11.105469 8.785156 -10.796875 9.515625 -10.179688 C 10.246094 -9.566406 10.609375 -8.765625 10.609375 -7.777344 L 10.609375 -2.449219 C 10.609375 -2.046875 10.617188 -1.664062 10.632812 -1.300781 C 10.648438 -0.933594 10.675781 -0.5 10.71875 0 L 8.765625 0 C 8.722656 -0.414062 8.6875 -0.816406 8.667969 -1.203125 C 8.644531 -1.589844 8.636719 -1.996094 8.636719 -2.425781 C 8.492188 -1.984375 8.257812 -1.554688 7.9375 -1.136719 C 7.613281 -0.722656 7.191406 -0.382812 6.667969 -0.117188 C 6.148438 0.148438 5.507812 0.277344 4.746094 0.277344 Z M 5.199219 -1.375 C 5.957031 -1.375 6.589844 -1.546875 7.097656 -1.890625 C 7.605469 -2.234375 7.992188 -2.695312 8.25 -3.277344 C 8.507812 -3.855469 8.636719 -4.503906 8.636719 -5.21875 L 8.636719 -5.863281 C 8.347656 -5.648438 8.039062 -5.488281 7.710938 -5.378906 C 7.382812 -5.273438 7.050781 -5.183594 6.722656 -5.113281 L 5.242188 -4.769531 C 4.582031 -4.625 4.097656 -4.414062 3.792969 -4.136719 C 3.484375 -3.855469 3.328125 -3.464844 3.328125 -2.964844 C 3.328125 -2.449219 3.5 -2.054688 3.84375 -1.78125 C 4.1875 -1.511719 4.640625 -1.375 5.199219 -1.375 Z M 5.199219 -1.375 "/></g></g></g><g fill="#ffffff" fill-opacity="1"><g transform="translate(222.046971, 74.908547)"><g><path d="M 7.539062 -11.082031 C 8.972656 -11.082031 9.980469 -10.703125 10.566406 -9.945312 C 11.15625 -9.1875 11.449219 -8.105469 11.449219 -6.703125 L 11.449219 0 L 9.300781 0 L 9.300781 -6.507812 C 9.300781 -7.265625 9.195312 -7.847656 8.988281 -8.25 C 8.78125 -8.648438 8.5 -8.925781 8.140625 -9.074219 C 7.78125 -9.226562 7.375 -9.300781 6.917969 -9.300781 C 5.871094 -9.300781 5.066406 -8.933594 4.5 -8.195312 C 3.933594 -7.457031 3.652344 -6.234375 3.652344 -4.53125 L 3.652344 0 L 1.503906 0 L 1.503906 -10.738281 L 3.652344 -10.738281 L 3.652344 -8.335938 C 3.980469 -9.136719 4.453125 -9.792969 5.070312 -10.308594 C 5.683594 -10.824219 6.507812 -11.082031 7.539062 -11.082031 Z M 7.539062 -11.082031 "/></g></g></g><g fill="#ffffff" fill-opacity="1"><g transform="translate(233.173491, 74.908547)"><g><path d="M 4.746094 0.277344 C 3.660156 0.277344 2.792969 0 2.148438 -0.558594 C 1.503906 -1.117188 1.179688 -1.890625 1.179688 -2.878906 C 1.179688 -3.738281 1.425781 -4.441406 1.910156 -4.992188 C 2.398438 -5.546875 3.242188 -5.921875 4.445312 -6.121094 L 7.132812 -6.574219 C 7.648438 -6.660156 8.027344 -6.792969 8.269531 -6.980469 C 8.511719 -7.167969 8.636719 -7.445312 8.636719 -7.820312 C 8.636719 -8.304688 8.472656 -8.699219 8.152344 -9 C 7.828125 -9.300781 7.203125 -9.449219 6.273438 -9.449219 C 5.398438 -9.449219 4.742188 -9.277344 4.308594 -8.925781 C 3.871094 -8.574219 3.621094 -8.0625 3.566406 -7.390625 L 1.417969 -7.390625 C 1.433594 -8.535156 1.851562 -9.441406 2.675781 -10.105469 C 3.496094 -10.773438 4.667969 -11.105469 6.1875 -11.105469 C 7.675781 -11.105469 8.785156 -10.796875 9.515625 -10.179688 C 10.246094 -9.566406 10.609375 -8.765625 10.609375 -7.777344 L 10.609375 -2.449219 C 10.609375 -2.046875 10.617188 -1.664062 10.632812 -1.300781 C 10.648438 -0.933594 10.675781 -0.5 10.71875 0 L 8.765625 0 C 8.722656 -0.414062 8.6875 -0.816406 8.667969 -1.203125 C 8.644531 -1.589844 8.636719 -1.996094 8.636719 -2.425781 C 8.492188 -1.984375 8.257812 -1.554688 7.9375 -1.136719 C 7.613281 -0.722656 7.191406 -0.382812 6.667969 -0.117188 C 6.148438 0.148438 5.507812 0.277344 4.746094 0.277344 Z M 5.199219 -1.375 C 5.957031 -1.375 6.589844 -1.546875 7.097656 -1.890625 C 7.605469 -2.234375 7.992188 -2.695312 8.25 -3.277344 C 8.507812 -3.855469 8.636719 -4.503906 8.636719 -5.21875 L 8.636719 -5.863281 C 8.347656 -5.648438 8.039062 -5.488281 7.710938 -5.378906 C 7.382812 -5.273438 7.050781 -5.183594 6.722656 -5.113281 L 5.242188 -4.769531 C 4.582031 -4.625 4.097656 -4.414062 3.792969 -4.136719 C 3.484375 -3.855469 3.328125 -3.464844 3.328125 -2.964844 C 3.328125 -2.449219 3.5 -2.054688 3.84375 -1.78125 C 4.1875 -1.511719 4.640625 -1.375 5.199219 -1.375 Z M 5.199219 -1.375 "/></g></g></g><g fill="#ffffff" fill-opacity="1"><g transform="translate(243.483766, 74.908547)"><g><path d="M 9.902344 -10.738281 L 12.050781 -10.738281 L 12.050781 -0.0429688 C 12.050781 1.417969 11.632812 2.546875 10.792969 3.339844 C 9.957031 4.136719 8.535156 4.53125 6.53125 4.53125 C 4.898438 4.53125 3.621094 4.195312 2.707031 3.523438 C 1.789062 2.851562 1.28125 1.867188 1.179688 0.578125 L 3.328125 0.578125 C 3.402344 1.296875 3.6875 1.859375 4.1875 2.265625 C 4.691406 2.675781 5.476562 2.878906 6.550781 2.878906 C 7.726562 2.878906 8.578125 2.65625 9.105469 2.210938 C 9.636719 1.769531 9.902344 0.996094 9.902344 -0.105469 L 9.902344 -2.167969 C 9.199219 -0.910156 7.910156 -0.277344 6.035156 -0.277344 C 4.890625 -0.277344 3.941406 -0.507812 3.191406 -0.964844 C 2.4375 -1.425781 1.878906 -2.058594 1.515625 -2.867188 C 1.148438 -3.675781 0.964844 -4.605469 0.964844 -5.648438 C 0.964844 -6.707031 1.148438 -7.640625 1.515625 -8.441406 C 1.878906 -9.242188 2.4375 -9.875 3.191406 -10.332031 C 3.941406 -10.789062 4.890625 -11.019531 6.035156 -11.019531 C 6.980469 -11.019531 7.773438 -10.84375 8.410156 -10.492188 C 9.046875 -10.140625 9.542969 -9.652344 9.902344 -9.019531 Z M 6.550781 -1.933594 C 7.683594 -1.933594 8.523438 -2.222656 9.074219 -2.804688 C 9.625 -3.382812 9.902344 -4.332031 9.902344 -5.648438 C 9.902344 -6.964844 9.625 -7.914062 9.074219 -8.496094 C 8.523438 -9.074219 7.683594 -9.363281 6.550781 -9.363281 C 5.363281 -9.363281 4.496094 -9.085938 3.953125 -8.527344 C 3.40625 -7.96875 3.136719 -7.007812 3.136719 -5.648438 C 3.136719 -4.289062 3.40625 -3.328125 3.953125 -2.769531 C 4.496094 -2.210938 5.363281 -1.933594 6.550781 -1.933594 Z M 6.550781 -1.933594 "/></g></g></g><g fill="#ffffff" fill-opacity="1"><g transform="translate(255.383568, 74.908547)"><g><path d="M 6.488281 -1.246094 C 7.460938 -1.246094 8.1875 -1.4375 8.667969 -1.824219 C 9.148438 -2.210938 9.457031 -2.683594 9.601562 -3.242188 L 11.578125 -3.242188 C 11.535156 -2.871094 11.417969 -2.476562 11.222656 -2.0625 C 11.03125 -1.648438 10.734375 -1.257812 10.34375 -0.890625 C 9.949219 -0.527344 9.433594 -0.230469 8.796875 0 C 8.160156 0.230469 7.367188 0.34375 6.421875 0.34375 C 5.148438 0.34375 4.109375 0.0859375 3.308594 -0.429688 C 2.507812 -0.945312 1.917969 -1.636719 1.546875 -2.503906 C 1.175781 -3.367188 0.988281 -4.332031 0.988281 -5.390625 C 0.988281 -6.4375 1.183594 -7.390625 1.578125 -8.25 C 1.972656 -9.105469 2.574219 -9.792969 3.382812 -10.308594 C 4.191406 -10.824219 5.207031 -11.082031 6.421875 -11.082031 C 7.566406 -11.082031 8.523438 -10.839844 9.289062 -10.351562 C 10.054688 -9.867188 10.632812 -9.207031 11.019531 -8.378906 C 11.40625 -7.546875 11.597656 -6.617188 11.597656 -5.585938 C 11.597656 -5.441406 11.597656 -5.304688 11.597656 -5.175781 C 11.597656 -5.046875 11.585938 -4.910156 11.554688 -4.769531 L 3.09375 -4.769531 C 3.148438 -3.867188 3.332031 -3.160156 3.640625 -2.652344 C 3.949219 -2.144531 4.347656 -1.78125 4.832031 -1.566406 C 5.320312 -1.351562 5.871094 -1.246094 6.488281 -1.246094 Z M 6.445312 -9.492188 C 5.527344 -9.492188 4.777344 -9.265625 4.1875 -8.808594 C 3.601562 -8.347656 3.242188 -7.523438 3.113281 -6.335938 L 9.535156 -6.335938 C 9.480469 -7.425781 9.191406 -8.222656 8.667969 -8.730469 C 8.144531 -9.238281 7.402344 -9.492188 6.445312 -9.492188 Z M 6.445312 -9.492188 "/></g></g></g><g fill="#ffffff" fill-opacity="1"><g transform="translate(266.273805, 74.908547)"><g><path d="M 7.433594 -10.910156 L 7.753906 -10.910156 L 7.753906 -8.828125 L 7.21875 -8.828125 C 6.257812 -8.828125 5.519531 -8.636719 5.003906 -8.257812 C 4.488281 -7.878906 4.136719 -7.335938 3.941406 -6.625 C 3.75 -5.917969 3.652344 -5.078125 3.652344 -4.101562 L 3.652344 0 L 1.503906 0 L 1.503906 -10.738281 L 3.628906 -10.738281 L 3.628906 -8.140625 C 3.960938 -8.941406 4.425781 -9.605469 5.027344 -10.128906 C 5.628906 -10.648438 6.429688 -10.910156 7.433594 -10.910156 Z M 7.433594 -10.910156 "/></g></g></g></svg>