<svg xmlns="http://www.w3.org/2000/svg" xmlns:xlink="http://www.w3.org/1999/xlink" width="1080" zoomAndPan="magnify" viewBox="0 0 810 809.999993" height="1080" preserveAspectRatio="xMidYMid meet" version="1.0"><path fill="#e5e900" d="M 405 285.882812 C 324.164062 285.882812 258.394531 351.652344 258.394531 432.488281 C 258.394531 513.324219 324.164062 579.09375 405 579.09375 C 485.835938 579.09375 551.605469 513.324219 551.605469 432.488281 C 551.605469 351.652344 485.835938 285.882812 405 285.882812 Z M 405 542.445312 C 344.359375 542.445312 295.046875 493.128906 295.046875 432.488281 C 295.046875 371.847656 344.359375 322.535156 405 322.535156 C 465.640625 322.535156 514.953125 371.847656 514.953125 432.488281 C 514.953125 493.128906 465.640625 542.445312 405 542.445312 Z M 405 542.445312 " fill-opacity="1" fill-rule="nonzero"/><path fill="#e5e900" d="M 691.449219 319.328125 C 692.148438 318.8125 711.167969 298.839844 711.167969 298.839844 C 718.335938 291.671875 718.335938 280.089844 711.167969 272.925781 C 704.003906 265.761719 692.421875 265.761719 685.257812 272.925781 C 685.257812 272.925781 662.570312 295.375 661.726562 298.214844 C 634.457031 280.257812 604.878906 263.875 571.929688 249.578125 L 586.332031 220.789062 C 590.859375 211.734375 587.195312 200.722656 578.140625 196.195312 C 569.050781 191.652344 558.074219 195.351562 553.550781 204.386719 L 537.660156 236.164062 C 501.742188 223.648438 463.386719 215.125 423.324219 213.109375 L 423.324219 175.925781 C 423.324219 165.8125 415.117188 157.601562 405 157.601562 C 394.882812 157.601562 386.675781 165.8125 386.675781 175.925781 L 386.675781 213.09375 C 346.613281 215.125 308.257812 223.628906 272.339844 236.144531 L 256.449219 204.371094 C 251.925781 195.316406 240.929688 191.632812 231.859375 196.175781 C 222.804688 200.703125 219.140625 211.71875 223.667969 220.769531 L 238.070312 249.5625 C 205.121094 263.855469 175.707031 280.402344 148.4375 298.378906 C 147.597656 295.539062 124.742188 272.925781 124.742188 272.925781 C 117.578125 265.761719 105.996094 265.761719 98.832031 272.925781 C 91.664062 280.089844 91.664062 291.671875 98.832031 298.839844 C 98.832031 298.839844 118.273438 318.300781 118.972656 318.832031 C 51.679688 368.054688 9.75 416.492188 6.230469 420.578125 C 0.367188 427.449219 0.367188 437.527344 6.230469 444.402344 C 13.488281 452.886719 186.519531 652.398438 405 652.398438 C 623.480469 652.398438 796.511719 452.886719 803.769531 444.402344 C 809.632812 437.527344 809.632812 427.449219 803.769531 420.578125 C 800.269531 416.472656 758.742188 368.550781 691.449219 319.328125 Z M 405 615.746094 C 233.03125 615.746094 85.542969 474.875 45.042969 432.488281 C 85.542969 390.101562 233.03125 249.230469 405 249.230469 C 576.96875 249.230469 724.457031 390.101562 764.957031 432.488281 C 724.457031 474.875 576.96875 615.746094 405 615.746094 Z M 405 615.746094 " fill-opacity="1" fill-rule="nonzero"/></svg>