<svg xmlns="http://www.w3.org/2000/svg" xmlns:xlink="http://www.w3.org/1999/xlink" width="1080" zoomAndPan="magnify" viewBox="0 0 810 809.999993" height="1080" preserveAspectRatio="xMidYMid meet" version="1.0"><path fill="#e5e900" d="M 346.796875 6.296875 C 327.699219 6.296875 311.375 19.796875 307.707031 38.535156 L 294.390625 106.90625 C 261.667969 119.28125 231.40625 136.566406 204.835938 158.378906 L 139.269531 135.796875 C 121.207031 129.578125 101.335938 137.046875 91.769531 153.550781 L 31.652344 257.742188 C 22.121094 274.289062 25.589844 295.296875 39.984375 307.816406 L 92.546875 353.527344 C 89.8125 370.324219 88.03125 387.429688 88.03125 405 C 88.03125 422.570312 89.8125 439.675781 92.546875 456.472656 L 39.984375 502.183594 C 25.589844 514.703125 22.121094 535.710938 31.652344 552.257812 L 91.769531 656.449219 C 101.296875 672.996094 121.207031 680.460938 139.269531 674.28125 L 204.835938 651.699219 C 231.398438 673.496094 261.679688 690.726562 294.390625 703.09375 L 307.707031 771.464844 C 311.375 790.203125 327.699219 803.703125 346.796875 803.703125 L 467.1875 803.703125 C 486.285156 803.703125 502.613281 790.203125 506.28125 771.464844 L 519.597656 703.09375 C 552.320312 690.71875 582.578125 673.433594 609.148438 651.621094 L 674.71875 674.203125 C 692.777344 680.421875 712.652344 672.996094 722.21875 656.449219 L 782.335938 552.179688 C 791.867188 535.632812 788.398438 514.703125 774.003906 502.183594 L 721.441406 456.472656 C 724.175781 439.675781 725.957031 422.570312 725.957031 405 C 725.957031 387.429688 724.175781 370.324219 721.441406 353.527344 L 774.003906 307.816406 C 788.398438 295.296875 791.867188 274.289062 782.335938 257.742188 L 722.21875 153.550781 C 712.691406 137.003906 692.777344 129.539062 674.71875 135.71875 L 609.148438 158.300781 C 582.585938 136.503906 552.304688 119.273438 519.597656 106.90625 L 506.28125 38.535156 C 502.613281 19.796875 486.285156 6.296875 467.1875 6.296875 Z M 406.992188 245.519531 C 495.066406 245.519531 566.476562 316.925781 566.476562 405 C 566.476562 493.074219 495.066406 564.480469 406.992188 564.480469 C 318.917969 564.480469 247.511719 493.074219 247.511719 405 C 247.511719 316.925781 318.917969 245.519531 406.992188 245.519531 Z M 406.992188 245.519531 " fill-opacity="1" fill-rule="nonzero"/></svg>